<?xml version="1.0" encoding="UTF-8"?>
<svg xmlns="http://www.w3.org/2000/svg" xmlns:xlink="http://www.w3.org/1999/xlink" viewBox="0 0 460.80 230.40">
<defs>
  <style type="text/css"><![CDATA[
    line, polyline, path, rect, circle {
      fill: none;
      stroke: #000000;
      stroke-linecap: round;
      stroke-linejoin: round;
      stroke-miterlimit: 10.00;
    }
  ]]></style>
</defs>
<rect width="100%" height="100%" style="stroke: none; fill: #FFFFFF;"/>
<rect x="0.00" y="-0.00" width="460.80" height="230.40" style="stroke-width: 1.07; stroke: #FFFFFF; fill: #FFFFFF;"/>
<defs>
  <clipPath id="cpNDguNzk2OXw0NTUuMzIxfDE5Ny44MTF8NS40Nzk0NQ==">
    <rect x="48.80" y="5.48" width="406.52" height="192.33"/>
  </clipPath>
</defs>
<rect x="48.80" y="5.48" width="406.52" height="192.33" style="stroke-width: 1.07; stroke: none; fill: #EBEBEB;" clip-path="url(#cpNDguNzk2OXw0NTUuMzIxfDE5Ny44MTF8NS40Nzk0NQ==)"/>
<polyline points="48.80,171.58 455.32,171.58 " style="stroke-width: 0.53; stroke: #FFFFFF; stroke-linecap: butt;" clip-path="url(#cpNDguNzk2OXw0NTUuMzIxfDE5Ny44MTF8NS40Nzk0NQ==)"/>
<polyline points="48.80,136.61 455.32,136.61 " style="stroke-width: 0.53; stroke: #FFFFFF; stroke-linecap: butt;" clip-path="url(#cpNDguNzk2OXw0NTUuMzIxfDE5Ny44MTF8NS40Nzk0NQ==)"/>
<polyline points="48.80,101.65 455.32,101.65 " style="stroke-width: 0.53; stroke: #FFFFFF; stroke-linecap: butt;" clip-path="url(#cpNDguNzk2OXw0NTUuMzIxfDE5Ny44MTF8NS40Nzk0NQ==)"/>
<polyline points="48.80,66.68 455.32,66.68 " style="stroke-width: 0.53; stroke: #FFFFFF; stroke-linecap: butt;" clip-path="url(#cpNDguNzk2OXw0NTUuMzIxfDE5Ny44MTF8NS40Nzk0NQ==)"/>
<polyline points="48.80,31.71 455.32,31.71 " style="stroke-width: 0.53; stroke: #FFFFFF; stroke-linecap: butt;" clip-path="url(#cpNDguNzk2OXw0NTUuMzIxfDE5Ny44MTF8NS40Nzk0NQ==)"/>
<polyline points="113.47,197.81 113.47,5.48 " style="stroke-width: 0.53; stroke: #FFFFFF; stroke-linecap: butt;" clip-path="url(#cpNDguNzk2OXw0NTUuMzIxfDE5Ny44MTF8NS40Nzk0NQ==)"/>
<polyline points="205.86,197.81 205.86,5.48 " style="stroke-width: 0.53; stroke: #FFFFFF; stroke-linecap: butt;" clip-path="url(#cpNDguNzk2OXw0NTUuMzIxfDE5Ny44MTF8NS40Nzk0NQ==)"/>
<polyline points="298.25,197.81 298.25,5.48 " style="stroke-width: 0.53; stroke: #FFFFFF; stroke-linecap: butt;" clip-path="url(#cpNDguNzk2OXw0NTUuMzIxfDE5Ny44MTF8NS40Nzk0NQ==)"/>
<polyline points="390.65,197.81 390.65,5.48 " style="stroke-width: 0.53; stroke: #FFFFFF; stroke-linecap: butt;" clip-path="url(#cpNDguNzk2OXw0NTUuMzIxfDE5Ny44MTF8NS40Nzk0NQ==)"/>
<polyline points="48.80,189.07 455.32,189.07 " style="stroke-width: 1.07; stroke: #FFFFFF; stroke-linecap: butt;" clip-path="url(#cpNDguNzk2OXw0NTUuMzIxfDE5Ny44MTF8NS40Nzk0NQ==)"/>
<polyline points="48.80,154.10 455.32,154.10 " style="stroke-width: 1.07; stroke: #FFFFFF; stroke-linecap: butt;" clip-path="url(#cpNDguNzk2OXw0NTUuMzIxfDE5Ny44MTF8NS40Nzk0NQ==)"/>
<polyline points="48.80,119.13 455.32,119.13 " style="stroke-width: 1.07; stroke: #FFFFFF; stroke-linecap: butt;" clip-path="url(#cpNDguNzk2OXw0NTUuMzIxfDE5Ny44MTF8NS40Nzk0NQ==)"/>
<polyline points="48.80,84.16 455.32,84.16 " style="stroke-width: 1.07; stroke: #FFFFFF; stroke-linecap: butt;" clip-path="url(#cpNDguNzk2OXw0NTUuMzIxfDE5Ny44MTF8NS40Nzk0NQ==)"/>
<polyline points="48.80,49.19 455.32,49.19 " style="stroke-width: 1.07; stroke: #FFFFFF; stroke-linecap: butt;" clip-path="url(#cpNDguNzk2OXw0NTUuMzIxfDE5Ny44MTF8NS40Nzk0NQ==)"/>
<polyline points="48.80,14.22 455.32,14.22 " style="stroke-width: 1.07; stroke: #FFFFFF; stroke-linecap: butt;" clip-path="url(#cpNDguNzk2OXw0NTUuMzIxfDE5Ny44MTF8NS40Nzk0NQ==)"/>
<polyline points="67.28,197.81 67.28,5.48 " style="stroke-width: 1.07; stroke: #FFFFFF; stroke-linecap: butt;" clip-path="url(#cpNDguNzk2OXw0NTUuMzIxfDE5Ny44MTF8NS40Nzk0NQ==)"/>
<polyline points="159.67,197.81 159.67,5.48 " style="stroke-width: 1.07; stroke: #FFFFFF; stroke-linecap: butt;" clip-path="url(#cpNDguNzk2OXw0NTUuMzIxfDE5Ny44MTF8NS40Nzk0NQ==)"/>
<polyline points="252.06,197.81 252.06,5.48 " style="stroke-width: 1.07; stroke: #FFFFFF; stroke-linecap: butt;" clip-path="url(#cpNDguNzk2OXw0NTUuMzIxfDE5Ny44MTF8NS40Nzk0NQ==)"/>
<polyline points="344.45,197.81 344.45,5.48 " style="stroke-width: 1.07; stroke: #FFFFFF; stroke-linecap: butt;" clip-path="url(#cpNDguNzk2OXw0NTUuMzIxfDE5Ny44MTF8NS40Nzk0NQ==)"/>
<polyline points="436.84,197.81 436.84,5.48 " style="stroke-width: 1.07; stroke: #FFFFFF; stroke-linecap: butt;" clip-path="url(#cpNDguNzk2OXw0NTUuMzIxfDE5Ny44MTF8NS40Nzk0NQ==)"/>
<polyline points="82.77,230.40 82.78,230.37 82.79,230.33 82.79,230.30 82.79,230.26 82.79,230.23 82.80,230.19 82.80,230.16 82.80,230.12 82.80,230.09 82.81,230.05 82.81,230.02 82.82,229.98 82.82,229.95 82.82,229.91 82.83,229.88 82.83,229.84 82.83,229.81 82.83,229.77 82.83,229.74 82.84,229.70 82.85,229.67 82.85,229.63 82.85,229.60 82.85,229.56 82.86,229.53 82.86,229.49 82.86,229.46 82.87,229.42 82.87,229.39 82.87,229.35 82.87,229.32 82.87,229.28 82.88,229.25 82.88,229.21 82.88,229.18 82.88,229.14 82.90,229.11 82.90,229.07 82.90,229.04 82.92,229.00 82.92,228.97 82.93,228.93 82.94,228.90 82.94,228.86 82.95,228.83 82.95,228.79 82.95,228.76 82.96,228.72 82.96,228.69 82.96,228.65 82.96,228.62 82.97,228.58 82.97,228.55 82.97,228.51 82.98,228.48 82.98,228.44 82.99,228.41 82.99,228.37 83.00,228.34 83.00,228.30 83.00,228.27 83.00,228.23 83.01,228.20 83.02,228.16 83.02,228.13 83.02,228.09 83.02,228.06 83.03,228.02 83.03,227.99 83.04,227.95 83.04,227.92 83.04,227.88 83.05,227.85 83.05,227.81 83.05,227.78 83.05,227.74 83.05,227.71 83.06,227.67 83.06,227.64 83.06,227.60 83.07,227.57 83.07,227.53 83.07,227.50 83.07,227.46 83.09,227.43 83.10,227.40 83.10,227.36 83.10,227.33 83.10,227.29 83.11,227.26 83.11,227.22 83.12,227.19 83.12,227.15 83.12,227.12 83.12,227.08 83.12,227.05 83.13,227.01 83.13,226.98 83.13,226.94 83.14,226.91 83.15,226.87 83.15,226.84 83.15,226.80 83.16,226.77 83.17,226.73 83.17,226.70 83.18,226.66 83.18,226.63 83.18,226.59 83.19,226.56 83.20,226.52 83.20,226.49 83.21,226.45 83.21,226.42 83.21,226.38 83.21,226.35 83.23,226.31 83.23,226.28 83.23,226.24 83.23,226.21 83.24,226.17 83.24,226.14 83.24,226.10 83.25,226.07 83.25,226.03 83.26,226.00 83.26,225.96 83.27,225.93 83.28,225.89 83.28,225.86 83.29,225.82 83.29,225.79 83.30,225.75 83.30,225.72 83.31,225.68 83.31,225.65 83.31,225.61 83.31,225.58 83.32,225.54 83.32,225.51 83.32,225.47 83.36,225.44 83.36,225.40 83.36,225.37 83.36,225.33 83.37,225.30 83.38,225.26 83.38,225.23 83.38,225.19 83.38,225.16 83.39,225.12 83.39,225.09 83.39,225.05 83.40,225.02 83.40,224.98 83.41,224.95 83.42,224.91 83.42,224.88 83.42,224.84 83.43,224.81 83.43,224.77 83.43,224.74 83.43,224.70 83.43,224.67 83.43,224.63 83.43,224.60 83.44,224.56 83.44,224.53 83.44,224.49 83.44,224.46 83.44,224.42 83.45,224.39 83.45,224.35 83.46,224.32 83.46,224.28 83.46,224.25 83.47,224.21 83.47,224.18 83.47,224.14 83.48,224.11 83.48,224.07 83.48,224.04 83.48,224.00 83.49,223.97 83.49,223.93 83.49,223.90 83.49,223.86 83.50,223.83 83.50,223.79 83.52,223.76 83.52,223.72 83.52,223.69 83.52,223.65 83.53,223.62 83.53,223.58 83.53,223.55 83.54,223.51 83.54,223.48 83.55,223.44 83.55,223.41 83.56,223.37 83.56,223.34 83.56,223.30 83.56,223.27 83.56,223.23 83.57,223.20 83.57,223.16 83.58,223.13 83.58,223.09 83.59,223.06 83.59,223.02 83.59,222.99 83.59,222.95 83.59,222.92 83.59,222.88 83.60,222.85 83.60,222.81 83.60,222.78 83.60,222.74 83.61,222.71 83.61,222.67 83.61,222.64 83.61,222.60 83.61,222.57 83.61,222.53 83.62,222.50 83.63,222.46 83.63,222.43 83.64,222.39 83.65,222.36 83.66,222.32 83.66,222.29 83.67,222.25 83.67,222.22 83.67,222.18 83.67,222.15 83.68,222.11 83.68,222.08 83.68,222.04 83.68,222.01 83.69,221.97 83.69,221.94 83.71,221.90 83.71,221.87 83.72,221.83 83.72,221.80 83.72,221.76 83.73,221.73 83.73,221.70 83.75,221.66 83.76,221.63 83.76,221.59 83.76,221.56 83.76,221.52 83.77,221.49 83.77,221.45 83.77,221.42 83.77,221.38 83.78,221.35 83.79,221.31 83.79,221.28 83.79,221.24 83.79,221.21 83.80,221.17 83.80,221.14 83.80,221.10 83.80,221.07 83.82,221.03 83.82,221.00 83.82,220.96 83.82,220.93 83.82,220.89 83.83,220.86 83.84,220.82 83.85,220.79 83.86,220.75 83.86,220.72 83.87,220.68 83.87,220.65 83.88,220.61 83.88,220.58 83.89,220.54 83.89,220.51 83.89,220.47 83.89,220.44 83.90,220.40 83.90,220.37 83.90,220.33 83.92,220.30 83.92,220.26 83.93,220.23 83.93,220.19 83.94,220.16 83.95,220.12 83.95,220.09 83.95,220.05 83.95,220.02 83.96,219.98 83.97,219.95 83.98,219.91 83.99,219.88 84.00,219.84 84.00,219.81 84.01,219.77 84.01,219.74 84.01,219.70 84.02,219.67 84.02,219.63 84.02,219.60 84.03,219.56 84.03,219.53 84.03,219.49 84.04,219.46 84.05,219.42 84.05,219.39 84.05,219.35 84.05,219.32 84.07,219.28 84.07,219.25 84.08,219.21 84.08,219.18 84.09,219.14 84.09,219.11 84.09,219.07 84.09,219.04 84.09,219.00 84.10,218.97 84.10,218.93 84.11,218.90 84.11,218.86 84.13,218.83 84.13,218.79 84.14,218.76 84.15,218.72 84.15,218.69 84.15,218.65 84.15,218.62 84.16,218.58 84.16,218.55 84.16,218.51 84.17,218.48 84.17,218.44 84.17,218.41 84.17,218.37 84.18,218.34 84.18,218.30 84.18,218.27 84.18,218.23 84.18,218.20 84.20,218.16 84.21,218.13 84.21,218.09 84.22,218.06 84.22,218.02 84.22,217.99 84.23,217.95 84.23,217.92 84.23,217.88 84.25,217.85 84.25,217.81 84.25,217.78 84.25,217.74 84.25,217.71 84.26,217.67 84.26,217.64 84.27,217.60 84.27,217.57 84.27,217.53 84.27,217.50 84.28,217.46 84.28,217.43 84.29,217.39 84.29,217.36 84.29,217.32 84.30,217.29 84.30,217.25 84.31,217.22 84.31,217.18 84.32,217.15 84.32,217.11 84.33,217.08 84.33,217.04 84.33,217.01 84.34,216.97 84.34,216.94 84.34,216.90 84.35,216.87 84.36,216.83 84.37,216.80 84.37,216.76 84.37,216.73 84.38,216.69 84.38,216.66 84.39,216.62 84.39,216.59 84.39,216.55 84.39,216.52 84.39,216.48 84.40,216.45 84.40,216.41 84.40,216.38 84.40,216.34 84.41,216.31 84.41,216.27 84.41,216.24 84.41,216.20 84.41,216.17 84.42,216.13 84.42,216.10 84.42,216.06 84.43,216.03 84.43,216.00 84.44,215.96 84.44,215.93 84.45,215.89 84.45,215.86 84.45,215.82 84.45,215.79 84.46,215.75 84.46,215.72 84.47,215.68 84.47,215.65 84.48,215.61 84.48,215.58 84.48,215.54 84.49,215.51 84.49,215.47 84.49,215.44 84.49,215.40 84.49,215.37 84.50,215.33 84.50,215.30 84.50,215.26 84.51,215.23 84.51,215.19 84.51,215.16 84.52,215.12 84.52,215.09 84.53,215.05 84.54,215.02 84.54,214.98 84.54,214.95 84.55,214.91 84.55,214.88 84.55,214.84 84.55,214.81 84.56,214.77 84.56,214.74 84.56,214.70 84.57,214.67 84.57,214.63 84.58,214.60 84.58,214.56 84.58,214.53 84.58,214.49 84.59,214.46 84.59,214.42 84.59,214.39 84.60,214.35 84.61,214.32 84.62,214.28 84.62,214.25 84.63,214.21 84.63,214.18 84.63,214.14 84.64,214.11 84.65,214.07 84.65,214.04 84.65,214.00 84.65,213.97 84.66,213.93 84.67,213.90 84.67,213.86 84.67,213.83 84.68,213.79 84.68,213.76 84.68,213.72 84.69,213.69 84.69,213.65 84.70,213.62 84.70,213.58 84.70,213.55 84.70,213.51 84.71,213.48 84.71,213.44 84.71,213.41 84.72,213.37 84.72,213.34 84.73,213.30 84.73,213.27 84.74,213.23 84.74,213.20 84.75,213.16 84.75,213.13 84.75,213.09 84.75,213.06 84.76,213.02 84.76,212.99 84.76,212.95 84.77,212.92 84.78,212.88 84.78,212.85 84.78,212.81 84.78,212.78 84.80,212.74 84.80,212.71 84.80,212.67 84.80,212.64 84.82,212.60 84.82,212.57 84.83,212.53 84.83,212.50 84.83,212.46 84.83,212.43 84.84,212.39 84.86,212.36 84.86,212.32 84.86,212.29 84.87,212.25 84.87,212.22 84.87,212.18 84.87,212.15 84.87,212.11 84.88,212.08 84.88,212.04 84.88,212.01 84.88,211.97 84.88,211.94 84.89,211.90 84.90,211.87 84.90,211.83 84.90,211.80 84.91,211.76 84.91,211.73 84.91,211.69 84.92,211.66 84.93,211.62 84.94,211.59 84.94,211.55 84.95,211.52 84.95,211.48 84.96,211.45 84.96,211.41 84.97,211.38 84.97,211.34 84.98,211.31 84.98,211.27 85.00,211.24 85.00,211.20 85.01,211.17 85.01,211.13 85.02,211.10 85.02,211.06 85.02,211.03 85.02,210.99 85.03,210.96 85.03,210.92 85.04,210.89 85.04,210.85 85.05,210.82 85.05,210.78 85.05,210.75 85.06,210.71 85.06,210.68 85.07,210.64 85.07,210.61 85.07,210.57 85.08,210.54 85.09,210.50 85.09,210.47 85.09,210.43 85.09,210.40 85.10,210.36 85.10,210.33 85.10,210.30 85.10,210.26 85.11,210.23 85.12,210.19 85.13,210.16 85.13,210.12 85.13,210.09 85.13,210.05 85.14,210.02 85.16,209.98 85.16,209.95 85.16,209.91 85.17,209.88 85.17,209.84 85.17,209.81 85.17,209.77 85.18,209.74 85.18,209.70 85.19,209.67 85.20,209.63 85.20,209.60 85.20,209.56 85.20,209.53 85.21,209.49 85.21,209.46 85.21,209.42 85.21,209.39 85.22,209.35 85.22,209.32 85.22,209.28 85.22,209.25 85.23,209.21 85.23,209.18 85.23,209.14 85.24,209.11 85.24,209.07 85.25,209.04 85.26,209.00 85.26,208.97 85.26,208.93 85.27,208.90 85.27,208.86 85.27,208.83 85.28,208.79 85.28,208.76 85.28,208.72 85.29,208.69 85.29,208.65 85.29,208.62 85.29,208.58 85.30,208.55 85.30,208.51 85.30,208.48 85.32,208.44 85.32,208.41 85.32,208.37 85.32,208.34 85.33,208.30 85.33,208.27 85.33,208.23 85.34,208.20 85.34,208.16 85.35,208.13 85.35,208.09 85.35,208.06 85.35,208.02 85.36,207.99 85.36,207.95 85.36,207.92 85.36,207.88 85.38,207.85 85.38,207.81 85.38,207.78 85.39,207.74 85.39,207.71 85.39,207.67 85.40,207.64 85.41,207.60 85.41,207.57 85.43,207.53 85.43,207.50 85.43,207.46 85.43,207.43 85.44,207.39 85.45,207.36 85.45,207.32 85.46,207.29 85.46,207.25 85.46,207.22 85.46,207.18 85.47,207.15 85.47,207.11 85.47,207.08 85.48,207.04 85.48,207.01 85.48,206.97 85.48,206.94 85.49,206.90 85.49,206.87 85.50,206.83 85.50,206.80 85.51,206.76 85.52,206.73 85.53,206.69 85.53,206.66 85.53,206.62 85.54,206.59 85.54,206.55 85.54,206.52 85.54,206.48 85.54,206.45 85.54,206.41 85.55,206.38 85.55,206.34 85.55,206.31 85.56,206.27 85.56,206.24 85.56,206.20 85.56,206.17 85.57,206.13 85.57,206.10 85.58,206.06 85.58,206.03 85.58,205.99 85.58,205.96 85.58,205.92 85.58,205.89 85.59,205.85 85.61,205.82 85.61,205.78 85.61,205.75 85.61,205.71 85.63,205.68 85.64,205.64 85.64,205.61 85.64,205.57 85.64,205.54 85.65,205.50 85.65,205.47 85.66,205.43 85.66,205.40 85.67,205.36 85.67,205.33 85.68,205.29 85.68,205.26 85.68,205.22 85.69,205.19 85.69,205.15 85.69,205.12 85.69,205.08 85.69,205.05 85.69,205.01 85.70,204.98 85.70,204.94 85.71,204.91 85.71,204.87 85.72,204.84 85.73,204.80 85.74,204.77 85.74,204.73 85.74,204.70 85.74,204.66 85.75,204.63 85.76,204.60 85.77,204.56 85.78,204.53 85.78,204.49 85.78,204.46 85.79,204.42 85.79,204.39 85.80,204.35 85.81,204.32 85.81,204.28 85.81,204.25 85.82,204.21 85.82,204.18 85.83,204.14 85.83,204.11 85.83,204.07 85.84,204.04 85.84,204.00 85.84,203.97 85.85,203.93 85.85,203.90 85.85,203.86 85.85,203.83 85.86,203.79 85.86,203.76 85.86,203.72 85.86,203.69 85.87,203.65 85.87,203.62 85.87,203.58 85.87,203.55 85.88,203.51 85.88,203.48 85.88,203.44 85.88,203.41 85.88,203.37 85.88,203.34 85.89,203.30 85.90,203.27 85.91,203.23 85.92,203.20 85.92,203.16 85.92,203.13 85.93,203.09 85.94,203.06 85.95,203.02 85.95,202.99 85.95,202.95 85.95,202.92 85.96,202.88 85.96,202.85 85.96,202.81 85.98,202.78 85.99,202.74 85.99,202.71 86.00,202.67 86.00,202.64 86.01,202.60 86.01,202.57 86.02,202.53 86.02,202.50 86.03,202.46 86.03,202.43 86.03,202.39 86.05,202.36 86.05,202.32 86.06,202.29 86.06,202.25 86.07,202.22 86.08,202.18 86.08,202.15 86.08,202.11 86.09,202.08 86.10,202.04 86.10,202.01 86.12,201.97 86.13,201.94 86.13,201.90 86.13,201.87 86.14,201.83 86.14,201.80 86.15,201.76 86.16,201.73 86.16,201.69 86.16,201.66 86.16,201.62 86.16,201.59 86.18,201.55 86.18,201.52 86.18,201.48 86.19,201.45 86.19,201.41 86.19,201.38 86.20,201.34 86.20,201.31 86.20,201.27 86.21,201.24 86.21,201.20 86.21,201.17 86.22,201.13 86.22,201.10 86.22,201.06 86.23,201.03 86.25,200.99 86.25,200.96 86.26,200.92 86.27,200.89 86.27,200.85 86.27,200.82 86.28,200.78 86.29,200.75 86.29,200.71 86.29,200.68 86.30,200.64 86.31,200.61 86.32,200.57 86.32,200.54 86.33,200.50 86.33,200.47 86.33,200.43 86.34,200.40 86.34,200.36 86.35,200.33 86.35,200.29 86.35,200.26 86.35,200.22 86.35,200.19 86.35,200.15 86.36,200.12 86.36,200.08 86.36,200.05 86.37,200.01 86.37,199.98 86.38,199.94 86.38,199.91 86.40,199.87 86.40,199.84 86.40,199.80 86.40,199.77 86.40,199.73 86.41,199.70 86.42,199.66 86.42,199.63 86.42,199.59 86.42,199.56 86.43,199.52 86.43,199.49 86.43,199.45 86.43,199.42 86.44,199.38 86.44,199.35 86.45,199.31 86.45,199.28 86.45,199.24 86.46,199.21 86.47,199.17 86.47,199.14 86.47,199.10 86.48,199.07 86.48,199.03 86.49,199.00 86.49,198.96 86.49,198.93 86.49,198.90 86.51,198.86 86.51,198.83 86.51,198.79 86.51,198.76 86.52,198.72 86.52,198.69 86.53,198.65 86.53,198.62 86.54,198.58 86.55,198.55 86.56,198.51 86.56,198.48 86.57,198.44 86.58,198.41 86.58,198.37 86.58,198.34 86.58,198.30 86.59,198.27 86.59,198.23 86.61,198.20 86.62,198.16 86.62,198.13 86.62,198.09 86.62,198.06 86.62,198.02 86.63,197.99 86.63,197.95 86.64,197.92 86.64,197.88 86.64,197.85 86.65,197.81 86.65,197.78 86.65,197.74 86.66,197.71 86.66,197.67 86.67,197.64 86.67,197.60 86.68,197.57 86.70,197.53 86.70,197.50 86.70,197.46 86.71,197.43 86.71,197.39 86.71,197.36 86.72,197.32 86.72,197.29 86.74,197.25 86.74,197.22 86.75,197.18 86.75,197.15 86.76,197.11 86.76,197.08 86.76,197.04 86.77,197.01 86.77,196.97 86.77,196.94 86.78,196.90 86.79,196.87 86.79,196.83 86.80,196.80 86.81,196.76 86.81,196.73 86.82,196.69 86.82,196.66 86.82,196.62 86.83,196.59 86.83,196.55 86.83,196.52 86.83,196.48 86.84,196.45 86.84,196.41 86.84,196.38 86.85,196.34 86.85,196.31 86.86,196.27 86.86,196.24 86.87,196.20 86.87,196.17 86.87,196.13 86.89,196.10 86.89,196.06 86.90,196.03 86.90,195.99 86.90,195.96 86.91,195.92 86.91,195.89 86.93,195.85 86.93,195.82 86.93,195.78 86.94,195.75 86.94,195.71 86.94,195.68 86.94,195.64 86.95,195.61 86.95,195.57 86.96,195.54 86.96,195.50 86.96,195.47 86.97,195.43 86.97,195.40 86.98,195.36 86.99,195.33 86.99,195.29 87.00,195.26 87.00,195.22 87.00,195.19 87.00,195.15 87.01,195.12 87.01,195.08 87.01,195.05 87.01,195.01 87.02,194.98 87.02,194.94 87.02,194.91 87.02,194.87 87.03,194.84 87.03,194.80 87.03,194.77 87.03,194.73 87.03,194.70 87.04,194.66 87.04,194.63 87.04,194.59 87.04,194.56 87.05,194.52 87.05,194.49 87.05,194.45 87.05,194.42 87.06,194.38 87.06,194.35 87.06,194.31 87.06,194.28 87.07,194.24 87.07,194.21 87.08,194.17 87.08,194.14 87.08,194.10 87.09,194.07 87.09,194.03 87.11,194.00 87.11,193.96 87.11,193.93 87.13,193.89 87.13,193.86 87.13,193.82 87.14,193.79 87.14,193.75 87.14,193.72 87.15,193.68 87.16,193.65 87.16,193.61 87.16,193.58 87.16,193.54 87.17,193.51 87.18,193.47 87.18,193.44 87.19,193.40 87.19,193.37 87.20,193.33 87.20,193.30 87.21,193.26 87.21,193.23 87.21,193.20 87.21,193.16 87.22,193.13 87.22,193.09 87.22,193.06 87.23,193.02 87.24,192.99 87.25,192.95 87.25,192.92 87.25,192.88 87.25,192.85 87.25,192.81 87.26,192.78 87.27,192.74 87.28,192.71 87.28,192.67 87.28,192.64 87.29,192.60 87.29,192.57 87.29,192.53 87.30,192.50 87.31,192.46 87.32,192.43 87.32,192.39 87.32,192.36 87.32,192.32 87.34,192.29 87.35,192.25 87.35,192.22 87.36,192.18 87.36,192.15 87.37,192.11 87.37,192.08 87.37,192.04 87.37,192.01 87.39,191.97 87.39,191.94 87.39,191.90 87.40,191.87 87.40,191.83 87.41,191.80 87.41,191.76 87.41,191.73 87.42,191.69 87.42,191.66 87.43,191.62 87.43,191.59 87.43,191.55 87.43,191.52 87.44,191.48 87.45,191.45 87.45,191.41 87.45,191.38 87.45,191.34 87.46,191.31 87.46,191.27 87.48,191.24 87.49,191.20 87.49,191.17 87.49,191.13 87.50,191.10 87.51,191.06 87.52,191.03 87.52,190.99 87.52,190.96 87.52,190.92 87.53,190.89 87.53,190.85 87.54,190.82 87.54,190.78 87.55,190.75 87.55,190.71 87.55,190.68 87.56,190.64 87.56,190.61 87.56,190.57 87.57,190.54 87.58,190.50 87.58,190.47 87.58,190.43 87.59,190.40 87.59,190.36 87.59,190.33 87.59,190.29 87.60,190.26 87.60,190.22 87.61,190.19 87.61,190.15 87.61,190.12 87.61,190.08 87.61,190.05 87.61,190.01 87.61,189.98 87.62,189.94 87.62,189.91 87.63,189.87 87.63,189.84 87.63,189.80 87.63,189.77 87.63,189.73 87.64,189.70 87.65,189.66 87.66,189.63 87.67,189.59 87.67,189.56 87.67,189.52 87.67,189.49 87.68,189.45 87.68,189.42 87.69,189.38 87.69,189.35 87.70,189.31 87.70,189.28 87.71,189.24 87.72,189.21 87.72,189.17 87.73,189.14 87.74,189.10 87.74,189.07 87.74,189.03 87.74,189.00 87.74,188.96 87.76,188.93 87.76,188.89 87.77,188.86 87.78,188.82 87.78,188.79 87.79,188.75 87.79,188.72 87.79,188.68 87.79,188.65 87.80,188.61 87.80,188.58 87.81,188.54 87.81,188.51 87.81,188.47 87.82,188.44 87.82,188.40 87.83,188.37 87.83,188.33 87.83,188.30 87.83,188.26 87.84,188.23 87.84,188.19 87.84,188.16 87.85,188.12 87.87,188.09 87.87,188.05 87.87,188.02 87.87,187.98 87.88,187.95 87.88,187.91 87.88,187.88 87.88,187.84 87.89,187.81 87.89,187.77 87.89,187.74 87.89,187.70 87.89,187.67 87.90,187.63 87.91,187.60 87.91,187.56 87.91,187.53 87.91,187.49 87.91,187.46 87.91,187.43 87.93,187.39 87.94,187.36 87.94,187.32 87.95,187.29 87.95,187.25 87.95,187.22 87.95,187.18 87.95,187.15 87.96,187.11 87.96,187.08 87.96,187.04 87.96,187.01 87.96,186.97 87.97,186.94 87.97,186.90 87.97,186.87 87.97,186.83 87.99,186.80 87.99,186.76 87.99,186.73 88.00,186.69 88.00,186.66 88.00,186.62 88.01,186.59 88.02,186.55 88.03,186.52 88.03,186.48 88.04,186.45 88.06,186.41 88.06,186.38 88.07,186.34 88.08,186.31 88.08,186.27 88.08,186.24 88.09,186.20 88.10,186.17 88.10,186.13 88.10,186.10 88.10,186.06 88.11,186.03 88.11,185.99 88.12,185.96 88.12,185.92 88.12,185.89 88.14,185.85 88.15,185.82 88.15,185.78 88.16,185.75 88.16,185.71 88.16,185.68 88.16,185.64 88.17,185.61 88.19,185.57 88.19,185.54 88.20,185.50 88.20,185.47 88.22,185.43 88.22,185.40 88.23,185.36 88.23,185.33 88.23,185.29 88.24,185.26 88.24,185.22 88.25,185.19 88.27,185.15 88.27,185.12 88.27,185.08 88.27,185.05 88.28,185.01 88.28,184.98 88.28,184.94 88.29,184.91 88.29,184.87 88.29,184.84 88.29,184.80 88.30,184.77 88.30,184.73 88.31,184.70 88.31,184.66 88.31,184.63 88.31,184.59 88.32,184.56 88.33,184.52 88.33,184.49 88.33,184.45 88.34,184.42 88.34,184.38 88.34,184.35 88.35,184.31 88.35,184.28 88.35,184.24 88.36,184.21 88.37,184.17 88.38,184.14 88.38,184.10 88.39,184.07 88.39,184.03 88.40,184.00 88.40,183.96 88.40,183.93 88.41,183.89 88.42,183.86 88.42,183.82 88.42,183.79 88.42,183.75 88.43,183.72 88.43,183.68 88.43,183.65 88.43,183.61 88.44,183.58 88.44,183.54 88.44,183.51 88.44,183.47 88.44,183.44 88.45,183.40 88.47,183.37 88.47,183.33 88.47,183.30 88.47,183.26 88.48,183.23 88.48,183.19 88.48,183.16 88.48,183.12 88.51,183.09 88.51,183.05 88.52,183.02 88.52,182.98 88.52,182.95 88.53,182.91 88.54,182.88 88.56,182.84 88.56,182.81 88.57,182.77 88.57,182.74 88.58,182.70 88.58,182.67 88.58,182.63 88.58,182.60 88.58,182.56 88.59,182.53 88.59,182.49 88.59,182.46 88.59,182.42 88.60,182.39 88.60,182.35 88.61,182.32 88.61,182.28 88.62,182.25 88.62,182.21 88.62,182.18 88.62,182.14 88.63,182.11 88.63,182.07 88.64,182.04 88.64,182.00 88.64,181.97 88.65,181.93 88.66,181.90 88.67,181.86 88.67,181.83 88.67,181.79 88.69,181.76 88.69,181.73 88.69,181.69 88.69,181.66 88.70,181.62 88.71,181.59 88.71,181.55 88.71,181.52 88.71,181.48 88.72,181.45 88.73,181.41 88.74,181.38 88.74,181.34 88.74,181.31 88.75,181.27 88.76,181.24 88.77,181.20 88.77,181.17 88.77,181.13 88.77,181.10 88.78,181.06 88.78,181.03 88.79,180.99 88.80,180.96 88.80,180.92 88.80,180.89 88.80,180.85 88.81,180.82 88.82,180.78 88.83,180.75 88.84,180.71 88.85,180.68 88.85,180.64 88.86,180.61 88.86,180.57 88.86,180.54 88.87,180.50 88.88,180.47 88.89,180.43 88.89,180.40 88.89,180.36 88.89,180.33 88.89,180.29 88.91,180.26 88.91,180.22 88.91,180.19 88.91,180.15 88.91,180.12 88.92,180.08 88.93,180.05 88.94,180.01 88.94,179.98 88.95,179.94 88.95,179.91 88.96,179.87 88.96,179.84 88.96,179.80 88.96,179.77 88.96,179.73 88.97,179.70 88.97,179.66 88.97,179.63 88.97,179.59 88.97,179.56 88.97,179.52 88.97,179.49 88.98,179.45 88.98,179.42 88.99,179.38 88.99,179.35 88.99,179.31 88.99,179.28 89.00,179.24 89.01,179.21 89.01,179.17 89.01,179.14 89.01,179.10 89.03,179.07 89.03,179.03 89.04,179.00 89.05,178.96 89.05,178.93 89.05,178.89 89.05,178.86 89.06,178.82 89.06,178.79 89.07,178.75 89.07,178.72 89.07,178.68 89.08,178.65 89.09,178.61 89.10,178.58 89.11,178.54 89.11,178.51 89.12,178.47 89.12,178.44 89.12,178.40 89.13,178.37 89.13,178.33 89.13,178.30 89.13,178.26 89.14,178.23 89.15,178.19 89.15,178.16 89.15,178.12 89.15,178.09 89.15,178.05 89.15,178.02 89.16,177.98 89.16,177.95 89.16,177.91 89.17,177.88 89.17,177.84 89.17,177.81 89.17,177.77 89.18,177.74 89.18,177.70 89.18,177.67 89.18,177.63 89.20,177.60 89.20,177.56 89.20,177.53 89.22,177.49 89.22,177.46 89.23,177.42 89.23,177.39 89.24,177.35 89.24,177.32 89.25,177.28 89.25,177.25 89.25,177.21 89.25,177.18 89.26,177.14 89.27,177.11 89.28,177.07 89.28,177.04 89.29,177.00 89.29,176.97 89.30,176.93 89.31,176.90 89.31,176.86 89.31,176.83 89.31,176.79 89.32,176.76 89.32,176.72 89.32,176.69 89.33,176.65 89.33,176.62 89.33,176.58 89.34,176.55 89.34,176.51 89.34,176.48 89.34,176.44 89.35,176.41 89.35,176.37 89.35,176.34 89.36,176.30 89.36,176.27 89.37,176.23 89.38,176.20 89.39,176.16 89.40,176.13 89.40,176.09 89.41,176.06 89.42,176.03 89.42,175.99 89.42,175.96 89.42,175.92 89.42,175.89 89.43,175.85 89.43,175.82 89.43,175.78 89.43,175.75 89.44,175.71 89.44,175.68 89.44,175.64 89.44,175.61 89.46,175.57 89.46,175.54 89.48,175.50 89.49,175.47 89.49,175.43 89.49,175.40 89.51,175.36 89.52,175.33 89.52,175.29 89.52,175.26 89.54,175.22 89.54,175.19 89.54,175.15 89.54,175.12 89.55,175.08 89.56,175.05 89.57,175.01 89.57,174.98 89.58,174.94 89.58,174.91 89.59,174.87 89.59,174.84 89.60,174.80 89.60,174.77 89.60,174.73 89.61,174.70 89.62,174.66 89.62,174.63 89.62,174.59 89.62,174.56 89.63,174.52 89.64,174.49 89.64,174.45 89.64,174.42 89.64,174.38 89.64,174.35 89.65,174.31 89.66,174.28 89.66,174.24 89.66,174.21 89.67,174.17 89.68,174.14 89.69,174.10 89.70,174.07 89.70,174.03 89.70,174.00 89.71,173.96 89.72,173.93 89.73,173.89 89.73,173.86 89.73,173.82 89.74,173.79 89.74,173.75 89.74,173.72 89.74,173.68 89.75,173.65 89.75,173.61 89.77,173.58 89.77,173.54 89.78,173.51 89.78,173.47 89.78,173.44 89.79,173.40 89.79,173.37 89.80,173.33 89.80,173.30 89.81,173.26 89.82,173.23 89.83,173.19 89.83,173.16 89.84,173.12 89.85,173.09 89.85,173.05 89.86,173.02 89.86,172.98 89.87,172.95 89.87,172.91 89.88,172.88 89.88,172.84 89.88,172.81 89.89,172.77 89.91,172.74 89.91,172.70 89.91,172.67 89.92,172.63 89.92,172.60 89.93,172.56 89.96,172.53 89.96,172.49 89.97,172.46 89.97,172.42 89.98,172.39 89.99,172.35 89.99,172.32 90.00,172.28 90.01,172.25 90.02,172.21 90.02,172.18 90.02,172.14 90.02,172.11 90.02,172.07 90.03,172.04 90.04,172.00 90.05,171.97 90.05,171.93 90.06,171.90 90.07,171.86 90.07,171.83 90.07,171.79 90.07,171.76 90.07,171.72 90.08,171.69 90.08,171.65 90.08,171.62 90.08,171.58 90.08,171.55 90.08,171.51 90.09,171.48 90.11,171.44 90.12,171.41 90.12,171.37 90.14,171.34 90.15,171.30 90.15,171.27 90.15,171.23 90.16,171.20 90.16,171.16 90.16,171.13 90.17,171.09 90.17,171.06 90.18,171.02 90.18,170.99 90.19,170.95 90.19,170.92 90.19,170.88 90.21,170.85 90.21,170.81 90.23,170.78 90.23,170.74 90.24,170.71 90.24,170.67 90.25,170.64 90.25,170.60 90.26,170.57 90.26,170.53 90.26,170.50 90.27,170.46 90.27,170.43 90.28,170.39 90.28,170.36 90.29,170.33 90.30,170.29 90.30,170.26 90.30,170.22 90.31,170.19 90.31,170.15 90.31,170.12 90.33,170.08 90.33,170.05 90.33,170.01 90.34,169.98 90.34,169.94 90.35,169.91 90.36,169.87 90.37,169.84 90.37,169.80 90.37,169.77 90.37,169.73 90.38,169.70 90.38,169.66 90.39,169.63 90.40,169.59 90.41,169.56 90.42,169.52 90.43,169.49 90.43,169.45 90.43,169.42 90.45,169.38 90.45,169.35 90.46,169.31 90.48,169.28 90.48,169.24 90.48,169.21 90.49,169.17 90.49,169.14 90.49,169.10 90.50,169.07 90.50,169.03 90.50,169.00 90.51,168.96 90.52,168.93 90.53,168.89 90.53,168.86 90.55,168.82 90.56,168.79 90.56,168.75 90.56,168.72 90.57,168.68 90.57,168.65 90.58,168.61 90.58,168.58 90.60,168.54 90.60,168.51 90.61,168.47 90.61,168.44 90.61,168.40 90.62,168.37 90.63,168.33 90.63,168.30 90.63,168.26 90.63,168.23 90.64,168.19 90.64,168.16 90.64,168.12 90.64,168.09 90.65,168.05 90.66,168.02 90.66,167.98 90.67,167.95 90.67,167.91 90.67,167.88 90.68,167.84 90.68,167.81 90.68,167.77 90.69,167.74 90.70,167.70 90.70,167.67 90.71,167.63 90.71,167.60 90.71,167.56 90.71,167.53 90.71,167.49 90.72,167.46 90.73,167.42 90.74,167.39 90.74,167.35 90.76,167.32 90.77,167.28 90.79,167.25 90.80,167.21 90.81,167.18 90.83,167.14 90.83,167.11 90.84,167.07 90.85,167.04 90.85,167.00 90.86,166.97 90.86,166.93 90.86,166.90 90.86,166.86 90.87,166.83 90.87,166.79 90.87,166.76 90.88,166.72 90.88,166.69 90.88,166.65 90.88,166.62 90.89,166.58 90.91,166.55 90.92,166.51 90.92,166.48 90.93,166.44 90.93,166.41 90.93,166.37 90.95,166.34 90.95,166.30 90.96,166.27 90.97,166.23 90.98,166.20 91.00,166.16 91.00,166.13 91.00,166.09 91.01,166.06 91.01,166.02 91.01,165.99 91.02,165.95 91.02,165.92 91.02,165.88 91.02,165.85 91.03,165.81 91.04,165.78 91.08,165.74 91.08,165.71 91.08,165.67 91.12,165.64 91.12,165.60 91.12,165.57 91.13,165.53 91.13,165.50 91.14,165.46 91.15,165.43 91.17,165.39 91.18,165.36 91.19,165.32 91.19,165.29 91.22,165.25 91.22,165.22 91.24,165.18 91.24,165.15 91.26,165.11 91.26,165.08 91.26,165.04 91.27,165.01 91.28,164.97 91.28,164.94 91.29,164.90 91.29,164.87 91.30,164.83 91.30,164.80 91.31,164.76 91.31,164.73 91.32,164.69 91.33,164.66 91.33,164.63 91.34,164.59 91.34,164.56 91.35,164.52 91.35,164.49 91.36,164.45 91.37,164.42 91.37,164.38 91.39,164.35 91.39,164.31 91.39,164.28 91.39,164.24 91.40,164.21 91.41,164.17 91.41,164.14 91.42,164.10 91.44,164.07 91.44,164.03 91.46,164.00 91.46,163.96 91.46,163.93 91.46,163.89 91.47,163.86 91.49,163.82 91.49,163.79 91.49,163.75 91.49,163.72 91.50,163.68 91.50,163.65 91.51,163.61 91.51,163.58 91.51,163.54 91.51,163.51 91.52,163.47 91.52,163.44 91.53,163.40 91.54,163.37 91.54,163.33 91.55,163.30 91.55,163.26 91.57,163.23 91.57,163.19 91.58,163.16 91.58,163.12 91.58,163.09 91.59,163.05 91.59,163.02 91.59,162.98 91.59,162.95 91.59,162.91 91.59,162.88 91.60,162.84 91.61,162.81 91.62,162.77 91.63,162.74 91.66,162.70 91.66,162.67 91.66,162.63 91.66,162.60 91.67,162.56 91.68,162.53 91.68,162.49 91.68,162.46 91.69,162.42 91.70,162.39 91.72,162.35 91.72,162.32 91.72,162.28 91.72,162.25 91.72,162.21 91.73,162.18 91.73,162.14 91.73,162.11 91.74,162.07 91.74,162.04 91.74,162.00 91.75,161.97 91.76,161.93 91.76,161.90 91.79,161.86 91.80,161.83 91.80,161.79 91.80,161.76 91.84,161.72 91.84,161.69 91.84,161.65 91.85,161.62 91.85,161.58 91.86,161.55 91.86,161.51 91.86,161.48 91.86,161.44 91.87,161.41 91.88,161.37 91.88,161.34 91.89,161.30 91.90,161.27 91.90,161.23 91.90,161.20 91.91,161.16 91.91,161.13 91.94,161.09 91.95,161.06 91.95,161.02 91.95,160.99 91.96,160.95 91.96,160.92 91.96,160.88 91.97,160.85 91.98,160.81 91.98,160.78 91.98,160.74 91.99,160.71 92.00,160.67 92.00,160.64 92.01,160.60 92.01,160.57 92.01,160.53 92.01,160.50 92.02,160.46 92.03,160.43 92.04,160.39 92.04,160.36 92.05,160.32 92.05,160.29 92.06,160.25 92.07,160.22 92.07,160.18 92.09,160.15 92.09,160.11 92.11,160.08 92.11,160.04 92.14,160.01 92.14,159.97 92.15,159.94 92.15,159.90 92.16,159.87 92.16,159.83 92.16,159.80 92.17,159.76 92.17,159.73 92.18,159.69 92.18,159.66 92.19,159.62 92.19,159.59 92.19,159.55 92.21,159.52 92.22,159.48 92.23,159.45 92.24,159.41 92.25,159.38 92.26,159.34 92.27,159.31 92.27,159.27 92.28,159.24 92.29,159.20 92.30,159.17 92.31,159.13 92.31,159.10 92.31,159.06 92.32,159.03 92.34,158.99 92.34,158.96 92.36,158.93 92.37,158.89 92.37,158.86 92.38,158.82 92.38,158.79 92.38,158.75 92.40,158.72 92.40,158.68 92.41,158.65 92.41,158.61 92.41,158.58 92.43,158.54 92.43,158.51 92.44,158.47 92.44,158.44 92.44,158.40 92.44,158.37 92.45,158.33 92.45,158.30 92.45,158.26 92.45,158.23 92.45,158.19 92.47,158.16 92.49,158.12 92.49,158.09 92.49,158.05 92.50,158.02 92.51,157.98 92.51,157.95 92.51,157.91 92.52,157.88 92.53,157.84 92.53,157.81 92.53,157.77 92.55,157.74 92.55,157.70 92.55,157.67 92.55,157.63 92.55,157.60 92.55,157.56 92.56,157.53 92.56,157.49 92.56,157.46 92.57,157.42 92.58,157.39 92.58,157.35 92.58,157.32 92.59,157.28 92.59,157.25 92.60,157.21 92.60,157.18 92.61,157.14 92.61,157.11 92.61,157.07 92.61,157.04 92.62,157.00 92.62,156.97 92.62,156.93 92.64,156.90 92.64,156.86 92.64,156.83 92.65,156.79 92.65,156.76 92.66,156.72 92.67,156.69 92.67,156.65 92.69,156.62 92.69,156.58 92.72,156.55 92.72,156.51 92.72,156.48 92.72,156.44 92.74,156.41 92.74,156.37 92.75,156.34 92.75,156.30 92.76,156.27 92.76,156.23 92.77,156.20 92.80,156.16 92.81,156.13 92.82,156.09 92.82,156.06 92.83,156.02 92.83,155.99 92.84,155.95 92.84,155.92 92.84,155.88 92.85,155.85 92.85,155.81 92.86,155.78 92.86,155.74 92.86,155.71 92.87,155.67 92.88,155.64 92.89,155.60 92.90,155.57 92.90,155.53 92.90,155.50 92.91,155.46 92.92,155.43 92.92,155.39 92.93,155.36 92.93,155.32 92.94,155.29 92.95,155.25 92.95,155.22 92.97,155.18 92.98,155.15 92.98,155.11 92.98,155.08 92.98,155.04 92.98,155.01 92.99,154.97 92.99,154.94 93.00,154.90 93.00,154.87 93.01,154.83 93.01,154.80 93.01,154.76 93.01,154.73 93.02,154.69 93.02,154.66 93.02,154.62 93.03,154.59 93.03,154.55 93.03,154.52 93.04,154.48 93.05,154.45 93.05,154.41 93.06,154.38 93.06,154.34 93.07,154.31 93.07,154.27 93.08,154.24 93.08,154.20 93.08,154.17 93.08,154.13 93.09,154.10 93.10,154.06 93.10,154.03 93.11,153.99 93.11,153.96 93.11,153.92 93.12,153.89 93.12,153.85 93.12,153.82 93.13,153.78 93.13,153.75 93.13,153.71 93.14,153.68 93.15,153.64 93.15,153.61 93.15,153.57 93.15,153.54 93.17,153.50 93.17,153.47 93.17,153.43 93.18,153.40 93.18,153.36 93.19,153.33 93.19,153.29 93.19,153.26 93.20,153.23 93.20,153.19 93.21,153.16 93.22,153.12 93.24,153.09 93.25,153.05 93.25,153.02 93.28,152.98 93.28,152.95 93.29,152.91 93.29,152.88 93.29,152.84 93.30,152.81 93.30,152.77 93.32,152.74 93.33,152.70 93.33,152.67 93.34,152.63 93.34,152.60 93.37,152.56 93.39,152.53 93.39,152.49 93.40,152.46 93.40,152.42 93.41,152.39 93.41,152.35 93.42,152.32 93.44,152.28 93.44,152.25 93.44,152.21 93.44,152.18 93.45,152.14 93.46,152.11 93.46,152.07 93.46,152.04 93.46,152.00 93.47,151.97 93.48,151.93 93.49,151.90 93.49,151.86 93.49,151.83 93.49,151.79 93.50,151.76 93.52,151.72 93.52,151.69 93.52,151.65 93.53,151.62 93.53,151.58 93.53,151.55 93.54,151.51 93.54,151.48 93.57,151.44 93.57,151.41 93.58,151.37 93.59,151.34 93.59,151.30 93.60,151.27 93.60,151.23 93.60,151.20 93.62,151.16 93.62,151.13 93.63,151.09 93.64,151.06 93.64,151.02 93.64,150.99 93.65,150.95 93.66,150.92 93.66,150.88 93.66,150.85 93.68,150.81 93.69,150.78 93.69,150.74 93.70,150.71 93.71,150.67 93.71,150.64 93.71,150.60 93.72,150.57 93.72,150.53 93.73,150.50 93.73,150.46 93.73,150.43 93.74,150.39 93.74,150.36 93.75,150.32 93.76,150.29 93.76,150.25 93.77,150.22 93.77,150.18 93.78,150.15 93.81,150.11 93.81,150.08 93.82,150.04 93.82,150.01 93.83,149.97 93.83,149.94 93.83,149.90 93.84,149.87 93.84,149.83 93.84,149.80 93.85,149.76 93.86,149.73 93.88,149.69 93.89,149.66 93.91,149.62 93.91,149.59 93.91,149.55 93.92,149.52 93.93,149.48 93.94,149.45 93.94,149.41 93.95,149.38 93.96,149.34 93.98,149.31 94.00,149.27 94.00,149.24 94.00,149.20 94.02,149.17 94.03,149.13 94.04,149.10 94.04,149.06 94.04,149.03 94.04,148.99 94.04,148.96 94.05,148.92 94.05,148.89 94.06,148.85 94.06,148.82 94.07,148.78 94.08,148.75 94.10,148.71 94.10,148.68 94.11,148.64 94.14,148.61 94.14,148.57 94.16,148.54 94.16,148.50 94.16,148.47 94.17,148.43 94.18,148.40 94.18,148.36 94.18,148.33 94.19,148.29 94.19,148.26 94.19,148.22 94.19,148.19 94.20,148.15 94.20,148.12 94.21,148.08 94.21,148.05 94.22,148.01 94.22,147.98 94.23,147.94 94.23,147.91 94.24,147.87 94.24,147.84 94.25,147.80 94.25,147.77 94.25,147.73 94.26,147.70 94.26,147.66 94.27,147.63 94.28,147.59 94.29,147.56 94.32,147.53 94.34,147.49 94.35,147.46 94.36,147.42 94.36,147.39 94.36,147.35 94.37,147.32 94.38,147.28 94.39,147.25 94.40,147.21 94.40,147.18 94.41,147.14 94.41,147.11 94.42,147.07 94.42,147.04 94.47,147.00 94.47,146.97 94.47,146.93 94.47,146.90 94.48,146.86 94.48,146.83 94.50,146.79 94.50,146.76 94.50,146.72 94.50,146.69 94.50,146.65 94.51,146.62 94.51,146.58 94.51,146.55 94.52,146.51 94.53,146.48 94.53,146.44 94.53,146.41 94.53,146.37 94.53,146.34 94.54,146.30 94.54,146.27 94.57,146.23 94.58,146.20 94.59,146.16 94.59,146.13 94.59,146.09 94.60,146.06 94.60,146.02 94.60,145.99 94.61,145.95 94.61,145.92 94.64,145.88 94.65,145.85 94.65,145.81 94.67,145.78 94.67,145.74 94.67,145.71 94.67,145.67 94.68,145.64 94.71,145.60 94.73,145.57 94.73,145.53 94.76,145.50 94.76,145.46 94.77,145.43 94.78,145.39 94.78,145.36 94.79,145.32 94.79,145.29 94.79,145.25 94.80,145.22 94.80,145.18 94.81,145.15 94.81,145.11 94.82,145.08 94.83,145.04 94.83,145.01 94.84,144.97 94.84,144.94 94.84,144.90 94.86,144.87 94.86,144.83 94.87,144.80 94.87,144.76 94.87,144.73 94.87,144.69 94.89,144.66 94.90,144.62 94.90,144.59 94.90,144.55 94.90,144.52 94.91,144.48 94.91,144.45 94.91,144.41 94.94,144.38 94.94,144.34 94.94,144.31 94.95,144.27 94.95,144.24 94.95,144.20 94.95,144.17 94.96,144.13 94.96,144.10 94.97,144.06 94.97,144.03 94.97,143.99 94.97,143.96 94.97,143.92 94.98,143.89 95.00,143.85 95.00,143.82 95.00,143.78 95.00,143.75 95.00,143.71 95.01,143.68 95.03,143.64 95.03,143.61 95.04,143.57 95.04,143.54 95.04,143.50 95.05,143.47 95.05,143.43 95.05,143.40 95.05,143.36 95.06,143.33 95.06,143.29 95.07,143.26 95.07,143.22 95.07,143.19 95.07,143.15 95.08,143.12 95.08,143.08 95.09,143.05 95.09,143.01 95.10,142.98 95.11,142.94 95.12,142.91 95.12,142.87 95.15,142.84 95.16,142.80 95.18,142.77 95.18,142.73 95.19,142.70 95.20,142.66 95.21,142.63 95.21,142.59 95.22,142.56 95.23,142.52 95.23,142.49 95.23,142.45 95.24,142.42 95.25,142.38 95.26,142.35 95.28,142.31 95.29,142.28 95.29,142.24 95.32,142.21 95.35,142.17 95.36,142.14 95.36,142.10 95.36,142.07 95.37,142.03 95.37,142.00 95.38,141.96 95.40,141.93 95.40,141.89 95.42,141.86 95.42,141.83 95.43,141.79 95.44,141.76 95.45,141.72 95.45,141.69 95.46,141.65 95.47,141.62 95.49,141.58 95.49,141.55 95.49,141.51 95.50,141.48 95.50,141.44 95.50,141.41 95.51,141.37 95.51,141.34 95.51,141.30 95.51,141.27 95.52,141.23 95.54,141.20 95.55,141.16 95.56,141.13 95.56,141.09 95.57,141.06 95.57,141.02 95.58,140.99 95.58,140.95 95.59,140.92 95.60,140.88 95.61,140.85 95.62,140.81 95.63,140.78 95.63,140.74 95.65,140.71 95.65,140.67 95.65,140.64 95.66,140.60 95.68,140.57 95.69,140.53 95.69,140.50 95.70,140.46 95.70,140.43 95.71,140.39 95.72,140.36 95.73,140.32 95.73,140.29 95.76,140.25 95.77,140.22 95.78,140.18 95.78,140.15 95.79,140.11 95.82,140.08 95.83,140.04 95.83,140.01 95.84,139.97 95.85,139.94 95.85,139.90 95.86,139.87 95.87,139.83 95.87,139.80 95.88,139.76 95.89,139.73 95.89,139.69 95.90,139.66 95.90,139.62 95.91,139.59 95.91,139.55 95.93,139.52 95.93,139.48 95.94,139.45 95.95,139.41 95.95,139.38 95.96,139.34 95.96,139.31 95.97,139.27 95.97,139.24 95.97,139.20 95.98,139.17 95.99,139.13 95.99,139.10 96.01,139.06 96.02,139.03 96.02,138.99 96.03,138.96 96.03,138.92 96.04,138.89 96.04,138.85 96.06,138.82 96.06,138.78 96.07,138.75 96.07,138.71 96.08,138.68 96.09,138.64 96.09,138.61 96.09,138.57 96.09,138.54 96.10,138.50 96.11,138.47 96.11,138.43 96.12,138.40 96.13,138.36 96.13,138.33 96.14,138.29 96.15,138.26 96.16,138.22 96.17,138.19 96.17,138.15 96.21,138.12 96.23,138.08 96.23,138.05 96.23,138.01 96.24,137.98 96.25,137.94 96.25,137.91 96.25,137.87 96.26,137.84 96.27,137.80 96.27,137.77 96.29,137.73 96.29,137.70 96.29,137.66 96.29,137.63 96.29,137.59 96.29,137.56 96.30,137.52 96.30,137.49 96.31,137.45 96.31,137.42 96.31,137.38 96.32,137.35 96.33,137.31 96.34,137.28 96.34,137.24 96.34,137.21 96.34,137.17 96.35,137.14 96.35,137.10 96.36,137.07 96.37,137.03 96.39,137.00 96.40,136.96 96.40,136.93 96.41,136.89 96.41,136.86 96.41,136.82 96.41,136.79 96.42,136.75 96.43,136.72 96.44,136.68 96.45,136.65 96.47,136.61 96.48,136.58 96.50,136.54 96.50,136.51 96.51,136.47 96.51,136.44 96.52,136.40 96.52,136.37 96.53,136.33 96.54,136.30 96.54,136.26 96.54,136.23 96.56,136.19 96.57,136.16 96.57,136.12 96.57,136.09 96.58,136.06 96.59,136.02 96.60,135.99 96.61,135.95 96.61,135.92 96.63,135.88 96.64,135.85 96.65,135.81 96.65,135.78 96.66,135.74 96.67,135.71 96.68,135.67 96.68,135.64 96.70,135.60 96.70,135.57 96.70,135.53 96.71,135.50 96.72,135.46 96.73,135.43 96.73,135.39 96.73,135.36 96.73,135.32 96.74,135.29 96.74,135.25 96.74,135.22 96.75,135.18 96.76,135.15 96.77,135.11 96.78,135.08 96.79,135.04 96.80,135.01 96.81,134.97 96.81,134.94 96.82,134.90 96.82,134.87 96.82,134.83 96.82,134.80 96.82,134.76 96.83,134.73 96.84,134.69 96.84,134.66 96.84,134.62 96.85,134.59 96.86,134.55 96.87,134.52 96.87,134.48 96.89,134.45 96.91,134.41 96.92,134.38 96.93,134.34 96.94,134.31 96.95,134.27 96.95,134.24 96.95,134.20 96.96,134.17 96.96,134.13 96.97,134.10 96.98,134.06 96.99,134.03 96.99,133.99 97.00,133.96 97.01,133.92 97.01,133.89 97.02,133.85 97.02,133.82 97.03,133.78 97.04,133.75 97.04,133.71 97.05,133.68 97.05,133.64 97.08,133.61 97.08,133.57 97.08,133.54 97.08,133.50 97.08,133.47 97.09,133.43 97.10,133.40 97.11,133.36 97.12,133.33 97.14,133.29 97.15,133.26 97.17,133.22 97.17,133.19 97.17,133.15 97.17,133.12 97.18,133.08 97.18,133.05 97.19,133.01 97.20,132.98 97.21,132.94 97.21,132.91 97.21,132.87 97.22,132.84 97.22,132.80 97.22,132.77 97.22,132.73 97.22,132.70 97.23,132.66 97.24,132.63 97.24,132.59 97.25,132.56 97.25,132.52 97.25,132.49 97.28,132.45 97.28,132.42 97.28,132.38 97.29,132.35 97.29,132.31 97.30,132.28 97.30,132.24 97.30,132.21 97.30,132.17 97.32,132.14 97.32,132.10 97.33,132.07 97.34,132.03 97.35,132.00 97.35,131.96 97.37,131.93 97.37,131.89 97.39,131.86 97.40,131.82 97.40,131.79 97.41,131.75 97.42,131.72 97.43,131.68 97.43,131.65 97.45,131.61 97.46,131.58 97.47,131.54 97.48,131.51 97.49,131.47 97.50,131.44 97.50,131.40 97.50,131.37 97.51,131.33 97.51,131.30 97.52,131.26 97.53,131.23 97.53,131.19 97.53,131.16 97.54,131.12 97.55,131.09 97.57,131.05 97.57,131.02 97.58,130.98 97.58,130.95 97.58,130.91 97.59,130.88 97.59,130.84 97.59,130.81 97.59,130.77 97.60,130.74 97.60,130.70 97.61,130.67 97.62,130.63 97.62,130.60 97.63,130.56 97.64,130.53 97.64,130.49 97.66,130.46 97.68,130.42 97.70,130.39 97.72,130.36 97.72,130.32 97.73,130.29 97.74,130.25 97.75,130.22 97.75,130.18 97.76,130.15 97.77,130.11 97.81,130.08 97.81,130.04 97.82,130.01 97.82,129.97 97.82,129.94 97.82,129.90 97.83,129.87 97.83,129.83 97.84,129.80 97.86,129.76 97.86,129.73 97.87,129.69 97.87,129.66 97.88,129.62 97.88,129.59 97.88,129.55 97.89,129.52 97.90,129.48 97.92,129.45 97.94,129.41 97.95,129.38 97.95,129.34 97.95,129.31 97.95,129.27 97.95,129.24 97.96,129.20 97.99,129.17 98.00,129.13 98.00,129.10 98.02,129.06 98.02,129.03 98.03,128.99 98.03,128.96 98.04,128.92 98.04,128.89 98.04,128.85 98.04,128.82 98.04,128.78 98.05,128.75 98.05,128.71 98.06,128.68 98.07,128.64 98.07,128.61 98.08,128.57 98.08,128.54 98.09,128.50 98.10,128.47 98.11,128.43 98.11,128.40 98.11,128.36 98.13,128.33 98.15,128.29 98.15,128.26 98.16,128.22 98.16,128.19 98.17,128.15 98.17,128.12 98.19,128.08 98.19,128.05 98.19,128.01 98.19,127.98 98.20,127.94 98.20,127.91 98.21,127.87 98.22,127.84 98.22,127.80 98.22,127.77 98.24,127.73 98.24,127.70 98.25,127.66 98.26,127.63 98.27,127.59 98.27,127.56 98.28,127.52 98.29,127.49 98.31,127.45 98.31,127.42 98.32,127.38 98.33,127.35 98.34,127.31 98.36,127.28 98.36,127.24 98.40,127.21 98.41,127.17 98.42,127.14 98.42,127.10 98.42,127.07 98.44,127.03 98.44,127.00 98.44,126.96 98.44,126.93 98.45,126.89 98.45,126.86 98.47,126.82 98.48,126.79 98.48,126.75 98.49,126.72 98.50,126.68 98.50,126.65 98.53,126.61 98.53,126.58 98.54,126.54 98.55,126.51 98.56,126.47 98.56,126.44 98.57,126.40 98.57,126.37 98.57,126.33 98.58,126.30 98.59,126.26 98.60,126.23 98.60,126.19 98.61,126.16 98.63,126.12 98.68,126.09 98.68,126.05 98.70,126.02 98.72,125.98 98.73,125.95 98.75,125.91 98.76,125.88 98.76,125.84 98.76,125.81 98.76,125.77 98.77,125.74 98.80,125.70 98.80,125.67 98.80,125.63 98.82,125.60 98.85,125.56 98.85,125.53 98.86,125.49 98.87,125.46 98.87,125.42 98.88,125.39 98.88,125.35 98.89,125.32 98.89,125.28 98.90,125.25 98.90,125.21 98.90,125.18 98.90,125.14 98.92,125.11 98.93,125.07 98.95,125.04 98.95,125.00 98.99,124.97 99.00,124.93 99.01,124.90 99.03,124.86 99.03,124.83 99.03,124.79 99.05,124.76 99.05,124.72 99.06,124.69 99.06,124.66 99.07,124.62 99.08,124.59 99.09,124.55 99.11,124.52 99.12,124.48 99.13,124.45 99.13,124.41 99.13,124.38 99.13,124.34 99.14,124.31 99.14,124.27 99.15,124.24 99.16,124.20 99.16,124.17 99.18,124.13 99.19,124.10 99.20,124.06 99.20,124.03 99.21,123.99 99.22,123.96 99.22,123.92 99.24,123.89 99.25,123.85 99.25,123.82 99.26,123.78 99.27,123.75 99.27,123.71 99.27,123.68 99.30,123.64 99.31,123.61 99.31,123.57 99.32,123.54 99.33,123.50 99.33,123.47 99.34,123.43 99.34,123.40 99.34,123.36 99.34,123.33 99.35,123.29 99.35,123.26 99.35,123.22 99.35,123.19 99.36,123.15 99.37,123.12 99.37,123.08 99.40,123.05 99.40,123.01 99.40,122.98 99.40,122.94 99.45,122.91 99.45,122.87 99.46,122.84 99.48,122.80 99.48,122.77 99.48,122.73 99.49,122.70 99.49,122.66 99.49,122.63 99.49,122.59 99.50,122.56 99.50,122.52 99.52,122.49 99.53,122.45 99.54,122.42 99.55,122.38 99.56,122.35 99.57,122.31 99.58,122.28 99.58,122.24 99.58,122.21 99.59,122.17 99.60,122.14 99.61,122.10 99.62,122.07 99.62,122.03 99.64,122.00 99.64,121.96 99.65,121.93 99.65,121.89 99.65,121.86 99.66,121.82 99.66,121.79 99.66,121.75 99.66,121.72 99.68,121.68 99.68,121.65 99.72,121.61 99.72,121.58 99.72,121.54 99.76,121.51 99.77,121.47 99.78,121.44 99.79,121.40 99.80,121.37 99.83,121.33 99.84,121.30 99.85,121.26 99.85,121.23 99.85,121.19 99.86,121.16 99.86,121.12 99.87,121.09 99.87,121.05 99.88,121.02 99.89,120.98 99.89,120.95 99.89,120.91 99.89,120.88 99.90,120.84 99.92,120.81 99.92,120.77 99.92,120.74 99.93,120.70 99.96,120.67 99.98,120.63 100.00,120.60 100.00,120.56 100.02,120.53 100.02,120.49 100.02,120.46 100.02,120.42 100.03,120.39 100.03,120.35 100.03,120.32 100.04,120.28 100.04,120.25 100.04,120.21 100.05,120.18 100.07,120.14 100.08,120.11 100.09,120.07 100.10,120.04 100.13,120.00 100.14,119.97 100.15,119.93 100.15,119.90 100.15,119.86 100.15,119.83 100.16,119.79 100.16,119.76 100.16,119.72 100.16,119.69 100.19,119.65 100.20,119.62 100.21,119.58 100.21,119.55 100.21,119.51 100.24,119.48 100.24,119.44 100.24,119.41 100.28,119.37 100.28,119.34 100.28,119.30 100.29,119.27 100.30,119.23 100.30,119.20 100.30,119.16 100.31,119.13 100.31,119.09 100.32,119.06 100.34,119.02 100.34,118.99 100.35,118.96 100.35,118.92 100.36,118.89 100.36,118.85 100.36,118.82 100.38,118.78 100.38,118.75 100.39,118.71 100.39,118.68 100.40,118.64 100.40,118.61 100.40,118.57 100.40,118.54 100.41,118.50 100.42,118.47 100.42,118.43 100.43,118.40 100.43,118.36 100.43,118.33 100.44,118.29 100.46,118.26 100.47,118.22 100.52,118.19 100.53,118.15 100.54,118.12 100.54,118.08 100.54,118.05 100.55,118.01 100.56,117.98 100.56,117.94 100.56,117.91 100.57,117.87 100.60,117.84 100.62,117.80 100.62,117.77 100.63,117.73 100.65,117.70 100.65,117.66 100.66,117.63 100.66,117.59 100.67,117.56 100.68,117.52 100.69,117.49 100.70,117.45 100.70,117.42 100.72,117.38 100.72,117.35 100.72,117.31 100.73,117.28 100.76,117.24 100.76,117.21 100.77,117.17 100.78,117.14 100.79,117.10 100.81,117.07 100.81,117.03 100.82,117.00 100.82,116.96 100.82,116.93 100.83,116.89 100.88,116.86 100.88,116.82 100.89,116.79 100.91,116.75 100.91,116.72 100.91,116.68 100.92,116.65 100.92,116.61 100.95,116.58 100.95,116.54 100.97,116.51 100.97,116.47 100.99,116.44 100.99,116.40 100.99,116.37 100.99,116.33 101.00,116.30 101.00,116.26 101.00,116.23 101.02,116.19 101.04,116.16 101.05,116.12 101.05,116.09 101.06,116.05 101.07,116.02 101.10,115.98 101.10,115.95 101.12,115.91 101.13,115.88 101.16,115.84 101.16,115.81 101.17,115.77 101.17,115.74 101.17,115.70 101.18,115.67 101.18,115.63 101.20,115.60 101.20,115.56 101.24,115.53 101.25,115.49 101.25,115.46 101.25,115.42 101.26,115.39 101.26,115.35 101.31,115.32 101.31,115.28 101.31,115.25 101.33,115.21 101.33,115.18 101.33,115.14 101.34,115.11 101.37,115.07 101.37,115.04 101.38,115.00 101.39,114.97 101.40,114.93 101.40,114.90 101.41,114.86 101.41,114.83 101.44,114.79 101.44,114.76 101.44,114.72 101.45,114.69 101.45,114.65 101.45,114.62 101.45,114.58 101.46,114.55 101.47,114.51 101.48,114.48 101.49,114.44 101.49,114.41 101.49,114.37 101.49,114.34 101.50,114.30 101.51,114.27 101.52,114.23 101.53,114.20 101.54,114.16 101.57,114.13 101.59,114.09 101.59,114.06 101.60,114.02 101.60,113.99 101.60,113.95 101.61,113.92 101.62,113.88 101.62,113.85 101.63,113.81 101.63,113.78 101.64,113.74 101.68,113.71 101.71,113.67 101.73,113.64 101.75,113.60 101.76,113.57 101.77,113.53 101.78,113.50 101.78,113.46 101.81,113.43 101.82,113.39 101.82,113.36 101.82,113.32 101.84,113.29 101.87,113.26 101.89,113.22 101.89,113.19 101.90,113.15 101.91,113.12 101.93,113.08 101.94,113.05 101.94,113.01 101.95,112.98 101.95,112.94 101.97,112.91 101.97,112.87 101.98,112.84 101.99,112.80 102.00,112.77 102.01,112.73 102.02,112.70 102.03,112.66 102.04,112.63 102.05,112.59 102.05,112.56 102.05,112.52 102.08,112.49 102.09,112.45 102.09,112.42 102.13,112.38 102.14,112.35 102.15,112.31 102.16,112.28 102.16,112.24 102.17,112.21 102.21,112.17 102.22,112.14 102.22,112.10 102.23,112.07 102.24,112.03 102.25,112.00 102.25,111.96 102.26,111.93 102.26,111.89 102.28,111.86 102.30,111.82 102.31,111.79 102.33,111.75 102.37,111.72 102.37,111.68 102.37,111.65 102.38,111.61 102.38,111.58 102.38,111.54 102.41,111.51 102.43,111.47 102.44,111.44 102.44,111.40 102.45,111.37 102.46,111.33 102.47,111.30 102.48,111.26 102.49,111.23 102.50,111.19 102.52,111.16 102.54,111.12 102.57,111.09 102.57,111.05 102.58,111.02 102.59,110.98 102.60,110.95 102.61,110.91 102.62,110.88 102.63,110.84 102.64,110.81 102.64,110.77 102.65,110.74 102.67,110.70 102.69,110.67 102.70,110.63 102.70,110.60 102.72,110.56 102.72,110.53 102.73,110.49 102.73,110.46 102.73,110.42 102.73,110.39 102.74,110.35 102.74,110.32 102.76,110.28 102.77,110.25 102.78,110.21 102.79,110.18 102.80,110.14 102.81,110.11 102.83,110.07 102.88,110.04 102.89,110.00 102.90,109.97 102.90,109.93 102.91,109.90 102.92,109.86 102.93,109.83 102.96,109.79 102.97,109.76 102.97,109.72 102.98,109.69 103.00,109.65 103.00,109.62 103.00,109.58 103.01,109.55 103.01,109.51 103.01,109.48 103.02,109.44 103.03,109.41 103.03,109.37 103.03,109.34 103.04,109.30 103.05,109.27 103.06,109.23 103.06,109.20 103.07,109.16 103.10,109.13 103.11,109.09 103.12,109.06 103.12,109.02 103.15,108.99 103.16,108.95 103.17,108.92 103.20,108.88 103.20,108.85 103.20,108.81 103.20,108.78 103.21,108.74 103.22,108.71 103.23,108.67 103.24,108.64 103.27,108.60 103.28,108.57 103.29,108.53 103.29,108.50 103.29,108.46 103.32,108.43 103.33,108.39 103.35,108.36 103.35,108.32 103.36,108.29 103.36,108.25 103.39,108.22 103.40,108.18 103.42,108.15 103.42,108.11 103.43,108.08 103.44,108.04 103.44,108.01 103.44,107.97 103.47,107.94 103.48,107.90 103.49,107.87 103.50,107.83 103.53,107.80 103.55,107.76 103.57,107.73 103.59,107.69 103.59,107.66 103.59,107.62 103.60,107.59 103.62,107.56 103.62,107.52 103.63,107.49 103.63,107.45 103.64,107.42 103.65,107.38 103.65,107.35 103.66,107.31 103.66,107.28 103.67,107.24 103.68,107.21 103.68,107.17 103.69,107.14 103.70,107.10 103.70,107.07 103.72,107.03 103.73,107.00 103.73,106.96 103.74,106.93 103.74,106.89 103.76,106.86 103.77,106.82 103.77,106.79 103.78,106.75 103.78,106.72 103.79,106.68 103.79,106.65 103.83,106.61 103.83,106.58 103.85,106.54 103.86,106.51 103.86,106.47 103.87,106.44 103.87,106.40 103.87,106.37 103.87,106.33 103.88,106.30 103.88,106.26 103.88,106.23 103.89,106.19 103.90,106.16 103.90,106.12 103.91,106.09 103.93,106.05 103.97,106.02 103.97,105.98 104.00,105.95 104.00,105.91 104.01,105.88 104.02,105.84 104.03,105.81 104.04,105.77 104.04,105.74 104.05,105.70 104.05,105.67 104.06,105.63 104.08,105.60 104.09,105.56 104.09,105.53 104.09,105.49 104.12,105.46 104.12,105.42 104.13,105.39 104.14,105.35 104.16,105.32 104.17,105.28 104.18,105.25 104.19,105.21 104.20,105.18 104.20,105.14 104.20,105.11 104.20,105.07 104.21,105.04 104.21,105.00 104.23,104.97 104.23,104.93 104.23,104.90 104.24,104.86 104.24,104.83 104.25,104.79 104.28,104.76 104.33,104.72 104.33,104.69 104.34,104.65 104.34,104.62 104.34,104.58 104.35,104.55 104.36,104.51 104.37,104.48 104.38,104.44 104.40,104.41 104.42,104.37 104.43,104.34 104.43,104.30 104.45,104.27 104.45,104.23 104.45,104.20 104.47,104.16 104.48,104.13 104.48,104.09 104.49,104.06 104.49,104.02 104.49,103.99 104.50,103.95 104.51,103.92 104.53,103.88 104.55,103.85 104.56,103.81 104.57,103.78 104.57,103.74 104.59,103.71 104.62,103.67 104.63,103.64 104.64,103.60 104.65,103.57 104.66,103.53 104.67,103.50 104.68,103.46 104.69,103.43 104.69,103.39 104.70,103.36 104.71,103.32 104.72,103.29 104.72,103.25 104.72,103.22 104.72,103.18 104.73,103.15 104.74,103.11 104.74,103.08 104.76,103.04 104.76,103.01 104.78,102.97 104.78,102.94 104.79,102.90 104.80,102.87 104.81,102.83 104.82,102.80 104.84,102.76 104.85,102.73 104.86,102.69 104.87,102.66 104.87,102.62 104.89,102.59 104.91,102.55 104.92,102.52 104.92,102.48 104.95,102.45 104.95,102.41 104.98,102.38 104.99,102.34 105.02,102.31 105.02,102.27 105.03,102.24 105.04,102.20 105.05,102.17 105.06,102.13 105.07,102.10 105.08,102.06 105.08,102.03 105.09,101.99 105.12,101.96 105.13,101.92 105.14,101.89 105.15,101.86 105.15,101.82 105.15,101.79 105.17,101.75 105.19,101.72 105.19,101.68 105.21,101.65 105.23,101.61 105.23,101.58 105.25,101.54 105.26,101.51 105.30,101.47 105.30,101.44 105.30,101.40 105.32,101.37 105.32,101.33 105.32,101.30 105.33,101.26 105.34,101.23 105.36,101.19 105.36,101.16 105.39,101.12 105.40,101.09 105.43,101.05 105.43,101.02 105.43,100.98 105.43,100.95 105.44,100.91 105.45,100.88 105.45,100.84 105.45,100.81 105.46,100.77 105.47,100.74 105.48,100.70 105.48,100.67 105.49,100.63 105.49,100.60 105.50,100.56 105.51,100.53 105.51,100.49 105.51,100.46 105.55,100.42 105.60,100.39 105.62,100.35 105.63,100.32 105.63,100.28 105.65,100.25 105.65,100.21 105.68,100.18 105.69,100.14 105.69,100.11 105.70,100.07 105.72,100.04 105.73,100.00 105.75,99.97 105.76,99.93 105.77,99.90 105.78,99.86 105.79,99.83 105.80,99.79 105.80,99.76 105.81,99.72 105.84,99.69 105.85,99.65 105.86,99.62 105.86,99.58 105.87,99.55 105.87,99.51 105.89,99.48 105.92,99.44 105.93,99.41 105.93,99.37 105.94,99.34 105.94,99.30 105.94,99.27 105.96,99.23 105.97,99.20 105.98,99.16 105.98,99.13 106.03,99.09 106.03,99.06 106.03,99.02 106.04,98.99 106.04,98.95 106.04,98.92 106.06,98.88 106.07,98.85 106.10,98.81 106.12,98.78 106.16,98.74 106.19,98.71 106.19,98.67 106.23,98.64 106.23,98.60 106.24,98.57 106.24,98.53 106.26,98.50 106.26,98.46 106.26,98.43 106.27,98.39 106.31,98.36 106.33,98.32 106.34,98.29 106.35,98.25 106.35,98.22 106.36,98.18 106.37,98.15 106.37,98.11 106.37,98.08 106.39,98.04 106.45,98.01 106.49,97.97 106.49,97.94 106.49,97.90 106.53,97.87 106.54,97.83 106.54,97.80 106.56,97.76 106.56,97.73 106.57,97.69 106.58,97.66 106.58,97.62 106.60,97.59 106.60,97.55 106.65,97.52 106.65,97.48 106.65,97.45 106.67,97.41 106.70,97.38 106.71,97.34 106.72,97.31 106.72,97.27 106.72,97.24 106.73,97.20 106.73,97.17 106.73,97.13 106.76,97.10 106.76,97.06 106.78,97.03 106.80,96.99 106.80,96.96 106.82,96.92 106.82,96.89 106.82,96.85 106.82,96.82 106.83,96.78 106.83,96.75 106.85,96.71 106.85,96.68 106.85,96.64 106.86,96.61 106.86,96.57 106.86,96.54 106.86,96.50 106.86,96.47 106.87,96.43 106.89,96.40 106.90,96.36 106.91,96.33 106.91,96.29 106.92,96.26 106.93,96.22 106.99,96.19 106.99,96.16 107.00,96.12 107.02,96.09 107.02,96.05 107.03,96.02 107.03,95.98 107.03,95.95 107.03,95.91 107.05,95.88 107.06,95.84 107.10,95.81 107.10,95.77 107.11,95.74 107.11,95.70 107.13,95.67 107.15,95.63 107.19,95.60 107.20,95.56 107.20,95.53 107.22,95.49 107.24,95.46 107.25,95.42 107.27,95.39 107.27,95.35 107.27,95.32 107.29,95.28 107.31,95.25 107.32,95.21 107.34,95.18 107.36,95.14 107.36,95.11 107.37,95.07 107.40,95.04 107.41,95.00 107.42,94.97 107.44,94.93 107.44,94.90 107.48,94.86 107.49,94.83 107.50,94.79 107.51,94.76 107.51,94.72 107.52,94.69 107.52,94.65 107.54,94.62 107.55,94.58 107.56,94.55 107.57,94.51 107.59,94.48 107.66,94.44 107.67,94.41 107.71,94.37 107.73,94.34 107.73,94.30 107.74,94.27 107.75,94.23 107.76,94.20 107.82,94.16 107.82,94.13 107.82,94.09 107.86,94.06 107.88,94.02 107.89,93.99 107.89,93.95 107.94,93.92 107.99,93.88 107.99,93.85 108.01,93.81 108.01,93.78 108.04,93.74 108.05,93.71 108.06,93.67 108.08,93.64 108.09,93.60 108.10,93.57 108.11,93.53 108.11,93.50 108.12,93.46 108.12,93.43 108.12,93.39 108.12,93.36 108.13,93.32 108.14,93.29 108.16,93.25 108.16,93.22 108.19,93.18 108.22,93.15 108.25,93.11 108.26,93.08 108.31,93.04 108.32,93.01 108.33,92.97 108.34,92.94 108.35,92.90 108.36,92.87 108.36,92.83 108.36,92.80 108.38,92.76 108.38,92.73 108.38,92.69 108.39,92.66 108.42,92.62 108.45,92.59 108.46,92.55 108.47,92.52 108.49,92.48 108.51,92.45 108.53,92.41 108.54,92.38 108.54,92.34 108.55,92.31 108.56,92.27 108.56,92.24 108.58,92.20 108.58,92.17 108.59,92.13 108.60,92.10 108.60,92.06 108.63,92.03 108.65,91.99 108.67,91.96 108.69,91.92 108.70,91.89 108.70,91.85 108.71,91.82 108.72,91.78 108.76,91.75 108.76,91.71 108.78,91.68 108.81,91.64 108.81,91.61 108.85,91.57 108.89,91.54 108.90,91.50 108.90,91.47 108.93,91.43 108.98,91.40 108.98,91.36 108.98,91.33 108.98,91.29 109.00,91.26 109.01,91.22 109.03,91.19 109.06,91.15 109.06,91.12 109.07,91.08 109.07,91.05 109.08,91.01 109.11,90.98 109.12,90.94 109.12,90.91 109.14,90.87 109.18,90.84 109.20,90.80 109.21,90.77 109.22,90.73 109.22,90.70 109.23,90.66 109.24,90.63 109.26,90.59 109.27,90.56 109.30,90.52 109.30,90.49 109.30,90.46 109.32,90.42 109.32,90.39 109.33,90.35 109.34,90.32 109.37,90.28 109.38,90.25 109.38,90.21 109.40,90.18 109.41,90.14 109.43,90.11 109.44,90.07 109.45,90.04 109.45,90.00 109.45,89.97 109.45,89.93 109.48,89.90 109.50,89.86 109.51,89.83 109.52,89.79 109.53,89.76 109.54,89.72 109.56,89.69 109.56,89.65 109.58,89.62 109.58,89.58 109.63,89.55 109.64,89.51 109.65,89.48 109.66,89.44 109.67,89.41 109.71,89.37 109.72,89.34 109.72,89.30 109.73,89.27 109.74,89.23 109.83,89.20 109.84,89.16 109.84,89.13 109.86,89.09 109.87,89.06 109.89,89.02 109.91,88.99 109.92,88.95 109.97,88.92 109.98,88.88 109.99,88.85 110.00,88.81 110.03,88.78 110.05,88.74 110.05,88.71 110.06,88.67 110.07,88.64 110.07,88.60 110.09,88.57 110.11,88.53 110.14,88.50 110.15,88.46 110.16,88.43 110.17,88.39 110.20,88.36 110.22,88.32 110.26,88.29 110.27,88.25 110.28,88.22 110.28,88.18 110.28,88.15 110.32,88.11 110.33,88.08 110.34,88.04 110.36,88.01 110.36,87.97 110.38,87.94 110.43,87.90 110.44,87.87 110.45,87.83 110.48,87.80 110.50,87.76 110.52,87.73 110.53,87.69 110.59,87.66 110.59,87.62 110.60,87.59 110.62,87.55 110.62,87.52 110.63,87.48 110.63,87.45 110.63,87.41 110.67,87.38 110.72,87.34 110.72,87.31 110.73,87.27 110.73,87.24 110.75,87.20 110.84,87.17 110.86,87.13 110.86,87.10 110.87,87.06 110.87,87.03 110.87,86.99 110.93,86.96 110.96,86.92 110.96,86.89 111.00,86.85 111.02,86.82 111.02,86.78 111.02,86.75 111.02,86.71 111.04,86.68 111.05,86.64 111.07,86.61 111.09,86.57 111.11,86.54 111.14,86.50 111.14,86.47 111.19,86.43 111.20,86.40 111.21,86.36 111.22,86.33 111.22,86.29 111.23,86.26 111.23,86.22 111.24,86.19 111.25,86.15 111.26,86.12 111.27,86.08 111.27,86.05 111.30,86.01 111.35,85.98 111.36,85.94 111.38,85.91 111.39,85.87 111.41,85.84 111.42,85.80 111.43,85.77 111.48,85.73 111.51,85.70 111.52,85.66 111.53,85.63 111.53,85.59 111.54,85.56 111.54,85.52 111.58,85.49 111.60,85.45 111.61,85.42 111.64,85.38 111.64,85.35 111.64,85.31 111.67,85.28 111.69,85.24 111.70,85.21 111.70,85.17 111.74,85.14 111.74,85.10 111.75,85.07 111.75,85.03 111.78,85.00 111.79,84.96 111.79,84.93 111.79,84.89 111.79,84.86 111.80,84.82 111.80,84.79 111.83,84.76 111.86,84.72 111.89,84.69 111.89,84.65 111.90,84.62 111.93,84.58 111.95,84.55 111.95,84.51 111.97,84.48 111.97,84.44 112.01,84.41 112.01,84.37 112.02,84.34 112.04,84.30 112.06,84.27 112.08,84.23 112.08,84.20 112.10,84.16 112.14,84.13 112.15,84.09 112.18,84.06 112.18,84.02 112.21,83.99 112.22,83.95 112.22,83.92 112.24,83.88 112.24,83.85 112.26,83.81 112.26,83.78 112.27,83.74 112.28,83.71 112.31,83.67 112.32,83.64 112.33,83.60 112.34,83.57 112.34,83.53 112.35,83.50 112.38,83.46 112.39,83.43 112.40,83.39 112.41,83.36 112.49,83.32 112.52,83.29 112.53,83.25 112.54,83.22 112.55,83.18 112.59,83.15 112.60,83.11 112.63,83.08 112.65,83.04 112.66,83.01 112.69,82.97 112.71,82.94 112.71,82.90 112.73,82.87 112.73,82.83 112.77,82.80 112.79,82.76 112.79,82.73 112.83,82.69 112.83,82.66 112.87,82.62 112.88,82.59 112.88,82.55 112.89,82.52 112.96,82.48 112.97,82.45 112.98,82.41 112.99,82.38 112.99,82.34 112.99,82.31 113.03,82.27 113.04,82.24 113.09,82.20 113.10,82.17 113.10,82.13 113.12,82.10 113.12,82.06 113.13,82.03 113.19,81.99 113.21,81.96 113.21,81.92 113.23,81.89 113.24,81.85 113.24,81.82 113.26,81.78 113.27,81.75 113.27,81.71 113.30,81.68 113.30,81.64 113.32,81.61 113.33,81.57 113.34,81.54 113.34,81.50 113.38,81.47 113.40,81.43 113.41,81.40 113.41,81.36 113.42,81.33 113.44,81.29 113.44,81.26 113.46,81.22 113.48,81.19 113.49,81.15 113.49,81.12 113.51,81.08 113.53,81.05 113.53,81.01 113.57,80.98 113.57,80.94 113.59,80.91 113.65,80.87 113.66,80.84 113.67,80.80 113.68,80.77 113.70,80.73 113.70,80.70 113.71,80.66 113.71,80.63 113.71,80.59 113.77,80.56 113.80,80.52 113.82,80.49 113.83,80.45 113.83,80.42 113.84,80.38 113.86,80.35 113.86,80.31 113.87,80.28 113.90,80.24 113.94,80.21 113.95,80.17 113.95,80.14 113.96,80.10 113.99,80.07 114.00,80.03 114.00,80.00 114.02,79.96 114.03,79.93 114.04,79.89 114.05,79.86 114.09,79.82 114.10,79.79 114.11,79.75 114.11,79.72 114.11,79.68 114.14,79.65 114.14,79.61 114.16,79.58 114.20,79.54 114.23,79.51 114.23,79.47 114.24,79.44 114.26,79.40 114.26,79.37 114.26,79.33 114.32,79.30 114.39,79.26 114.40,79.23 114.43,79.19 114.46,79.16 114.47,79.12 114.48,79.09 114.50,79.05 114.53,79.02 114.53,78.99 114.54,78.95 114.55,78.92 114.58,78.88 114.59,78.85 114.60,78.81 114.60,78.78 114.60,78.74 114.61,78.71 114.62,78.67 114.62,78.64 114.67,78.60 114.67,78.57 114.69,78.53 114.70,78.50 114.71,78.46 114.72,78.43 114.72,78.39 114.72,78.36 114.72,78.32 114.74,78.29 114.75,78.25 114.76,78.22 114.78,78.18 114.78,78.15 114.82,78.11 114.84,78.08 114.85,78.04 114.85,78.01 114.86,77.97 114.88,77.94 114.92,77.90 114.92,77.87 114.94,77.83 114.95,77.80 114.97,77.76 115.04,77.73 115.09,77.69 115.13,77.66 115.13,77.62 115.14,77.59 115.17,77.55 115.17,77.52 115.19,77.48 115.21,77.45 115.24,77.41 115.25,77.38 115.25,77.34 115.29,77.31 115.32,77.27 115.32,77.24 115.36,77.20 115.37,77.17 115.39,77.13 115.39,77.10 115.41,77.06 115.42,77.03 115.44,76.99 115.46,76.96 115.48,76.92 115.49,76.89 115.51,76.85 115.54,76.82 115.56,76.78 115.56,76.75 115.57,76.71 115.57,76.68 115.58,76.64 115.59,76.61 115.65,76.57 115.66,76.54 115.66,76.50 115.68,76.47 115.69,76.43 115.69,76.40 115.69,76.36 115.72,76.33 115.72,76.29 115.72,76.26 115.74,76.22 115.76,76.19 115.77,76.15 115.77,76.12 115.95,76.08 116.03,76.05 116.06,76.01 116.10,75.98 116.14,75.94 116.15,75.91 116.16,75.87 116.20,75.84 116.20,75.80 116.21,75.77 116.23,75.73 116.24,75.70 116.26,75.66 116.26,75.63 116.30,75.59 116.32,75.56 116.33,75.52 116.35,75.49 116.35,75.45 116.36,75.42 116.37,75.38 116.39,75.35 116.39,75.31 116.40,75.28 116.41,75.24 116.43,75.21 116.49,75.17 116.51,75.14 116.53,75.10 116.56,75.07 116.57,75.03 116.58,75.00 116.59,74.96 116.60,74.93 116.61,74.89 116.65,74.86 116.65,74.82 116.67,74.79 116.68,74.75 116.69,74.72 116.74,74.68 116.77,74.65 116.77,74.61 116.78,74.58 116.82,74.54 116.86,74.51 116.86,74.47 116.87,74.44 116.90,74.40 116.93,74.37 116.93,74.33 116.96,74.30 116.96,74.26 117.00,74.23 117.02,74.19 117.13,74.16 117.14,74.12 117.18,74.09 117.20,74.05 117.20,74.02 117.23,73.98 117.24,73.95 117.24,73.91 117.25,73.88 117.25,73.84 117.26,73.81 117.30,73.77 117.31,73.74 117.34,73.70 117.34,73.67 117.37,73.63 117.38,73.60 117.39,73.56 117.40,73.53 117.40,73.49 117.42,73.46 117.44,73.42 117.48,73.39 117.49,73.35 117.49,73.32 117.49,73.29 117.56,73.25 117.57,73.22 117.58,73.18 117.62,73.15 117.65,73.11 117.66,73.08 117.68,73.04 117.68,73.01 117.70,72.97 117.70,72.94 117.71,72.90 117.72,72.87 117.73,72.83 117.76,72.80 117.77,72.76 117.80,72.73 117.81,72.69 117.81,72.66 117.82,72.62 117.91,72.59 117.92,72.55 117.94,72.52 117.97,72.48 118.00,72.45 118.02,72.41 118.02,72.38 118.05,72.34 118.05,72.31 118.05,72.27 118.06,72.24 118.10,72.20 118.12,72.17 118.14,72.13 118.15,72.10 118.16,72.06 118.16,72.03 118.19,71.99 118.20,71.96 118.21,71.92 118.22,71.89 118.23,71.85 118.24,71.82 118.24,71.78 118.29,71.75 118.30,71.71 118.31,71.68 118.31,71.64 118.34,71.61 118.45,71.57 118.49,71.54 118.51,71.50 118.55,71.47 118.55,71.43 118.57,71.40 118.59,71.36 118.60,71.33 118.61,71.29 118.70,71.26 118.70,71.22 118.73,71.19 118.76,71.15 118.77,71.12 118.77,71.08 118.77,71.05 118.83,71.01 118.83,70.98 118.83,70.94 118.84,70.91 118.85,70.87 118.88,70.84 118.89,70.80 118.90,70.77 118.95,70.73 118.96,70.70 118.96,70.66 118.97,70.63 118.99,70.59 119.03,70.56 119.05,70.52 119.12,70.49 119.13,70.45 119.14,70.42 119.15,70.38 119.17,70.35 119.21,70.31 119.24,70.28 119.25,70.24 119.28,70.21 119.30,70.17 119.30,70.14 119.32,70.10 119.34,70.07 119.35,70.03 119.41,70.00 119.42,69.96 119.42,69.93 119.48,69.89 119.48,69.86 119.50,69.82 119.50,69.79 119.52,69.75 119.54,69.72 119.58,69.68 119.62,69.65 119.63,69.61 119.63,69.58 119.63,69.54 119.65,69.51 119.66,69.47 119.67,69.44 119.68,69.40 119.70,69.37 119.73,69.33 119.74,69.30 119.75,69.26 119.86,69.23 119.87,69.19 119.88,69.16 119.89,69.12 119.89,69.09 119.90,69.05 119.90,69.02 119.92,68.98 120.01,68.95 120.02,68.91 120.03,68.88 120.04,68.84 120.04,68.81 120.04,68.77 120.06,68.74 120.09,68.70 120.11,68.67 120.16,68.63 120.19,68.60 120.20,68.56 120.22,68.53 120.22,68.49 120.26,68.46 120.27,68.42 120.27,68.39 120.28,68.35 120.32,68.32 120.33,68.28 120.35,68.25 120.35,68.21 120.38,68.18 120.40,68.14 120.45,68.11 120.48,68.07 120.48,68.04 120.48,68.00 120.51,67.97 120.55,67.93 120.58,67.90 120.65,67.86 120.65,67.83 120.65,67.79 120.66,67.76 120.67,67.72 120.73,67.69 120.73,67.65 120.77,67.62 120.78,67.59 120.81,67.55 120.83,67.52 120.85,67.48 120.86,67.45 120.87,67.41 120.91,67.38 120.93,67.34 121.00,67.31 121.02,67.27 121.06,67.24 121.09,67.20 121.18,67.17 121.24,67.13 121.25,67.10 121.25,67.06 121.28,67.03 121.29,66.99 121.33,66.96 121.34,66.92 121.35,66.89 121.37,66.85 121.38,66.82 121.38,66.78 121.38,66.75 121.42,66.71 121.44,66.68 121.45,66.64 121.48,66.61 121.53,66.57 121.54,66.54 121.55,66.50 121.61,66.47 121.62,66.43 121.62,66.40 121.62,66.36 121.63,66.33 121.64,66.29 121.68,66.26 121.70,66.22 121.80,66.19 121.80,66.15 121.82,66.12 121.85,66.08 121.85,66.05 121.86,66.01 121.92,65.98 121.92,65.94 121.92,65.91 121.98,65.87 122.00,65.84 122.01,65.80 122.04,65.77 122.06,65.73 122.13,65.70 122.15,65.66 122.16,65.63 122.19,65.59 122.29,65.56 122.30,65.52 122.38,65.49 122.38,65.45 122.40,65.42 122.41,65.38 122.41,65.35 122.42,65.31 122.43,65.28 122.43,65.24 122.44,65.21 122.45,65.17 122.52,65.14 122.55,65.10 122.59,65.07 122.59,65.03 122.63,65.00 122.65,64.96 122.66,64.93 122.66,64.89 122.71,64.86 122.72,64.82 122.74,64.79 122.82,64.75 122.82,64.72 122.82,64.68 122.84,64.65 122.87,64.61 122.90,64.58 122.90,64.54 122.96,64.51 122.98,64.47 122.98,64.44 122.99,64.40 123.01,64.37 123.02,64.33 123.06,64.30 123.07,64.26 123.08,64.23 123.09,64.19 123.09,64.16 123.11,64.12 123.12,64.09 123.12,64.05 123.12,64.02 123.13,63.98 123.13,63.95 123.15,63.91 123.17,63.88 123.18,63.84 123.20,63.81 123.20,63.77 123.21,63.74 123.25,63.70 123.28,63.67 123.32,63.63 123.34,63.60 123.35,63.56 123.35,63.53 123.39,63.49 123.42,63.46 123.44,63.42 123.46,63.39 123.49,63.35 123.58,63.32 123.59,63.28 123.67,63.25 123.69,63.21 123.73,63.18 123.80,63.14 123.82,63.11 123.90,63.07 123.92,63.04 123.93,63.00 123.95,62.97 124.01,62.93 124.01,62.90 124.02,62.86 124.03,62.83 124.07,62.79 124.09,62.76 124.12,62.72 124.12,62.69 124.13,62.65 124.15,62.62 124.19,62.58 124.20,62.55 124.23,62.51 124.25,62.48 124.26,62.44 124.27,62.41 124.32,62.37 124.35,62.34 124.38,62.30 124.50,62.27 124.55,62.23 124.58,62.20 124.62,62.16 124.62,62.13 124.62,62.09 124.67,62.06 124.68,62.02 124.69,61.99 124.69,61.95 124.72,61.92 124.72,61.89 124.73,61.85 124.79,61.82 124.79,61.78 124.82,61.75 124.87,61.71 124.87,61.68 124.88,61.64 124.89,61.61 124.92,61.57 124.93,61.54 124.93,61.50 124.98,61.47 125.06,61.43 125.07,61.40 125.14,61.36 125.15,61.33 125.16,61.29 125.16,61.26 125.17,61.22 125.20,61.19 125.21,61.15 125.25,61.12 125.26,61.08 125.28,61.05 125.32,61.01 125.40,60.98 125.48,60.94 125.49,60.91 125.50,60.87 125.52,60.84 125.55,60.80 125.55,60.77 125.57,60.73 125.62,60.70 125.63,60.66 125.65,60.63 125.70,60.59 125.71,60.56 125.74,60.52 125.74,60.49 125.75,60.45 125.81,60.42 125.82,60.38 125.88,60.35 126.00,60.31 126.02,60.28 126.05,60.24 126.09,60.21 126.10,60.17 126.10,60.14 126.11,60.10 126.13,60.07 126.15,60.03 126.19,60.00 126.23,59.96 126.26,59.93 126.26,59.89 126.29,59.86 126.29,59.82 126.32,59.79 126.32,59.75 126.35,59.72 126.35,59.68 126.38,59.65 126.45,59.61 126.45,59.58 126.48,59.54 126.49,59.51 126.57,59.47 126.61,59.44 126.69,59.40 126.74,59.37 126.74,59.33 126.78,59.30 126.78,59.26 126.80,59.23 126.81,59.19 126.82,59.16 126.85,59.12 126.89,59.09 126.92,59.05 126.92,59.02 126.95,58.98 126.95,58.95 126.98,58.91 127.04,58.88 127.05,58.84 127.05,58.81 127.07,58.77 127.07,58.74 127.10,58.70 127.12,58.67 127.12,58.63 127.15,58.60 127.18,58.56 127.18,58.53 127.18,58.49 127.19,58.46 127.23,58.42 127.25,58.39 127.26,58.35 127.31,58.32 127.34,58.28 127.34,58.25 127.38,58.21 127.42,58.18 127.42,58.14 127.44,58.11 127.47,58.07 127.50,58.04 127.51,58.00 127.55,57.97 127.56,57.93 127.60,57.90 127.60,57.86 127.70,57.83 127.70,57.79 127.72,57.76 127.75,57.72 127.76,57.69 127.78,57.65 127.79,57.62 127.79,57.58 127.87,57.55 127.92,57.51 127.95,57.48 128.01,57.44 128.04,57.41 128.07,57.37 128.14,57.34 128.18,57.30 128.20,57.27 128.21,57.23 128.28,57.20 128.41,57.16 128.47,57.13 128.49,57.09 128.56,57.06 128.61,57.02 128.61,56.99 128.63,56.95 128.64,56.92 128.65,56.88 128.66,56.85 128.67,56.81 128.67,56.78 128.67,56.74 128.68,56.71 128.68,56.67 128.75,56.64 128.78,56.60 128.79,56.57 128.80,56.53 128.85,56.50 129.05,56.46 129.05,56.43 129.06,56.39 129.06,56.36 129.11,56.32 129.16,56.29 129.18,56.25 129.22,56.22 129.23,56.19 129.26,56.15 129.26,56.12 129.27,56.08 129.29,56.05 129.37,56.01 129.39,55.98 129.50,55.94 129.55,55.91 129.55,55.87 129.58,55.84 129.58,55.80 129.60,55.77 129.64,55.73 129.66,55.70 129.73,55.66 129.75,55.63 129.79,55.59 129.79,55.56 129.89,55.52 129.89,55.49 129.90,55.45 129.98,55.42 129.99,55.38 130.03,55.35 130.03,55.31 130.05,55.28 130.14,55.24 130.16,55.21 130.18,55.17 130.20,55.14 130.20,55.10 130.27,55.07 130.28,55.03 130.29,55.00 130.30,54.96 130.38,54.93 130.39,54.89 130.43,54.86 130.48,54.82 130.48,54.79 130.52,54.75 130.53,54.72 130.53,54.68 130.66,54.65 130.70,54.61 130.72,54.58 130.73,54.54 130.74,54.51 130.83,54.47 130.84,54.44 130.84,54.40 130.85,54.37 130.85,54.33 130.92,54.30 131.02,54.26 131.05,54.23 131.10,54.19 131.10,54.16 131.16,54.12 131.19,54.09 131.21,54.05 131.24,54.02 131.27,53.98 131.29,53.95 131.34,53.91 131.36,53.88 131.37,53.84 131.41,53.81 131.41,53.77 131.45,53.74 131.46,53.70 131.46,53.67 131.51,53.63 131.51,53.60 131.53,53.56 131.57,53.53 131.63,53.49 131.70,53.46 131.73,53.42 131.74,53.39 131.78,53.35 131.80,53.32 131.82,53.28 131.83,53.25 131.87,53.21 131.94,53.18 131.95,53.14 131.96,53.11 132.00,53.07 132.02,53.04 132.09,53.00 132.09,52.97 132.16,52.93 132.20,52.90 132.21,52.86 132.24,52.83 132.32,52.79 132.34,52.76 132.38,52.72 132.40,52.69 132.40,52.65 132.46,52.62 132.54,52.58 132.56,52.55 132.59,52.51 132.63,52.48 132.66,52.44 132.72,52.41 132.73,52.37 132.75,52.34 132.76,52.30 132.76,52.27 132.80,52.23 132.83,52.20 132.87,52.16 132.97,52.13 133.02,52.09 133.03,52.06 133.09,52.02 133.18,51.99 133.24,51.95 133.36,51.92 133.41,51.88 133.42,51.85 133.44,51.81 133.54,51.78 133.64,51.74 133.67,51.71 133.67,51.67 133.72,51.64 133.75,51.60 133.79,51.57 133.79,51.53 133.80,51.50 133.84,51.46 133.87,51.43 133.91,51.39 133.92,51.36 134.01,51.32 134.03,51.29 134.05,51.25 134.08,51.22 134.12,51.18 134.13,51.15 134.14,51.11 134.29,51.08 134.30,51.04 134.31,51.01 134.32,50.97 134.37,50.94 134.41,50.90 134.42,50.87 134.43,50.83 134.46,50.80 134.46,50.76 134.53,50.73 134.57,50.69 134.57,50.66 134.63,50.62 134.66,50.59 134.67,50.55 134.67,50.52 134.68,50.49 134.68,50.45 134.80,50.42 134.87,50.38 135.01,50.35 135.04,50.31 135.04,50.28 135.07,50.24 135.08,50.21 135.09,50.17 135.10,50.14 135.11,50.10 135.17,50.07 135.23,50.03 135.27,50.00 135.33,49.96 135.33,49.93 135.34,49.89 135.36,49.86 135.39,49.82 135.40,49.79 135.43,49.75 135.44,49.72 135.50,49.68 135.51,49.65 135.58,49.61 135.62,49.58 135.63,49.54 135.66,49.51 135.70,49.47 135.74,49.44 135.82,49.40 135.87,49.37 136.04,49.33 136.06,49.30 136.09,49.26 136.11,49.23 136.14,49.19 136.14,49.16 136.22,49.12 136.28,49.09 136.36,49.05 136.41,49.02 136.42,48.98 136.50,48.95 136.51,48.91 136.55,48.88 136.63,48.84 136.71,48.81 136.71,48.77 136.79,48.74 136.83,48.70 136.85,48.67 136.89,48.63 136.91,48.60 136.92,48.56 137.00,48.53 137.19,48.49 137.28,48.46 137.28,48.42 137.28,48.39 137.31,48.35 137.31,48.32 137.33,48.28 137.36,48.25 137.46,48.21 137.49,48.18 137.52,48.14 137.53,48.11 137.55,48.07 137.68,48.04 137.69,48.00 137.76,47.97 137.81,47.93 137.83,47.90 137.85,47.86 137.85,47.83 137.95,47.79 137.95,47.76 137.98,47.72 138.02,47.69 138.02,47.65 138.23,47.62 138.29,47.58 138.29,47.55 138.34,47.51 138.56,47.48 138.60,47.44 138.61,47.41 138.70,47.37 138.74,47.34 138.76,47.30 138.78,47.27 138.79,47.23 138.82,47.20 138.83,47.16 138.91,47.13 138.98,47.09 139.01,47.06 139.04,47.02 139.08,46.99 139.08,46.95 139.09,46.92 139.09,46.88 139.12,46.85 139.13,46.81 139.18,46.78 139.21,46.74 139.41,46.71 139.50,46.67 139.50,46.64 139.52,46.60 139.56,46.57 139.77,46.53 139.81,46.50 139.86,46.46 139.93,46.43 139.93,46.39 139.94,46.36 139.97,46.32 140.03,46.29 140.09,46.25 140.16,46.22 140.20,46.18 140.30,46.15 140.30,46.11 140.41,46.08 140.47,46.04 140.56,46.01 140.57,45.97 140.57,45.94 140.60,45.90 140.61,45.87 140.62,45.83 140.69,45.80 140.75,45.76 140.80,45.73 140.82,45.69 140.87,45.66 140.89,45.62 140.96,45.59 141.07,45.55 141.10,45.52 141.11,45.48 141.15,45.45 141.19,45.41 141.29,45.38 141.31,45.34 141.32,45.31 141.35,45.27 141.40,45.24 141.47,45.20 141.49,45.17 141.51,45.13 141.62,45.10 141.63,45.06 141.65,45.03 141.66,44.99 141.67,44.96 141.74,44.92 141.75,44.89 141.81,44.85 142.08,44.82 142.08,44.79 142.12,44.75 142.12,44.72 142.14,44.68 142.22,44.65 142.28,44.61 142.36,44.58 142.41,44.54 142.44,44.51 142.49,44.47 142.55,44.44 142.55,44.40 142.66,44.37 142.68,44.33 142.70,44.30 142.74,44.26 142.77,44.23 142.82,44.19 142.83,44.16 142.86,44.12 142.87,44.09 142.96,44.05 143.02,44.02 143.09,43.98 143.09,43.95 143.21,43.91 143.35,43.88 143.39,43.84 143.42,43.81 143.46,43.77 143.57,43.74 143.57,43.70 143.70,43.67 143.74,43.63 143.85,43.60 143.93,43.56 143.97,43.53 144.03,43.49 144.09,43.46 144.11,43.42 144.19,43.39 144.20,43.35 144.22,43.32 144.32,43.28 144.33,43.25 144.37,43.21 144.37,43.18 144.58,43.14 144.60,43.11 144.67,43.07 144.78,43.04 144.86,43.00 144.89,42.97 144.89,42.93 144.92,42.90 144.96,42.86 144.96,42.83 144.98,42.79 144.99,42.76 145.05,42.72 145.06,42.69 145.11,42.65 145.15,42.62 145.28,42.58 145.33,42.55 145.38,42.51 145.40,42.48 145.43,42.44 145.53,42.41 145.55,42.37 145.57,42.34 145.60,42.30 145.65,42.27 145.67,42.23 145.71,42.20 145.73,42.16 145.76,42.13 145.83,42.09 145.97,42.06 145.99,42.02 146.05,41.99 146.06,41.95 146.17,41.92 146.18,41.88 146.22,41.85 146.24,41.81 146.28,41.78 146.28,41.74 146.29,41.71 146.30,41.67 146.31,41.64 146.44,41.60 146.48,41.57 146.63,41.53 146.64,41.50 146.66,41.46 146.66,41.43 146.72,41.39 146.76,41.36 147.00,41.32 147.00,41.29 147.03,41.25 147.08,41.22 147.15,41.18 147.18,41.15 147.18,41.11 147.26,41.08 147.31,41.04 147.49,41.01 147.61,40.97 147.74,40.94 147.75,40.90 147.77,40.87 147.84,40.83 147.91,40.80 148.02,40.76 148.11,40.73 148.14,40.69 148.16,40.66 148.23,40.62 148.28,40.59 148.29,40.55 148.30,40.52 148.35,40.48 148.56,40.45 148.67,40.41 148.68,40.38 148.76,40.34 148.95,40.31 148.96,40.27 148.96,40.24 149.04,40.20 149.06,40.17 149.09,40.13 149.13,40.10 149.16,40.06 149.28,40.03 149.46,39.99 149.59,39.96 149.62,39.92 149.62,39.89 149.74,39.85 149.76,39.82 149.80,39.78 149.82,39.75 150.07,39.71 150.08,39.68 150.20,39.64 150.36,39.61 150.39,39.57 150.64,39.54 150.80,39.50 150.97,39.47 151.01,39.43 151.08,39.40 151.10,39.36 151.17,39.33 151.21,39.29 151.25,39.26 151.46,39.22 151.56,39.19 151.67,39.15 151.71,39.12 151.79,39.09 151.82,39.05 151.82,39.02 151.90,38.98 152.03,38.95 152.06,38.91 152.17,38.88 152.20,38.84 152.28,38.81 152.37,38.77 152.39,38.74 152.50,38.70 152.64,38.67 152.70,38.63 152.71,38.60 152.79,38.56 152.80,38.53 152.83,38.49 152.90,38.46 153.04,38.42 153.08,38.39 153.17,38.35 153.19,38.32 153.20,38.28 153.26,38.25 153.42,38.21 153.51,38.18 153.54,38.14 153.62,38.11 153.72,38.07 153.88,38.04 153.97,38.00 153.98,37.97 154.17,37.93 154.20,37.90 154.26,37.86 154.36,37.83 154.45,37.79 154.47,37.76 154.49,37.72 154.49,37.69 154.54,37.65 154.56,37.62 154.57,37.58 154.58,37.55 154.59,37.51 154.60,37.48 154.66,37.44 154.68,37.41 154.71,37.37 154.73,37.34 154.74,37.30 154.76,37.27 154.80,37.23 154.84,37.20 154.85,37.16 154.89,37.13 154.92,37.09 154.98,37.06 154.99,37.02 155.11,36.99 155.15,36.95 155.21,36.92 155.22,36.88 155.23,36.85 155.30,36.81 155.55,36.78 155.72,36.74 155.77,36.71 155.85,36.67 155.93,36.64 155.97,36.60 156.00,36.57 156.04,36.53 156.06,36.50 156.12,36.46 156.25,36.43 156.29,36.39 156.39,36.36 156.47,36.32 156.67,36.29 156.69,36.25 156.73,36.22 156.73,36.18 156.73,36.15 156.74,36.11 156.83,36.08 156.84,36.04 156.84,36.01 156.86,35.97 156.94,35.94 157.02,35.90 157.04,35.87 157.20,35.83 157.23,35.80 157.27,35.76 157.28,35.73 157.32,35.69 157.32,35.66 157.33,35.62 157.50,35.59 157.55,35.55 157.55,35.52 157.71,35.48 157.79,35.45 157.95,35.41 157.97,35.38 157.99,35.34 158.03,35.31 158.04,35.27 158.15,35.24 158.18,35.20 158.36,35.17 158.36,35.13 158.50,35.10 158.71,35.06 158.75,35.03 158.80,34.99 158.84,34.96 158.88,34.92 158.91,34.89 158.95,34.85 158.97,34.82 158.98,34.78 159.03,34.75 159.04,34.71 159.11,34.68 159.14,34.64 159.16,34.61 159.18,34.57 159.26,34.54 159.34,34.50 159.34,34.47 159.42,34.43 159.68,34.40 159.75,34.36 159.80,34.33 159.84,34.29 159.86,34.26 160.13,34.22 160.13,34.19 160.13,34.15 160.20,34.12 160.23,34.08 160.28,34.05 160.33,34.01 160.42,33.98 160.49,33.94 160.55,33.91 160.61,33.87 160.68,33.84 160.85,33.80 160.97,33.77 161.08,33.73 161.13,33.70 161.27,33.66 161.47,33.63 161.54,33.59 161.57,33.56 161.81,33.52 161.83,33.49 161.85,33.45 161.93,33.42 161.94,33.39 161.98,33.35 162.04,33.32 162.14,33.28 162.23,33.25 162.61,33.21 162.62,33.18 162.89,33.14 162.94,33.11 163.01,33.07 163.15,33.04 163.24,33.00 163.25,32.97 163.28,32.93 163.34,32.90 163.36,32.86 163.97,32.83 164.02,32.79 164.08,32.76 164.09,32.72 164.14,32.69 164.16,32.65 164.21,32.62 164.26,32.58 164.41,32.55 164.45,32.51 164.60,32.48 164.61,32.44 164.84,32.41 164.90,32.37 164.96,32.34 165.02,32.30 165.13,32.27 165.36,32.23 165.38,32.20 165.50,32.16 165.55,32.13 165.72,32.09 165.73,32.06 165.93,32.02 166.08,31.99 166.17,31.95 166.30,31.92 166.38,31.88 166.46,31.85 166.48,31.81 166.48,31.78 166.74,31.74 166.80,31.71 167.05,31.67 167.10,31.64 167.11,31.60 167.23,31.57 167.23,31.53 167.29,31.50 167.31,31.46 167.47,31.43 167.50,31.39 167.68,31.36 167.71,31.32 167.75,31.29 167.90,31.25 168.00,31.22 168.00,31.18 168.05,31.15 168.06,31.11 168.20,31.08 168.27,31.04 168.34,31.01 168.35,30.97 168.49,30.94 168.52,30.90 168.68,30.87 168.73,30.83 168.92,30.80 169.03,30.76 169.30,30.73 169.37,30.69 169.37,30.66 169.42,30.62 169.61,30.59 170.02,30.55 170.06,30.52 170.22,30.48 170.33,30.45 170.34,30.41 170.51,30.38 170.80,30.34 170.99,30.31 171.14,30.27 171.14,30.24 171.23,30.20 171.27,30.17 171.36,30.13 171.39,30.10 171.80,30.06 172.03,30.03 172.35,29.99 172.78,29.96 173.02,29.92 173.14,29.89 173.69,29.85 173.77,29.82 173.89,29.78 174.17,29.75 174.28,29.71 174.36,29.68 174.40,29.64 174.47,29.61 174.80,29.57 174.89,29.54 174.95,29.50 174.97,29.47 175.32,29.43 175.65,29.40 175.89,29.36 176.12,29.33 176.54,29.29 176.63,29.26 176.94,29.22 176.97,29.19 177.00,29.15 177.04,29.12 177.18,29.08 177.43,29.05 177.44,29.01 177.47,28.98 177.65,28.94 177.76,28.91 178.00,28.87 178.12,28.84 178.26,28.80 178.27,28.77 178.65,28.73 178.66,28.70 178.67,28.66 178.77,28.63 178.98,28.59 178.99,28.56 179.07,28.52 179.25,28.49 179.36,28.45 179.47,28.42 179.53,28.38 179.56,28.35 179.69,28.31 179.81,28.28 179.84,28.24 180.03,28.21 180.05,28.17 180.10,28.14 180.22,28.10 180.34,28.07 180.59,28.03 180.97,28.00 181.00,27.96 181.18,27.93 181.19,27.89 181.29,27.86 181.33,27.82 181.47,27.79 181.55,27.75 181.63,27.72 181.79,27.68 182.27,27.65 182.30,27.62 182.60,27.58 182.68,27.55 182.93,27.51 183.24,27.48 183.35,27.44 183.60,27.41 183.62,27.37 184.01,27.34 184.02,27.30 184.41,27.27 184.47,27.23 184.51,27.20 184.66,27.16 185.01,27.13 185.20,27.09 185.43,27.06 185.78,27.02 185.79,26.99 185.96,26.95 185.98,26.92 186.14,26.88 186.22,26.85 186.35,26.81 186.48,26.78 186.92,26.74 187.03,26.71 187.05,26.67 187.11,26.64 187.37,26.60 187.46,26.57 187.50,26.53 187.77,26.50 187.84,26.46 188.14,26.43 188.34,26.39 188.36,26.36 188.52,26.32 188.86,26.29 188.96,26.25 189.48,26.22 189.57,26.18 189.65,26.15 189.82,26.11 189.82,26.08 190.18,26.04 190.22,26.01 190.22,25.97 190.48,25.94 190.54,25.90 190.59,25.87 190.66,25.83 190.70,25.80 190.87,25.76 190.87,25.73 191.41,25.69 191.45,25.66 191.49,25.62 191.56,25.59 191.67,25.55 191.73,25.52 191.77,25.48 192.15,25.45 192.30,25.41 192.44,25.38 192.51,25.34 192.94,25.31 193.11,25.27 193.20,25.24 193.34,25.20 193.39,25.17 193.84,25.13 194.06,25.10 194.14,25.06 194.16,25.03 194.33,24.99 194.34,24.96 194.71,24.92 195.46,24.89 195.97,24.85 196.20,24.82 196.39,24.78 196.54,24.75 196.61,24.71 196.68,24.68 196.77,24.64 197.36,24.61 197.75,24.57 198.18,24.54 198.22,24.50 198.23,24.47 198.47,24.43 198.67,24.40 198.76,24.36 198.82,24.33 199.18,24.29 199.24,24.26 199.47,24.22 200.07,24.19 200.11,24.15 200.23,24.12 200.23,24.08 200.27,24.05 200.30,24.01 200.43,23.98 200.50,23.94 200.67,23.91 201.59,23.87 201.63,23.84 201.65,23.80 201.78,23.77 201.78,23.73 202.26,23.70 202.30,23.66 202.38,23.63 202.46,23.59 202.55,23.56 203.06,23.52 203.28,23.49 203.36,23.45 203.44,23.42 203.58,23.38 203.90,23.35 203.91,23.31 203.99,23.28 203.99,23.24 204.40,23.21 204.82,23.17 204.88,23.14 204.97,23.10 205.13,23.07 205.51,23.03 205.52,23.00 205.63,22.96 206.19,22.93 206.23,22.89 206.51,22.86 206.73,22.82 206.88,22.79 207.12,22.75 207.20,22.72 207.69,22.68 207.71,22.65 207.71,22.61 207.82,22.58 207.94,22.54 208.58,22.51 208.71,22.47 208.92,22.44 209.07,22.40 209.19,22.37 209.60,22.33 209.63,22.30 210.23,22.26 210.24,22.23 210.81,22.19 211.48,22.16 211.68,22.12 211.70,22.09 212.37,22.05 212.81,22.02 213.49,21.98 213.53,21.95 214.71,21.92 214.85,21.88 215.00,21.85 215.42,21.81 216.08,21.78 216.13,21.74 216.18,21.71 216.43,21.67 216.47,21.64 216.50,21.60 216.52,21.57 216.55,21.53 216.70,21.50 217.94,21.46 218.22,21.43 218.45,21.39 218.79,21.36 218.86,21.32 219.01,21.29 219.57,21.25 220.60,21.22 220.61,21.18 220.76,21.15 220.81,21.11 220.92,21.08 221.03,21.04 221.16,21.01 222.96,20.97 223.24,20.94 223.72,20.90 225.42,20.87 225.62,20.83 225.64,20.80 225.65,20.76 225.86,20.73 226.05,20.69 226.14,20.66 226.27,20.62 226.87,20.59 227.50,20.55 228.12,20.52 228.40,20.48 228.52,20.45 228.58,20.41 229.02,20.38 229.13,20.34 230.05,20.31 230.08,20.27 230.94,20.24 231.12,20.20 231.28,20.17 231.77,20.13 232.00,20.10 232.27,20.06 232.63,20.03 232.77,19.99 232.86,19.96 233.26,19.92 233.50,19.89 233.52,19.85 234.26,19.82 234.58,19.78 234.72,19.75 236.62,19.71 237.23,19.68 237.54,19.64 237.79,19.61 238.83,19.57 240.37,19.54 240.38,19.50 240.64,19.47 241.13,19.43 241.96,19.40 242.57,19.36 242.74,19.33 243.12,19.29 243.14,19.26 243.97,19.22 244.02,19.19 244.30,19.15 244.48,19.12 245.45,19.08 246.12,19.05 246.47,19.01 246.59,18.98 246.92,18.94 247.53,18.91 247.91,18.87 248.25,18.84 249.31,18.80 249.44,18.77 249.45,18.73 249.84,18.70 249.88,18.66 250.01,18.63 250.18,18.59 250.96,18.56 251.84,18.52 251.96,18.49 252.49,18.45 252.66,18.42 252.75,18.38 253.41,18.35 257.67,18.31 257.71,18.28 259.38,18.24 259.93,18.21 260.24,18.17 260.50,18.14 260.69,18.10 261.25,18.07 262.83,18.03 263.49,18.00 263.72,17.96 263.72,17.93 265.57,17.89 266.69,17.86 266.95,17.82 266.96,17.79 267.39,17.75 269.98,17.72 270.30,17.68 270.84,17.65 271.30,17.61 271.40,17.58 272.02,17.54 272.15,17.51 272.56,17.47 273.30,17.44 274.53,17.40 275.05,17.37 275.27,17.33 275.56,17.30 275.81,17.26 275.91,17.23 276.01,17.19 277.07,17.16 277.25,17.12 278.63,17.09 279.62,17.05 280.45,17.02 281.99,16.98 282.80,16.95 284.69,16.91 284.75,16.88 286.00,16.84 288.97,16.81 289.71,16.77 290.90,16.74 291.69,16.70 291.83,16.67 297.75,16.63 297.84,16.60 298.59,16.56 298.97,16.53 303.50,16.49 305.03,16.46 305.04,16.42 305.57,16.39 306.55,16.35 307.96,16.32 308.38,16.28 309.46,16.25 310.67,16.22 312.82,16.18 314.05,16.15 316.06,16.11 318.68,16.08 319.43,16.04 320.53,16.01 320.66,15.97 320.92,15.94 326.73,15.90 327.34,15.87 330.40,15.83 330.41,15.80 339.20,15.76 340.73,15.73 341.14,15.69 343.38,15.66 344.90,15.62 350.57,15.59 351.86,15.55 353.53,15.52 362.01,15.48 363.96,15.45 365.58,15.41 368.54,15.38 375.72,15.34 377.32,15.31 382.32,15.27 386.61,15.24 391.55,15.20 396.09,15.17 399.38,15.13 400.16,15.10 400.17,15.06 400.48,15.03 401.04,14.99 403.66,14.96 405.20,14.92 412.61,14.89 433.31,14.85 434.78,14.82 438.25,14.78 440.38,14.75 441.87,14.71 450.09,14.68 458.41,14.64 460.80,14.64 " style="stroke-width: 1.07; stroke: #F8766D; stroke-linecap: butt;" clip-path="url(#cpNDguNzk2OXw0NTUuMzIxfDE5Ny44MTF8NS40Nzk0NQ==)"/>
<line x1="269.98" y1="197.81" x2="269.98" y2="5.48" style="stroke-width: 1.07; stroke: #BEBEBE; stroke-dasharray: 5.69,5.69; stroke-linecap: butt;" clip-path="url(#cpNDguNzk2OXw0NTUuMzIxfDE5Ny44MTF8NS40Nzk0NQ==)"/>
<line x1="48.80" y1="17.72" x2="455.32" y2="17.72" style="stroke-width: 1.07; stroke: #BEBEBE; stroke-dasharray: 5.69,5.69; stroke-linecap: butt;" clip-path="url(#cpNDguNzk2OXw0NTUuMzIxfDE5Ny44MTF8NS40Nzk0NQ==)"/>
<g clip-path="url(#cpNDguNzk2OXw0NTUuMzIxfDE5Ny44MTF8NS40Nzk0NQ==)"><text x="150.86" y="16.46" style="font-size: 8.80px; font-family: Arial;" textLength="17.61px" lengthAdjust="spacingAndGlyphs">99%</text></g>
<g clip-path="url(#cpNDguNzk2OXw0NTUuMzIxfDE5Ny44MTF8NS40Nzk0NQ==)"><text x="274.83" y="104.79" style="font-size: 8.80px; font-family: Arial;" textLength="48.44px" lengthAdjust="spacingAndGlyphs">10.970056 s</text></g>
<defs>
  <clipPath id="cpMHw0NjAuOHwyMzAuNHww">
    <rect x="0.00" y="0.00" width="460.80" height="230.40"/>
  </clipPath>
</defs>
<g clip-path="url(#cpMHw0NjAuOHwyMzAuNHww)"><text x="26.25" y="192.22" style="font-size: 8.80px; fill: #4D4D4D; font-family: Arial;" textLength="17.61px" lengthAdjust="spacingAndGlyphs">50%</text></g>
<g clip-path="url(#cpMHw0NjAuOHwyMzAuNHww)"><text x="26.25" y="157.25" style="font-size: 8.80px; fill: #4D4D4D; font-family: Arial;" textLength="17.61px" lengthAdjust="spacingAndGlyphs">60%</text></g>
<g clip-path="url(#cpMHw0NjAuOHwyMzAuNHww)"><text x="26.25" y="122.28" style="font-size: 8.80px; fill: #4D4D4D; font-family: Arial;" textLength="17.61px" lengthAdjust="spacingAndGlyphs">70%</text></g>
<g clip-path="url(#cpMHw0NjAuOHwyMzAuNHww)"><text x="26.25" y="87.31" style="font-size: 8.80px; fill: #4D4D4D; font-family: Arial;" textLength="17.61px" lengthAdjust="spacingAndGlyphs">80%</text></g>
<g clip-path="url(#cpMHw0NjAuOHwyMzAuNHww)"><text x="26.25" y="52.34" style="font-size: 8.80px; fill: #4D4D4D; font-family: Arial;" textLength="17.61px" lengthAdjust="spacingAndGlyphs">90%</text></g>
<g clip-path="url(#cpMHw0NjAuOHwyMzAuNHww)"><text x="21.36" y="17.37" style="font-size: 8.80px; fill: #4D4D4D; font-family: Arial;" textLength="22.51px" lengthAdjust="spacingAndGlyphs">100%</text></g>
<polyline points="46.06,189.07 48.80,189.07 " style="stroke-width: 1.07; stroke: #333333; stroke-linecap: butt;" clip-path="url(#cpMHw0NjAuOHwyMzAuNHww)"/>
<polyline points="46.06,154.10 48.80,154.10 " style="stroke-width: 1.07; stroke: #333333; stroke-linecap: butt;" clip-path="url(#cpMHw0NjAuOHwyMzAuNHww)"/>
<polyline points="46.06,119.13 48.80,119.13 " style="stroke-width: 1.07; stroke: #333333; stroke-linecap: butt;" clip-path="url(#cpMHw0NjAuOHwyMzAuNHww)"/>
<polyline points="46.06,84.16 48.80,84.16 " style="stroke-width: 1.07; stroke: #333333; stroke-linecap: butt;" clip-path="url(#cpMHw0NjAuOHwyMzAuNHww)"/>
<polyline points="46.06,49.19 48.80,49.19 " style="stroke-width: 1.07; stroke: #333333; stroke-linecap: butt;" clip-path="url(#cpMHw0NjAuOHwyMzAuNHww)"/>
<polyline points="46.06,14.22 48.80,14.22 " style="stroke-width: 1.07; stroke: #333333; stroke-linecap: butt;" clip-path="url(#cpMHw0NjAuOHwyMzAuNHww)"/>
<polyline points="67.28,200.55 67.28,197.81 " style="stroke-width: 1.07; stroke: #333333; stroke-linecap: butt;" clip-path="url(#cpMHw0NjAuOHwyMzAuNHww)"/>
<polyline points="159.67,200.55 159.67,197.81 " style="stroke-width: 1.07; stroke: #333333; stroke-linecap: butt;" clip-path="url(#cpMHw0NjAuOHwyMzAuNHww)"/>
<polyline points="252.06,200.55 252.06,197.81 " style="stroke-width: 1.07; stroke: #333333; stroke-linecap: butt;" clip-path="url(#cpMHw0NjAuOHwyMzAuNHww)"/>
<polyline points="344.45,200.55 344.45,197.81 " style="stroke-width: 1.07; stroke: #333333; stroke-linecap: butt;" clip-path="url(#cpMHw0NjAuOHwyMzAuNHww)"/>
<polyline points="436.84,200.55 436.84,197.81 " style="stroke-width: 1.07; stroke: #333333; stroke-linecap: butt;" clip-path="url(#cpMHw0NjAuOHwyMzAuNHww)"/>
<g clip-path="url(#cpMHw0NjAuOHwyMzAuNHww)"><text x="64.83" y="209.04" style="font-size: 8.80px; fill: #4D4D4D; font-family: Arial;" textLength="4.89px" lengthAdjust="spacingAndGlyphs">0</text></g>
<g clip-path="url(#cpMHw0NjAuOHwyMzAuNHww)"><text x="157.22" y="209.04" style="font-size: 8.80px; fill: #4D4D4D; font-family: Arial;" textLength="4.89px" lengthAdjust="spacingAndGlyphs">5</text></g>
<g clip-path="url(#cpMHw0NjAuOHwyMzAuNHww)"><text x="247.16" y="209.04" style="font-size: 8.80px; fill: #4D4D4D; font-family: Arial;" textLength="9.79px" lengthAdjust="spacingAndGlyphs">10</text></g>
<g clip-path="url(#cpMHw0NjAuOHwyMzAuNHww)"><text x="339.56" y="209.04" style="font-size: 8.80px; fill: #4D4D4D; font-family: Arial;" textLength="9.79px" lengthAdjust="spacingAndGlyphs">15</text></g>
<g clip-path="url(#cpMHw0NjAuOHwyMzAuNHww)"><text x="431.95" y="209.04" style="font-size: 8.80px; fill: #4D4D4D; font-family: Arial;" textLength="9.79px" lengthAdjust="spacingAndGlyphs">20</text></g>
<g clip-path="url(#cpMHw0NjAuOHwyMzAuNHww)"><text x="207.12" y="222.40" style="font-size: 11.00px; font-family: Arial;" textLength="89.88px" lengthAdjust="spacingAndGlyphs">Latency (seconds)</text></g>
<g clip-path="url(#cpMHw0NjAuOHwyMzAuNHww)"><text transform="translate(13.35,118.45) rotate(-90)" style="font-size: 11.00px; font-family: Arial;" textLength="33.62px" lengthAdjust="spacingAndGlyphs">ecdf(x)</text></g>
</svg>