<svg id="Layer_1" data-name="Layer 1" xmlns="http://www.w3.org/2000/svg" xmlns:xlink="http://www.w3.org/1999/xlink" viewBox="0 0 1137.11 717.76"><defs><style>.cls-1{fill:#04111c}.cls-10,.cls-12,.cls-2,.cls-4,.cls-7{fill:none;stroke-miterlimit:10}.cls-2{stroke:#59a5a5;stroke-width:1.2px}.cls-12,.cls-4,.cls-7{stroke:#fff}.cls-4{stroke-width:1.8px}.cls-5{fill:#595959}.cls-6{fill:#589093}.cls-10,.cls-7{stroke-width:1.5px}.cls-8{fill:#024959}.cls-9{fill:#ccc}.cls-10{stroke:#eaeaea}.cls-11{fill:#656666}.cls-13{fill:#fff}.cls-14{fill:#4a5f68}.cls-15{fill:#c6c6c6}.cls-16{fill:#303030}.cls-17{fill:#b5b5b5}.cls-18{fill:#9e9e9e}.cls-20{fill:#cecece}.cls-24{fill:#c4c4c4}.cls-25{fill:#21211f}.cls-26{fill:#e6e6e6}.cls-28{fill:#39b54a}</style><radialGradient id="radial-gradient" cx="-263.53" cy="87.57" r="1.38" gradientTransform="rotate(180 103.035 124.96)" gradientUnits="userSpaceOnUse"><stop offset="0" stop-color="#39b54a"/><stop offset=".17" stop-color="#39b54a" stop-opacity=".84"/><stop offset=".54" stop-color="#39b54a" stop-opacity=".43"/><stop offset=".9" stop-color="#39b54a" stop-opacity="0"/></radialGradient><radialGradient id="radial-gradient-2" cx="-269.2" cy="87.57" r="1.38" xlink:href="#radial-gradient"/><radialGradient id="radial-gradient-3" cx="-274.2" cy="87.57" r="1.38" xlink:href="#radial-gradient"/><radialGradient id="radial-gradient-4" cx="-279.88" cy="87.57" r="1.38" xlink:href="#radial-gradient"/><radialGradient id="radial-gradient-5" cx="-284.88" cy="87.57" r="1.38" xlink:href="#radial-gradient"/><radialGradient id="radial-gradient-6" cx="-290.56" cy="87.57" r="1.38" xlink:href="#radial-gradient"/><radialGradient id="radial-gradient-7" cx="-295.56" cy="87.57" r="1.38" xlink:href="#radial-gradient"/><radialGradient id="radial-gradient-8" cx="-301.13" cy="87.57" r="1.38" xlink:href="#radial-gradient"/><radialGradient id="radial-gradient-9" cx="-308.14" cy="87.57" r="1.38" xlink:href="#radial-gradient"/><radialGradient id="radial-gradient-10" cx="-313.82" cy="87.57" r="1.38" xlink:href="#radial-gradient"/><radialGradient id="radial-gradient-11" cx="-318.82" cy="87.57" r="1.38" xlink:href="#radial-gradient"/><radialGradient id="radial-gradient-12" cx="-324.5" cy="87.57" r="1.38" xlink:href="#radial-gradient"/><radialGradient id="radial-gradient-13" cx="-329.5" cy="87.57" r="1.38" xlink:href="#radial-gradient"/><radialGradient id="radial-gradient-14" cx="-335.18" cy="87.57" r="1.38" xlink:href="#radial-gradient"/><radialGradient id="radial-gradient-15" cx="-340.18" cy="87.57" r="1.38" xlink:href="#radial-gradient"/><radialGradient id="radial-gradient-16" cx="-345.75" cy="87.57" r="1.38" xlink:href="#radial-gradient"/><radialGradient id="radial-gradient-17" cx="-257.17" cy="84.72" r="4.55" xlink:href="#radial-gradient"/><radialGradient id="radial-gradient-18" cx="-352.77" cy="87.57" r="1.38" xlink:href="#radial-gradient"/><radialGradient id="radial-gradient-19" cx="-358.45" cy="87.57" r="1.38" xlink:href="#radial-gradient"/><radialGradient id="radial-gradient-20" cx="-363.45" cy="87.57" r="1.38" xlink:href="#radial-gradient"/><radialGradient id="radial-gradient-21" cx="-369.13" cy="87.57" r="1.38" xlink:href="#radial-gradient"/><radialGradient id="radial-gradient-22" cx="-374.13" cy="87.57" r="1.38" xlink:href="#radial-gradient"/><radialGradient id="radial-gradient-23" cx="-379.8" cy="87.57" r="1.38" xlink:href="#radial-gradient"/><radialGradient id="radial-gradient-24" cx="-384.81" cy="87.57" r="1.38" xlink:href="#radial-gradient"/><radialGradient id="radial-gradient-25" cx="-390.38" cy="87.57" r="1.38" xlink:href="#radial-gradient"/><radialGradient id="radial-gradient-26" cx="-397.48" cy="87.57" r="1.38" xlink:href="#radial-gradient"/><radialGradient id="radial-gradient-27" cx="-403.15" cy="87.57" r="1.38" xlink:href="#radial-gradient"/><radialGradient id="radial-gradient-28" cx="-408.16" cy="87.57" r="1.38" xlink:href="#radial-gradient"/><radialGradient id="radial-gradient-29" cx="-413.83" cy="87.57" r="1.38" xlink:href="#radial-gradient"/><radialGradient id="radial-gradient-30" cx="-418.84" cy="87.57" r="1.38" xlink:href="#radial-gradient"/><radialGradient id="radial-gradient-31" cx="-424.51" cy="87.57" r="1.38" xlink:href="#radial-gradient"/><radialGradient id="radial-gradient-32" cx="-429.51" cy="87.57" r="1.38" xlink:href="#radial-gradient"/><radialGradient id="radial-gradient-33" cx="-435.08" cy="87.57" r="1.38" xlink:href="#radial-gradient"/></defs><path class="cls-1" d="M0 0h1137.11v717.76H0z"/><path class="cls-2" d="M554.97 108.9v31.63"/><path stroke-width=".8" stroke="#fff" fill="none" stroke-miterlimit="10" d="M94.01 238.27h974.98v430.38H94.01z"/><path class="cls-4" d="M514.36 465.47l9.34 12.14v-8.05h41.49v8.05q4.66-6.11 9.34-12.19l-9.34-12.14v8.05H523.7v-8.05z" transform="translate(-136.75 -20)"/><circle class="cls-5" cx="751.42" cy="444.85" r="2.97"/><circle class="cls-5" cx="762.64" cy="444.85" r="2.97"/><path class="cls-2" d="M401.3 299.72v-47.47c-.16-1-1.24-8.25 3.3-14.34a14.76 14.76 0 0 1 13-5.95h259.26a6.28 6.28 0 0 0 6.1-6.45V193M1044 300.09v-46.34a7.68 7.68 0 0 1 .08-1.06 17.28 17.28 0 0 0-4.08-14.09c-5.77-6.42-14.16-6.16-15.76-6H706.25a7.32 7.32 0 0 1-7.46-7.17V193m-8.28 0v107.11" transform="translate(-136.75 -20)"/><path class="cls-6" d="M147.2 292.26h216.64v265.75H147.2z"/><path class="cls-7" d="M513.09 300.45V647.6H271.47V300.45h241.62z" transform="translate(-136.75 -20)"/><path class="cls-8" d="M187.06 306.12h153.49v30.57H187.06zm0 201.48h153.49v35.09H187.06zm0-145.78h153.49v121.2H187.06z"/><path class="cls-9" d="M327.88 616.32H326v1.56h-.43v-3.51H328v.42h-2v1.12h1.91zm3.18-1.26a1.86 1.86 0 0 0-1-.32c-.51 0-.88.23-.88.61s.27.48.8.55h.3c.6.08 1.1.32 1.1.93s-.63 1.07-1.39 1.07a2.31 2.31 0 0 1-1.38-.46l.24-.35a1.9 1.9 0 0 0 1.14.39c.53 0 .94-.21.94-.61s-.3-.48-.84-.55h-.33c-.57-.07-1-.33-1-.93s.6-1.06 1.33-1.06a2.12 2.12 0 0 1 1.26.39z" transform="translate(-136.75 -20)"/><path class="cls-10" d="M340.65 618.35c-2.27 2.06-6.34 3.49-11.62 3.57-5.53.09-9.78-1.48-12.08-3.57v-9.6c2.54 1.91 6.58 2.7 11.65 2.76 5.28.06 9.47-.82 12-2.76z" transform="translate(-136.75 -20)"/><ellipse class="cls-10" cx="192.05" cy="588.06" rx="11.85" ry="3.44"/><path class="cls-9" d="M373.38 616.32h-1.9v1.56H371v-3.51h2.44v.42h-2v1.12h1.9zm3.18-1.26a1.83 1.83 0 0 0-1-.32c-.51 0-.87.23-.87.61s.26.48.79.55h.31c.59.08 1.1.32 1.1.93s-.64 1.07-1.39 1.07a2.32 2.32 0 0 1-1.39-.46l.25-.35a1.85 1.85 0 0 0 1.14.39c.52 0 .93-.21.93-.61s-.29-.48-.84-.55h-.32c-.58-.07-1-.33-1-.93s.6-1.06 1.34-1.06a2.15 2.15 0 0 1 1.26.39z" transform="translate(-136.75 -20)"/><path class="cls-10" d="M385.54 618.35c-2.27 2.06-6.35 3.49-11.63 3.57-5.52.09-9.78-1.48-12.08-3.57v-9.6c2.54 1.91 6.59 2.7 11.66 2.76 5.27.06 9.47-.82 12.05-2.76z" transform="translate(-136.75 -20)"/><ellipse class="cls-10" cx="236.93" cy="588.06" rx="11.85" ry="3.44"/><path class="cls-9" d="M418.24 616.32h-1.9v1.56h-.44v-3.51h2.44v.42h-2v1.12h1.9zm3.18-1.26a1.82 1.82 0 0 0-1-.32c-.52 0-.88.23-.88.61s.27.48.79.55h.31c.59.08 1.1.32 1.1.93s-.63 1.07-1.39 1.07a2.29 2.29 0 0 1-1.38-.46l.24-.35a1.85 1.85 0 0 0 1.14.39c.52 0 .93-.21.93-.61s-.29-.48-.84-.55h-.32c-.58-.07-1-.33-1-.93s.6-1.06 1.34-1.06a2.12 2.12 0 0 1 1.26.39z" transform="translate(-136.75 -20)"/><path class="cls-10" d="M430.4 618.35c-2.27 2.06-6.35 3.49-11.63 3.57-5.52.09-9.78-1.48-12.07-3.57v-9.6c2.54 1.91 6.58 2.7 11.65 2.76 5.27.06 9.47-.82 12-2.76z" transform="translate(-136.75 -20)"/><ellipse class="cls-10" cx="281.8" cy="588.06" rx="11.85" ry="3.44"/><path class="cls-9" d="M469.49 616.35h-1.9v1.56h-.44v-3.51h2.44v.42h-2v1.11h1.9zm3.18-1.26a1.82 1.82 0 0 0-1-.32c-.52 0-.88.23-.88.61s.27.48.79.54h.31c.59.07 1.1.31 1.1.93s-.63 1.07-1.39 1.07a2.29 2.29 0 0 1-1.38-.46l.24-.35a1.85 1.85 0 0 0 1.14.39c.52 0 .93-.21.93-.61s-.29-.48-.84-.55h-.32c-.58-.07-1-.34-1-.93s.6-1.06 1.34-1.06a2.12 2.12 0 0 1 1.26.39z" transform="translate(-136.75 -20)"/><path class="cls-10" d="M481.65 618.38c-2.27 2.06-6.34 3.49-11.63 3.57-5.52.09-9.78-1.48-12.07-3.57v-9.6c2.54 1.91 6.58 2.7 11.65 2.76 5.28.06 9.47-.82 12-2.76z" transform="translate(-136.75 -20)"/><ellipse class="cls-10" cx="333.05" cy="588.09" rx="11.85" ry="3.44"/><circle class="cls-11" cx="209.26" cy="593.95" r=".91"/><circle class="cls-11" cx="214.4" cy="593.95" r=".91"/><circle class="cls-11" cx="219.55" cy="593.95" r=".91"/><circle class="cls-11" cx="253.3" cy="593.95" r=".91"/><circle class="cls-11" cx="258.44" cy="593.95" r=".91"/><circle class="cls-11" cx="263.58" cy="593.95" r=".91"/><circle class="cls-11" cx="301.11" cy="593.95" r=".91"/><circle class="cls-11" cx="306.26" cy="593.95" r=".91"/><circle class="cls-11" cx="313.25" cy="593.95" r=".91"/><path class="cls-12" d="M469.79 584.54l-2.13 1.63h1.42v9.21h-1.42l2.14 1.62 2.14-1.63h-1.42v-9.21h1.42zm-51.25 0l-2.13 1.63h1.41v9.21h-1.41l2.14 1.63 2.14-1.63h-1.42v-9.21h1.42z" transform="translate(-136.75 -20)"/><path class="cls-13" d="M395.73 375.62v-11.79h1.45l-2.2-2.05-2.19 2.05h1.45v11.79zm9.64-13.84v11.79h-1.45l2.2 2.05 2.19-2.05h-1.45v-11.79zm-9.64 159.39v-11.79h1.45l-2.2-2.05-2.19 2.05h1.45v11.79zm9.64-13.84v11.78h-1.45l2.2 2.06 2.19-2.06h-1.45v-11.78z" transform="translate(-136.75 -20)"/><path class="cls-12" d="M375.82 584.54l-2.14 1.63h1.42v9.21h-1.42l2.15 1.63 2.13-1.63h-1.41v-9.21H378zm-45.35 0l-2.13 1.63h1.41v9.21h-1.41l2.14 1.63 2.14-1.63h-1.42v-9.21h1.42z" transform="translate(-136.75 -20)"/><path class="cls-14" d="M163.02 361.82h16.22v121.2h-16.22z"/><path class="cls-9" d="M305 474.36a2.76 2.76 0 1 1 5.51 0v2.1H305zm.65 1.41h4.2v-1.41a2.1 2.1 0 1 0-4.2 0zm-.2-6.26a.45.45 0 0 1 .45.46.44.44 0 0 1-.45.45.44.44 0 0 1-.45-.42.46.46 0 0 1 .45-.49zm5.06.14v.64h-3.74v-.64zm-2.91-3.88a2.31 2.31 0 0 0-.35 1.2c0 .51.22.84.56.84s.43-.27.49-.72l.05-.43c.11-.8.44-1.27 1.06-1.27s1.17.64 1.17 1.66a2.66 2.66 0 0 1-.48 1.57l-.48-.3a1.92 1.92 0 0 0 .4-1.27c0-.62-.2-1-.57-1s-.45.25-.51.76l-.05.43c-.1.84-.48 1.24-1.05 1.24s-1.15-.59-1.15-1.5a2.68 2.68 0 0 1 .41-1.49zm-.25-3.93v1.57h1.83c.56 0 .8-.3.8-.71a1.35 1.35 0 0 0-.25-.76l.49-.3a1.92 1.92 0 0 1 .36 1.12c0 .81-.44 1.29-1.39 1.29h-1.84v.8h-.58v-.8h-1.18v-.64h1.18v-1.57zm-.54-3.45l.63.16a1.53 1.53 0 0 0-.14.64 1 1 0 0 0 1.12 1h2.09v.64h-3.74v-.64h.49a1.3 1.3 0 0 1-.57-1.09 1.64 1.64 0 0 1 .12-.71zm-1.36-1.66a.45.45 0 0 1 .45.47.44.44 0 0 1-.45.45.45.45 0 0 1-.46-.45.46.46 0 0 1 .46-.47zm5.06.14v.64h-3.74v-.64zm-1.87-5.19a1.86 1.86 0 0 1 1.94 1.87 1.65 1.65 0 0 1-.57 1.32h.5v.64h-5.67v-.64h2.43a1.66 1.66 0 0 1-.58-1.32 1.87 1.87 0 0 1 1.95-1.87zm0 3.23a1.29 1.29 0 1 0-1.34-1.29 1.27 1.27 0 0 0 1.34 1.29zm.3-7.68a1.71 1.71 0 0 1 0 3.41h-2.17V450h2.11a1.06 1.06 0 1 0 0-2.12h-2.11v-.65zm-1.59-3.86v1.57h1.83c.56 0 .8-.3.8-.7a1.39 1.39 0 0 0-.25-.77l.49-.3a1.94 1.94 0 0 1 .36 1.12c0 .81-.44 1.3-1.39 1.3h-1.84v.79h-.58v-.79h-1.18v-.65h1.18v-1.57zm1.27-4.37h.25v3a1.22 1.22 0 0 0 1.13-1.3 1.79 1.79 0 0 0-.44-1.16l.44-.34a2.13 2.13 0 0 1 .56 1.53 1.95 1.95 0 0 1-3.89 0 1.78 1.78 0 0 1 1.95-1.73zm-.27 2.94v-2.29a1.12 1.12 0 0 0-1.09 1.12 1.16 1.16 0 0 0 1.09 1.23zm-1.08-6.94h-2.43v-.64h5.67v.64H310a1.67 1.67 0 0 1 .57 1.32 1.95 1.95 0 0 1-3.89 0 1.68 1.68 0 0 1 .59-1.32zm1.37 2.53a1.28 1.28 0 1 0-1.34-1.28 1.27 1.27 0 0 0 1.34 1.31zm1.87-10.53v3.85H305v-.69h4.85V427zm-1.87-4.53a2 2 0 1 1-1.95 2 1.91 1.91 0 0 1 1.95-2zm0 3.3a1.32 1.32 0 1 0-1.34-1.32 1.29 1.29 0 0 0 1.34 1.32zm-1.36-7.42l.44.41a1.38 1.38 0 0 0-.42 1 1.34 1.34 0 0 0 2.68 0 1.42 1.42 0 0 0-.43-1l.45-.4a1.82 1.82 0 0 1 .58 1.39 1.95 1.95 0 0 1-3.89 0 1.78 1.78 0 0 1 .59-1.4zm.98-1.63v-.51l-1.49-1.39V414l1.76 1.67 2-1.69v.81l-1.66 1.41v.51h1.66v.64h-5.67v-.64z" transform="translate(-136.75 -20)"/><path class="cls-1" d="M205.44 434h116.73v17.77H205.44zm0-39.93h116.73v17.77H205.44z"/><path class="cls-15" d="M393.73 420.72l-.6.4a2.06 2.06 0 0 0-1.73-.89 2.24 2.24 0 0 0 0 4.48 2 2 0 0 0 1.73-.89l.58.43a2.72 2.72 0 0 1-2.31 1.15 2.93 2.93 0 1 1 0-5.85 2.68 2.68 0 0 1 2.33 1.17zm4.75 4.59h-.67v-.51a1.7 1.7 0 0 1-1.36.6 2 2 0 0 1 0-4 1.67 1.67 0 0 1 1.36.6v-.52h.67zm-3.28-1.92a1.32 1.32 0 0 0 1.33 1.38 1.39 1.39 0 0 0 0-2.77 1.32 1.32 0 0 0-1.33 1.39zM403 422l-.42.45a1.43 1.43 0 0 0-1-.44 1.39 1.39 0 0 0 0 2.77 1.48 1.48 0 0 0 1-.44l.41.46a1.89 1.89 0 0 1-1.43.61 2 2 0 0 1 0-4 1.84 1.84 0 0 1 1.44.59zm1.7 0a1.63 1.63 0 0 1 2.87 1v2.39h-.67v-2.18a1 1 0 0 0-1.06-1.12 1.09 1.09 0 0 0-1.14 1.14v2.16h-.7v-5.84h.66zm7.67 1.37v.25h-3a1.26 1.26 0 0 0 1.31 1.2 1.84 1.84 0 0 0 1.19-.46l.35.45a2.19 2.19 0 0 1-1.58.59 2 2 0 0 1 0-4 1.83 1.83 0 0 1 1.73 1.97zm-3-.28h2.36a1.14 1.14 0 0 0-1.15-1.12 1.2 1.2 0 0 0-1.25 1.12z" transform="translate(-136.75 -20)"/><path class="cls-1" d="M205.44 414.03h116.73v17.77H205.44z"/><path class="cls-15" d="M380.16 440.69l-.59.4a2.05 2.05 0 0 0-1.73-.89 2.24 2.24 0 0 0 0 4.48 2 2 0 0 0 1.72-.89l.59.43a2.74 2.74 0 0 1-2.31 1.15 2.93 2.93 0 1 1 0-5.86 2.67 2.67 0 0 1 2.32 1.18zm4.84 2.66a2 2 0 1 1-2-2 2 2 0 0 1 2 2zm-3.4 0A1.36 1.36 0 1 0 383 442a1.33 1.33 0 0 0-1.36 1.35zm10.94-.46v2.39h-.67v-2.18a1 1 0 0 0-1.06-1.13 1.09 1.09 0 0 0-1.13 1.15v2.16H389v-2.18a1 1 0 0 0-1-1.1 1.1 1.1 0 0 0-1.14 1.15v2.16h-.66v-3.86h.66v.51a1.49 1.49 0 0 1 1.26-.59 1.52 1.52 0 0 1 1.42.78 1.57 1.57 0 0 1 1.44-.78 1.5 1.5 0 0 1 1.56 1.52zm5.31.46a1.93 1.93 0 0 1-1.93 2 1.67 1.67 0 0 1-1.36-.6v2.14h-.66v-5.48h.66v.52a1.7 1.7 0 0 1 1.36-.6 1.93 1.93 0 0 1 1.93 2.02zm-3.33 0a1.33 1.33 0 1 0 1.33-1.38 1.32 1.32 0 0 0-1.33 1.38zm6.93-1.88l-.16.65a1.45 1.45 0 0 0-.66-.15 1 1 0 0 0-1 1.16v2.15H399v-3.86h.66v.51a1.34 1.34 0 0 1 1.12-.59 1.73 1.73 0 0 1 .67.13zm4.19 1.87v.25h-3a1.26 1.26 0 0 0 1.32 1.19 1.79 1.79 0 0 0 1.19-.46l.35.46a2.22 2.22 0 0 1-1.58.58 2 2 0 0 1-.05-4 1.84 1.84 0 0 1 1.77 1.98zm-3-.29H405a1.15 1.15 0 0 0-1.15-1.12 1.2 1.2 0 0 0-1.25 1.12zm6.71-.77a2.4 2.4 0 0 0-1.24-.36c-.53 0-.87.23-.87.58s.28.45.74.5l.45.06c.82.11 1.3.45 1.3 1.09s-.65 1.21-1.71 1.21a2.77 2.77 0 0 1-1.62-.49l.31-.5a2 2 0 0 0 1.32.41c.63 0 1-.21 1-.59s-.25-.46-.77-.53l-.45-.05c-.87-.1-1.28-.49-1.28-1.08s.61-1.18 1.55-1.18a2.86 2.86 0 0 1 1.54.41zm4.03 0a2.34 2.34 0 0 0-1.24-.36c-.53 0-.87.23-.87.58s.28.45.75.5l.44.06c.83.11 1.31.45 1.31 1.09s-.66 1.21-1.71 1.21a2.73 2.73 0 0 1-1.62-.49l.3-.5a2 2 0 0 0 1.32.41c.64 0 1-.21 1-.59s-.26-.46-.78-.53l-.45-.05c-.86-.1-1.28-.49-1.28-1.08s.61-1.18 1.55-1.18a2.83 2.83 0 0 1 1.54.41zm2.24-2.21a.46.46 0 0 1-.48.46.45.45 0 0 1-.46-.46.46.46 0 0 1 .46-.48.47.47 0 0 1 .48.48zm-.14 5.21h-.66v-3.86h.66zm5.19-1.93a2 2 0 1 1-2-2 2 2 0 0 1 2 2zm-3.4 0a1.36 1.36 0 1 0 1.36-1.38 1.33 1.33 0 0 0-1.36 1.38zm8.04-.46v2.39h-.67v-2.18a1 1 0 0 0-1.06-1.13 1.1 1.1 0 0 0-1.14 1.15v2.16h-.66v-3.86h.66v.51a1.52 1.52 0 0 1 1.26-.59 1.5 1.5 0 0 1 1.61 1.55zm-41.73 22.36h-4v-5.69h4v.67h-3.28v1.82h3.18v.67h-3.18v1.86h3.32zm4.88-2.4v2.4h-.67v-2.18a1 1 0 0 0-1.05-1.13 1.09 1.09 0 0 0-1.15 1.14v2.17h-.66v-3.86h.66v.5a1.54 1.54 0 0 1 1.26-.58 1.5 1.5 0 0 1 1.61 1.54zm4.54-.93l-.42.45a1.39 1.39 0 0 0-1-.44 1.39 1.39 0 0 0 0 2.78 1.51 1.51 0 0 0 1-.45l.4.46a1.84 1.84 0 0 1-1.43.61 2 2 0 0 1 0-4 1.84 1.84 0 0 1 1.45.59zm3.47-.49l-.16.66a1.45 1.45 0 0 0-.66-.15 1 1 0 0 0-1 1.16v2.15H394v-3.86h.66v.51a1.34 1.34 0 0 1 1.13-.59 1.69 1.69 0 0 1 .68.12zm1.53 5.46h-.73l1.42-2.47-1.75-3h.74l1.39 2.37 1.32-2.37h.73zm7.86-3.57a1.93 1.93 0 0 1-1.93 2 1.7 1.7 0 0 1-1.36-.6v2.14h-.66v-5.48h.66v.51a1.69 1.69 0 0 1 1.36-.59 1.93 1.93 0 0 1 1.93 2.02zm-3.33 0a1.32 1.32 0 1 0 1.32-1.39 1.31 1.31 0 0 0-1.32 1.39zm7.01-1.32h-1.62v1.88c0 .58.31.84.73.84a1.46 1.46 0 0 0 .79-.26l.31.5a2 2 0 0 1-1.16.38c-.83 0-1.33-.46-1.33-1.44V462h-.83v-.6h.83v-1.21h.66v1.21h1.62zm1.87-2a.48.48 0 1 1-.48-.47.47.47 0 0 1 .48.47zm-.14 5.22h-.66v-3.86h.66zm5.19-1.9a2 2 0 1 1-2-2 2 2 0 0 1 2 2zm-3.4 0a1.36 1.36 0 1 0 1.36-1.39 1.33 1.33 0 0 0-1.36 1.39zm8.04-.47v2.4h-.67v-2.18a1 1 0 0 0-1.06-1.13 1.09 1.09 0 0 0-1.14 1.14v2.17h-.66v-3.86h.66v.5a1.63 1.63 0 0 1 2.87 1z" transform="translate(-136.75 -20)"/><path class="cls-1" d="M205.44 453.97h116.73v17.77H205.44z"/><path class="cls-15" d="M364.52 485.21h-4v-5.68h4v.67h-3.32v1.8h3.17v.68h-3.17v1.85h3.32zm3.84-3.81l-.17.65a1.6 1.6 0 0 0-.66-.15 1 1 0 0 0-1 1.16v2.15h-.66v-3.85h.65v.5a1.38 1.38 0 0 1 1.13-.59 1.73 1.73 0 0 1 .71.13zm4.41 3.81h-.67v-.51a1.69 1.69 0 0 1-1.36.59 2 2 0 0 1 0-4 1.7 1.7 0 0 1 1.36.6v-.51h.67zm-3.28-1.93a1.33 1.33 0 0 0 1.33 1.39 1.39 1.39 0 1 0-1.33-1.39zm7.28-1.07a2.43 2.43 0 0 0-1.24-.36c-.53 0-.87.23-.87.58s.28.45.75.5l.44.06c.82.11 1.31.46 1.31 1.09s-.66 1.21-1.71 1.21a2.78 2.78 0 0 1-1.63-.49l.31-.5a2 2 0 0 0 1.32.41c.63 0 1-.2 1-.59s-.25-.46-.77-.52l-.45-.06c-.86-.1-1.28-.49-1.28-1.08s.61-1.18 1.55-1.18a2.75 2.75 0 0 1 1.54.42zm4.92 1.39a1.76 1.76 0 0 1-3.52 0v-2.24h.66v2.18a1.1 1.1 0 1 0 2.19 0v-2.18h.67zm3.85-2.2l-.17.65a1.6 1.6 0 0 0-.66-.15 1 1 0 0 0-1 1.16v2.15h-.66v-3.85h.65v.5a1.38 1.38 0 0 1 1.13-.59 1.73 1.73 0 0 1 .71.13zm4.19 1.87a1.81 1.81 0 0 1 0 .25h-3a1.25 1.25 0 0 0 1.31 1.19 1.79 1.79 0 0 0 1.19-.46l.36.46a2.19 2.19 0 0 1-1.59.58 2 2 0 0 1 0-4 1.85 1.85 0 0 1 1.73 1.98zm-3-.29h2.36a1.16 1.16 0 0 0-1.15-1.12 1.2 1.2 0 0 0-1.25 1.14zm9.42-1.1l-.43.45a1.42 1.42 0 0 0-1-.43 1.39 1.39 0 0 0 0 2.77 1.5 1.5 0 0 0 1-.44l.41.46a1.88 1.88 0 0 1-1.43.6 2 2 0 0 1 0-4 1.88 1.88 0 0 1 1.45.59zm4.74 1.4a2 2 0 1 1-2.05-2 2 2 0 0 1 2.05 2zm-3.41 0a1.36 1.36 0 1 0 1.36-1.38 1.34 1.34 0 0 0-1.36 1.38zm7.52-1.41v-2.5h.67v5.84H405v-.51a1.69 1.69 0 0 1-1.36.59 2 2 0 0 1 0-4 1.7 1.7 0 0 1 1.36.58zm-2.61 1.41a1.33 1.33 0 0 0 1.33 1.39 1.39 1.39 0 1 0-1.33-1.39zm8.11-.01v.25h-3a1.25 1.25 0 0 0 1.31 1.19 1.79 1.79 0 0 0 1.19-.46l.35.46a2.18 2.18 0 0 1-1.58.58 2 2 0 0 1 0-4 1.84 1.84 0 0 1 1.73 1.98zm-3-.29h2.36a1.15 1.15 0 0 0-1.15-1.12 1.21 1.21 0 0 0-1.25 1.14zm4.04 3.02h-.73l3.45-7.06h.74zm8.55-6.47c1.2 0 2.07.42 2.07 1.51a1.28 1.28 0 0 1-.81 1.25 1.35 1.35 0 0 1 .94 1.34c0 1.1-.82 1.58-2.09 1.58h-2.31v-5.68zm-1.49.67v1.8h1.47c.75 0 1.34-.17 1.34-.91s-.6-.89-1.35-.89zm0 2.47v1.87h1.57c.82 0 1.37-.2 1.37-.94s-.55-.93-1.37-.93zm5.67-2.67a.46.46 0 0 1-.47.46.47.47 0 1 1 0-.93.46.46 0 0 1 .47.47zm-.13 5.21h-.67v-3.85h.67zm4.02-3.21h-1.62v1.88c0 .58.31.83.73.83a1.43 1.43 0 0 0 .78-.26l.32.5a1.94 1.94 0 0 1-1.16.38c-.84 0-1.34-.45-1.34-1.44V482h-.82v-.6h.82v-1.21h.67v1.21h1.62zm3.55-.6l-.16.65a1.67 1.67 0 0 0-.66-.15 1 1 0 0 0-1 1.16v2.15h-.66v-3.85h.65v.5a1.38 1.38 0 0 1 1.13-.59 1.73 1.73 0 0 1 .7.13zm4.54 1.88a2 2 0 1 1-2-2 2 2 0 0 1 2 2zm-3.4 0a1.36 1.36 0 1 0 1.36-1.38 1.33 1.33 0 0 0-1.36 1.38zm7.09-1.28h-1.62v1.88c0 .58.3.83.72.83a1.43 1.43 0 0 0 .79-.26l.31.5a1.89 1.89 0 0 1-1.15.38c-.84 0-1.34-.45-1.34-1.44V482h-.82v-.6h.82v-1.21h.67v1.21h1.62z" transform="translate(-136.75 -20)"/><path class="cls-16" d="M419.71 369.93a2.9 2.9 0 1 1-2.9-2.87 2.78 2.78 0 0 1 2.9 2.87zm-4.86 0a2 2 0 1 0 2-2 1.91 1.91 0 0 0-2 2zm9.85.87a1.89 1.89 0 0 1-1.89 2 1.46 1.46 0 0 1-1.19-.55v.45h-.82V367h.82v2.36a1.46 1.46 0 0 1 1.19-.55 1.89 1.89 0 0 1 1.89 1.99zm-3.13 0a1.14 1.14 0 1 0 1.14-1.21 1.13 1.13 0 0 0-1.14 1.21zm5 2.36a1.06 1.06 0 0 1-1.11 1.19 1.49 1.49 0 0 1-.57-.12l.2-.72a.77.77 0 0 0 .3.06c.2 0 .36-.13.36-.45v-4.21h.82zm.17-5.56a.58.58 0 0 1-.59.58.58.58 0 0 1 0-1.16.58.58 0 0 1 .59.58zm4.53 3.2a2.83 2.83 0 0 1 0 .3h-2.79a1.07 1.07 0 0 0 1.12 1 1.83 1.83 0 0 0 1.1-.4l.41.59a2.31 2.31 0 0 1-1.56.53 1.86 1.86 0 0 1-1.93-2 1.84 1.84 0 0 1 1.88-2 1.8 1.8 0 0 1 1.77 1.98zm-2.81-.32h2a1 1 0 0 0-1-.94 1 1 0 0 0-1 .94zm6.96-1.07l-.53.57a1.25 1.25 0 0 0-.91-.39 1.21 1.21 0 0 0 0 2.42 1.39 1.39 0 0 0 .93-.39l.51.57a1.84 1.84 0 0 1-1.41.6 2 2 0 0 1 0-4 1.79 1.79 0 0 1 1.41.62zm3.58.25h-1.45v1.65c0 .5.27.7.6.7a1.49 1.49 0 0 0 .76-.25l.33.66a2.05 2.05 0 0 1-1.16.37c-.86 0-1.36-.46-1.36-1.47v-1.66h-.75v-.75h.75v-1.15h.83v1.15H439zm7.93 3.03h-1l-.54-1.41h-2.51l-.54 1.41h-.93l2.18-5.53h1.12zm-3.68-2.25h1.85l-.92-2.39zm5.44.08v2.17h-.89v-5.53h2.14c1.28 0 2 .65 2 1.68s-.68 1.68-2 1.68zm0-2.52v1.68h1.23c.72 0 1.05-.27 1.05-.84s-.33-.84-1.05-.84zm5.23 4.69H453v-5.53h.9zM417.36 514.1a2.85 2.85 0 0 0-1.55-.47c-.73 0-1.23.32-1.23.82s.42.63 1.14.73l.38.06c.89.12 1.77.49 1.77 1.51s-1 1.73-2.2 1.73a3.57 3.57 0 0 1-2.21-.74l.48-.71a2.76 2.76 0 0 0 1.72.61c.72 0 1.29-.31 1.29-.81s-.43-.64-1.24-.75l-.43-.05c-.81-.12-1.63-.5-1.63-1.52s1-1.72 2.17-1.72a3.47 3.47 0 0 1 2 .59zm4.1 1.27H420V517c0 .51.27.7.6.7a1.53 1.53 0 0 0 .76-.25l.32.66a2 2 0 0 1-1.15.37c-.85 0-1.35-.46-1.35-1.46v-1.65h-.75v-.75h.75v-1.14h.82v1.14h1.44zm4.78 1.13a2 2 0 1 1-2-2 2 2 0 0 1 2 2zm-3.2 0a1.14 1.14 0 0 0 1.17 1.2 1.21 1.21 0 1 0-1.17-1.2zm6.75-1.87l-.2.81a1.44 1.44 0 0 0-.62-.14.9.9 0 0 0-.9 1v2.07h-.82v-3.76h.82v.39a1.26 1.26 0 0 1 1.09-.52 1.54 1.54 0 0 1 .63.15zm4.29 3.75h-.82v-.45a1.44 1.44 0 0 1-1.18.55 2 2 0 0 1 0-4 1.44 1.44 0 0 1 1.18.55v-.45h.82zm-3-1.88a1.14 1.14 0 1 0 1.13-1.21 1.12 1.12 0 0 0-1.21 1.21zm7.01-1.43v-.45h.82v3.5a1.82 1.82 0 0 1-2 1.91 2.89 2.89 0 0 1-1.57-.44l.3-.7a2.4 2.4 0 0 0 1.27.39 1.07 1.07 0 0 0 1.2-1.13v-.3a1.51 1.51 0 0 1-1.25.55 2 2 0 0 1 0-3.88 1.51 1.51 0 0 1 1.23.55zm-2.15 1.39a1.11 1.11 0 1 0 1.11-1.17 1.1 1.1 0 0 0-1.11 1.17zm7.64.04a2.83 2.83 0 0 1 0 .3h-2.78a1.06 1.06 0 0 0 1.12 1 1.78 1.78 0 0 0 1.09-.4l.41.59a2.29 2.29 0 0 1-1.55.53 1.85 1.85 0 0 1-1.92-2 1.83 1.83 0 0 1 1.87-2 1.8 1.8 0 0 1 1.76 1.98zm-2.79-.32h1.95a1 1 0 0 0-1-.93 1 1 0 0 0-.95.93zm10.73 2.2h-1L450 517h-2.49l-.54 1.4h-.92l2.17-5.5h1.11zm-3.66-2.24h1.83l-.91-2.37zm5.4.08v2.16h-.88v-5.5h2.13c1.27 0 1.95.64 1.95 1.67s-.68 1.67-1.95 1.67zm0-2.5v1.67h1.23c.71 0 1-.27 1-.84s-.33-.83-1-.83zm5.2 4.66h-.89v-5.5h.89z" transform="translate(-136.75 -20)"/><path class="cls-17" d="M377.94 635.87a1.67 1.67 0 0 1-1.73 1.83 1.85 1.85 0 0 1-1.54-.71l.42-.43a1.36 1.36 0 0 0 1.12.55c.67 0 1.11-.44 1.11-1.3v-3.14h.62zm3.3-3.2c1.05 0 1.81.37 1.81 1.32a1.11 1.11 0 0 1-.71 1.09 1.19 1.19 0 0 1 .82 1.17c0 1-.71 1.38-1.82 1.38h-2v-5zm-1.29.59v1.57h1.27c.66 0 1.18-.14 1.18-.79s-.53-.78-1.18-.78zm0 2.15v1.64h1.36c.72 0 1.19-.18 1.19-.83s-.47-.81-1.19-.81zm9.2-.26a2.57 2.57 0 1 1-2.57-2.55 2.48 2.48 0 0 1 2.57 2.55zm-4.48 0a1.92 1.92 0 1 0 1.91-1.95 1.86 1.86 0 0 0-1.91 1.95zm7.51-2.48a2.48 2.48 0 1 1 0 5h-1.89v-5zm-1.27.59V637h1.27a1.89 1.89 0 1 0 0-3.78zm4.65 5.08h-.64l3-6.16h.64zm6.97-2.91h-2.7v2.2h-.62v-5h3.46v.59h-2.84v1.58h2.7z" transform="translate(-136.75 -20)"/><path class="cls-13" d="M399.82 338.27a4.5 4.5 0 0 0-2.54-.79c-1.26 0-2.15.56-2.15 1.48s.65 1.18 1.94 1.34l.75.09c1.45.18 2.69.77 2.69 2.28 0 1.71-1.54 2.6-3.4 2.6a5.57 5.57 0 0 1-3.38-1.11l.59-.86a4.59 4.59 0 0 0 2.79.95c1.28 0 2.28-.52 2.28-1.49 0-.8-.71-1.17-2.05-1.34l-.79-.1c-1.42-.17-2.54-.82-2.54-2.29 0-1.65 1.47-2.58 3.27-2.58a5.25 5.25 0 0 1 3.09.94zm7.58.56a2 2 0 0 1-1.29 2 2.12 2.12 0 0 1 1.49 2c0 1.64-1.45 2.43-3 2.43a3.65 3.65 0 0 1-2.83-1.15l.67-.7a3 3 0 0 0 2.13.88c1 0 1.91-.48 1.91-1.5s-.91-1.5-2-1.5h-1.11v-.95h1.11c1 0 1.83-.49 1.83-1.47s-.81-1.46-1.84-1.46a2.27 2.27 0 0 0-1.85 1l-.75-.63a3.07 3.07 0 0 1 2.67-1.3c1.72-.03 2.86.94 2.86 2.35z" transform="translate(-136.75 -20)"/><path class="cls-17" d="M373.45 557.54h-.57l2.67-5.46h.56zm7.71-2.48v1.85h-.51v-1.69a.77.77 0 0 0-.82-.87.85.85 0 0 0-.88.89v1.67h-.51v-1.69a.78.78 0 0 0-.82-.87.85.85 0 0 0-.88.89v1.67h-.52v-3h.51v.39a1.18 1.18 0 0 1 1-.46 1.32 1.32 0 0 0 2.21 0 1.16 1.16 0 0 1 1.22 1.22zm3.84 0v1.85h-.51v-1.69a.77.77 0 0 0-.82-.87.85.85 0 0 0-.88.89v1.67h-.52v-3h.51v.39a1.18 1.18 0 0 1 1-.46 1.16 1.16 0 0 1 1.22 1.22zm3-.67h-1.25v1.46c0 .45.24.64.56.64a1.08 1.08 0 0 0 .61-.2l.24.39a1.5 1.5 0 0 1-.89.29c-.65 0-1-.35-1-1.11v-1.47h-.64v-.46h.64V553h.51v.94H388zm.86 3.15h-.57l2.67-5.46h.56zm4.37-.63h-.61l-1.25-3h.56l1 2.46 1-2.46h.55zm4.77-1.49a1.58 1.58 0 1 1-1.58-1.56 1.53 1.53 0 0 1 1.58 1.56zm-2.63 0a1.05 1.05 0 1 0 1.05-1.07 1 1 0 0 0-1.05 1.07zm4.01 1.49h-.52v-4.52h.52zm3.77-1.25a1.36 1.36 0 0 1-2.72 0v-1.73h.57v1.68a.85.85 0 1 0 1.69 0v-1.68h.51zm6-.6v1.85h-.51v-1.69a.77.77 0 0 0-.82-.87.85.85 0 0 0-.88.89v1.67h-.52v-1.69a.77.77 0 0 0-.81-.87.86.86 0 0 0-.89.89v1.67h-.51v-3h.51v.39a1.17 1.17 0 0 1 1-.46 1.32 1.32 0 0 0 2.21 0 1.16 1.16 0 0 1 1.22 1.22zm3.72.35v.19h-2.34a1 1 0 0 0 1 .92 1.38 1.38 0 0 0 .92-.35l.27.35a1.66 1.66 0 0 1-1.22.45 1.56 1.56 0 0 1 0-3.11 1.43 1.43 0 0 1 1.37 1.55zm-2.35-.22h1.83a.9.9 0 0 0-.89-.87.93.93 0 0 0-.94.87zm4.94-2.19a.62.62 0 0 0-.68.72v.4a.92.92 0 0 1-.65 1 .94.94 0 0 1 .65 1v.4a.62.62 0 0 0 .68.71h.18v.48h-.18a1.09 1.09 0 0 1-1.21-1.25v-.4a.64.64 0 0 0-.71-.72v-.48a.63.63 0 0 0 .71-.71v-.4a1.1 1.1 0 0 1 1.21-1.26h.18v.51zm2.36 3.91h-.53v-3.68l-1.26.54v-.55l1.79-.76zm1.91-.37a.43.43 0 1 1-.43-.43.44.44 0 0 1 .43.43zm1.65 0a.43.43 0 1 1-.43-.43.44.44 0 0 1 .43.43zm3.67-1.48v1.85h-.52v-1.69a.77.77 0 0 0-.82-.87.85.85 0 0 0-.88.89v1.67h-.51v-3h.51v.39a1.25 1.25 0 0 1 2.22.74zm.95 2.19a.61.61 0 0 0 .68-.71v-.4a.92.92 0 0 1 .64-1 .91.91 0 0 1-.64-1v-.4a.62.62 0 0 0-.68-.74h-.18v-.48h.18a1.1 1.1 0 0 1 1.21 1.26v.4a.62.62 0 0 0 .7.71v.48a.63.63 0 0 0-.7.72v.4a1.09 1.09 0 0 1-1.21 1.25h-.18v-.48z" transform="translate(-136.75 -20)"/><path class="cls-13" d="M255.11 270.71c3.56 0 5.84 2.16 5.84 5.52s-2.28 5.51-5.84 5.51h-4.21v-11zm-2.82 1.29v8.4h2.82c2.89 0 4.39-1.7 4.39-4.2s-1.5-4.2-4.39-4.2zm12.53-.37a.9.9 0 0 1-.93.9.88.88 0 0 1-.9-.9.89.89 0 0 1 .9-.92.91.91 0 0 1 .93.92zm-.27 10.11h-1.29v-7.48h1.29zm7.76-5.82a4.66 4.66 0 0 0-2.41-.69c-1 0-1.68.43-1.68 1.11s.54.87 1.45 1l.86.11c1.6.22 2.53.89 2.53 2.12 0 1.43-1.27 2.35-3.31 2.35a5.35 5.35 0 0 1-3.15-1l.59-1a3.93 3.93 0 0 0 2.56.79c1.23 0 2-.4 2-1.14 0-.55-.49-.9-1.5-1l-.87-.1c-1.68-.21-2.49-1-2.49-2.1 0-1.43 1.19-2.3 3-2.3a5.35 5.35 0 0 1 3 .81zm7.87-.49H277v3.65c0 1.13.6 1.61 1.41 1.61a2.82 2.82 0 0 0 1.53-.5l.61 1a3.78 3.78 0 0 1-2.25.74c-1.62 0-2.59-.89-2.59-2.8v-3.67h-1.6v-1.17h1.6v-2.35H277v2.35h3.14zm6.9-1.08l-.32 1.26a3 3 0 0 0-1.28-.29 2 2 0 0 0-2 2.26v4.16h-1.28v-7.48h1.27v1a2.64 2.64 0 0 1 2.19-1.14 3.25 3.25 0 0 1 1.42.23zm3.32-2.72a.92.92 0 1 1-.92-.92.91.91 0 0 1 .92.92zm-.27 10.11h-1.28v-7.48h1.28zm10.39-3.74a3.74 3.74 0 0 1-3.74 3.9 3.31 3.31 0 0 1-2.64-1.16v1h-1.28V270.4h1.28v4.86a3.31 3.31 0 0 1 2.64-1.16 3.74 3.74 0 0 1 3.74 3.9zm-6.45 0a2.57 2.57 0 1 0 2.56-2.69 2.54 2.54 0 0 0-2.56 2.69zm15.36.61a3.41 3.41 0 0 1-6.82 0v-4.35h1.29v4.23a2.12 2.12 0 1 0 4.24 0v-4.23h1.29zm7.73-3.18H314v3.65c0 1.13.6 1.61 1.41 1.61a2.82 2.82 0 0 0 1.53-.5l.6 1a3.73 3.73 0 0 1-2.24.74c-1.62 0-2.59-.89-2.59-2.8v-3.67h-1.6v-1.17h1.6v-2.35H314v2.35h3.14zm8.72 2.57v.48H320a2.43 2.43 0 0 0 2.54 2.31 3.54 3.54 0 0 0 2.31-.89l.68.89a4.28 4.28 0 0 1-3.07 1.13 3.9 3.9 0 0 1-.08-7.8c2.02-.02 3.49 1.56 3.5 3.88zm-5.89-.56h4.58a2.24 2.24 0 0 0-2.23-2.18 2.33 2.33 0 0 0-2.34 2.16zm13.87-2.17v-4.87h1.29v11.34h-1.29v-1a3.34 3.34 0 0 1-2.64 1.16 3.9 3.9 0 0 1 0-7.8 3.31 3.31 0 0 1 2.64 1.17zm-5.07 2.73a2.56 2.56 0 0 0 2.58 2.69 2.69 2.69 0 1 0-2.58-2.69zm25.13 3.74h-1.39v-9.49l-3.69 8.3h-1.47l-3.69-8.24v9.43h-1.39v-11h2.12l3.7 8.23 3.69-8.23h2.12zm4.49-10.11a.92.92 0 1 1-.92-.92.91.91 0 0 1 .92.92zm-.27 10.11h-1.28v-7.48h1.28zm9.57-4.65v4.65h-1.29v-4.23a1.94 1.94 0 0 0-2.05-2.19 2.13 2.13 0 0 0-2.22 2.22v4.2h-1.28v-7.48h1.27v1a3 3 0 0 1 2.45-1.14 2.9 2.9 0 0 1 3.12 2.97zm4.29 4.65h-1.38v-11H372zm13.9-5.51a5.72 5.72 0 1 1-5.72-5.68 5.51 5.51 0 0 1 5.72 5.68zm-10 0a4.27 4.27 0 1 0 4.26-4.35 4.15 4.15 0 0 0-4.24 4.35z" transform="translate(-136.75 -20)"/><path class="cls-18" d="M381 665.45h-1.23l-4.71-6.1v6.1h-1.37V657h1.23l4.72 6.11V657H381zm7.92-2.88a3.11 3.11 0 1 1-3.11-3 3 3 0 0 1 3.11 3zm-4.92 0a1.82 1.82 0 1 0 1.81-1.85 1.77 1.77 0 0 0-1.81 1.85zm10.77-2.19v-3.61H396v8.68h-1.26v-.69a2.19 2.19 0 0 1-1.81.84 3 3 0 0 1 0-6.07 2.17 2.17 0 0 1 1.84.85zm-3.41 2.19a1.75 1.75 0 1 0 1.75-1.85 1.73 1.73 0 0 0-1.75 1.85zm11.84-.01v.47h-4.27a1.62 1.62 0 0 0 1.71 1.47 2.74 2.74 0 0 0 1.67-.61l.63.9a3.47 3.47 0 0 1-2.37.81 3 3 0 0 1-.08-6.07 2.76 2.76 0 0 1 2.71 3.03zm-4.29-.49h3a1.46 1.46 0 0 0-1.47-1.42 1.49 1.49 0 0 0-1.53 1.42zm11.94 3.38h-1.31v-6.67l-2.15.92v-1.36l3.46-1.46z" transform="translate(-136.75 -20)"/><path class="cls-6" d="M450.27 292.64h216.64v265.75H450.27z"/><path class="cls-7" d="M816.15 300.84V648H574.53V300.84h241.62z" transform="translate(-136.75 -20)"/><path class="cls-8" d="M490.12 306.51h153.49v30.57H490.12zm0 201.48h153.49v35.09H490.12zm0-145.78h153.49v121.2H490.12z"/><path class="cls-9" d="M630.94 616.71H629v1.55h-.44v-3.5H631v.42h-2v1.11h1.9zm3.18-1.26a1.82 1.82 0 0 0-1-.32c-.52 0-.88.23-.88.61s.27.48.79.54h.31c.59.07 1.1.31 1.1.93s-.63 1.06-1.39 1.06a2.28 2.28 0 0 1-1.38-.45l.24-.35a1.85 1.85 0 0 0 1.14.39c.52 0 .93-.22.93-.61s-.29-.48-.84-.55h-.32c-.58-.07-1-.34-1-.93s.6-1.06 1.34-1.06a2.19 2.19 0 0 1 1.26.38z" transform="translate(-136.75 -20)"/><path class="cls-10" d="M643.72 618.74c-2.27 2.06-6.35 3.49-11.63 3.57-5.52.09-9.78-1.49-12.08-3.57v-9.6c2.54 1.91 6.59 2.69 11.66 2.75 5.27.07 9.47-.81 12.05-2.75z" transform="translate(-136.75 -20)"/><ellipse class="cls-10" cx="495.11" cy="588.45" rx="11.85" ry="3.44"/><path class="cls-9" d="M676.45 616.71h-1.91v1.55h-.44v-3.5h2.45v.42h-2v1.11h1.91zm3.18-1.26a1.88 1.88 0 0 0-1-.32c-.52 0-.88.23-.88.61s.27.48.79.54h.31c.59.07 1.1.31 1.1.93s-.63 1.06-1.39 1.06a2.28 2.28 0 0 1-1.38-.45l.24-.35a1.85 1.85 0 0 0 1.14.39c.52 0 .93-.22.93-.61s-.29-.48-.83-.55h-.33c-.58-.07-1-.34-1-.93s.6-1.06 1.34-1.06a2.19 2.19 0 0 1 1.26.38z" transform="translate(-136.75 -20)"/><path class="cls-10" d="M688.6 618.74c-2.27 2.06-6.35 3.49-11.63 3.57-5.52.09-9.78-1.49-12.07-3.57v-9.6c2.54 1.91 6.58 2.69 11.65 2.75 5.27.07 9.47-.81 12.05-2.75z" transform="translate(-136.75 -20)"/><ellipse class="cls-10" cx="540" cy="588.45" rx="11.85" ry="3.44"/><path class="cls-9" d="M721.31 616.71h-1.91v1.55h-.4v-3.5h2.45v.42h-2v1.11h1.91zm3.18-1.26a1.86 1.86 0 0 0-1-.32c-.51 0-.88.23-.88.61s.27.48.8.54h.3c.6.07 1.1.31 1.1.93s-.63 1.06-1.39 1.06a2.3 2.3 0 0 1-1.38-.45l.24-.35a1.9 1.9 0 0 0 1.14.39c.53 0 .94-.22.94-.61s-.3-.48-.84-.55h-.33c-.58-.07-1-.34-1-.93s.6-1.06 1.34-1.06a2.19 2.19 0 0 1 1.26.38z" transform="translate(-136.75 -20)"/><path class="cls-10" d="M733.46 618.74c-2.26 2.06-6.34 3.49-11.62 3.57-5.53.09-9.78-1.49-12.08-3.57v-9.6c2.54 1.91 6.58 2.69 11.65 2.75 5.28.07 9.47-.81 12.05-2.75z" transform="translate(-136.75 -20)"/><ellipse class="cls-10" cx="584.86" cy="588.45" rx="11.85" ry="3.44"/><path class="cls-9" d="M772.56 616.74h-1.9v1.55h-.44v-3.5h2.44v.42h-2v1.11h1.9zm3.18-1.26a1.86 1.86 0 0 0-1-.32c-.51 0-.88.23-.88.61s.27.48.8.54h.3c.6.07 1.1.31 1.1.93s-.63 1.06-1.39 1.06a2.3 2.3 0 0 1-1.38-.45l.24-.35a1.9 1.9 0 0 0 1.14.38c.53 0 .94-.21.94-.6s-.3-.48-.84-.55h-.33c-.57-.07-1-.34-1-.94s.6-1 1.33-1a2.19 2.19 0 0 1 1.26.38z" transform="translate(-136.75 -20)"/><path class="cls-10" d="M784.71 618.77c-2.26 2.06-6.34 3.49-11.62 3.57-5.53.09-9.78-1.49-12.08-3.57v-9.6c2.54 1.91 6.58 2.69 11.66 2.75 5.27.06 9.46-.81 12-2.75z" transform="translate(-136.75 -20)"/><ellipse class="cls-10" cx="636.11" cy="588.48" rx="11.85" ry="3.44"/><circle class="cls-11" cx="512.32" cy="594.11" r=".91"/><circle class="cls-11" cx="517.47" cy="594.23" r=".91"/><circle class="cls-11" cx="522.61" cy="594.34" r=".91"/><circle class="cls-11" cx="556.36" cy="593.54" r=".91"/><circle class="cls-11" cx="561.51" cy="593.66" r=".91"/><circle class="cls-11" cx="566.65" cy="593.77" r=".91"/><circle class="cls-11" cx="604.18" cy="593.88" r=".91"/><circle class="cls-11" cx="609.32" cy="594" r=".91"/><circle class="cls-11" cx="616.31" cy="593.43" r=".91"/><path class="cls-12" d="M772.86 584.93l-2.13 1.62h1.41v9.22h-1.41l2.14 1.62 2.13-1.62h-1.41v-9.22H775zm-51.25 0l-2.14 1.62h1.42v9.22h-1.42l2.15 1.62 2.13-1.62h-1.41v-9.22h1.41z" transform="translate(-136.75 -20)"/><path class="cls-13" d="M698.79 376v-11.78h1.45l-2.19-2.06-2.19 2.06h1.45V376zm9.65-13.84V374H707l2.2 2.05 2.19-2.05h-1.45v-11.84zm-9.65 159.39v-11.78h1.45l-2.19-2.06-2.19 2.06h1.45v11.78zm9.65-13.84v11.79H707l2.2 2 2.19-2h-1.45v-11.79z" transform="translate(-136.75 -20)"/><path class="cls-12" d="M678.88 584.93l-2.13 1.62h1.41v9.22h-1.41l2.14 1.62 2.13-1.62h-1.41v-9.22H681zm-45.34 0l-2.14 1.62h1.42v9.22h-1.42l2.15 1.62 2.13-1.62h-1.42v-9.22h1.42z" transform="translate(-136.75 -20)"/><path class="cls-14" d="M466.08 362.21h16.22v121.2h-16.22z"/><path class="cls-9" d="M608.06 474.75a2.76 2.76 0 1 1 5.51 0v2.1h-5.51zm.66 1.4h4.19v-1.4a2.1 2.1 0 1 0-4.19 0zm-.2-6.25a.45.45 0 0 1 .45.46.46.46 0 0 1-.91 0 .45.45 0 0 1 .46-.46zm5.05.13v.64h-3.74V470zm-2.91-3.88a2.39 2.39 0 0 0-.34 1.21c0 .51.21.84.55.84s.44-.27.49-.72l.06-.44c.1-.79.44-1.26 1.06-1.26s1.17.64 1.17 1.66a2.66 2.66 0 0 1-.48 1.57l-.48-.3a1.93 1.93 0 0 0 .4-1.28c0-.61-.2-1-.57-1s-.45.25-.52.75v.44c-.1.83-.48 1.24-1 1.24-.72 0-1.15-.6-1.15-1.5a2.74 2.74 0 0 1 .4-1.5zm-.24-3.93v1.57h1.82c.56 0 .81-.3.81-.7a1.41 1.41 0 0 0-.25-.76l.48-.31a1.88 1.88 0 0 1 .37 1.12c0 .81-.45 1.3-1.4 1.3h-1.83v.8h-.59v-.8h-1.17v-.65h1.17v-1.57zm-.54-3.44l.63.16a1.4 1.4 0 0 0-.15.64 1 1 0 0 0 1.13 1h2.08v.64h-3.74v-.63h.49a1.33 1.33 0 0 1-.57-1.09 1.63 1.63 0 0 1 .13-.72zm-1.36-1.66a.46.46 0 0 1 .45.46.46.46 0 1 1-.91 0 .46.46 0 0 1 .46-.46zm5.05.14v.64h-3.74v-.64zm-1.87-5.19a1.87 1.87 0 0 1 1.95 1.87 1.63 1.63 0 0 1-.58 1.31h.5v.64h-5.67v-.64h2.43a1.63 1.63 0 0 1-.58-1.31 1.87 1.87 0 0 1 1.95-1.87zm0 3.22a1.28 1.28 0 1 0-1.34-1.28 1.27 1.27 0 0 0 1.34 1.28zm.3-7.67a1.71 1.71 0 0 1 0 3.41h-2.17v-.65h2.11a1.06 1.06 0 1 0 0-2.12h-2.11v-.64zm-1.58-3.86v1.57h1.82c.56 0 .81-.3.81-.71a1.43 1.43 0 0 0-.25-.76l.48-.3a1.85 1.85 0 0 1 .37 1.12c0 .81-.45 1.29-1.4 1.29h-1.83v.8h-.59V446h-1.17v-.64h1.17v-1.57zm1.27-4.36h.24v2.94a1.22 1.22 0 0 0 1.16-1.27 1.75 1.75 0 0 0-.45-1.15l.44-.34a2.13 2.13 0 0 1 .57 1.53 2 2 0 0 1-3.9 0 1.79 1.79 0 0 1 1.94-1.71zm-.28 3v-2.29a1.12 1.12 0 0 0-1.09 1.11 1.17 1.17 0 0 0 1.09 1.13zm-1.07-6.98h-2.44v-.64h5.67v.64h-.5a1.66 1.66 0 0 1 .58 1.32 2 2 0 0 1-3.9 0 1.64 1.64 0 0 1 .59-1.32zm1.36 2.58a1.29 1.29 0 1 0-1.34-1.28 1.27 1.27 0 0 0 1.34 1.28zm1.87-10.64v3.85h-5.51v-.69h4.85v-3.16zm-1.87-4.5a2 2 0 1 1-2 2 1.92 1.92 0 0 1 2-2zm0 3.3a1.32 1.32 0 1 0-1.34-1.32 1.3 1.3 0 0 0 1.34 1.32zm-1.36-7.42l.44.41a1.38 1.38 0 0 0-.42 1 1.35 1.35 0 0 0 2.69 0 1.44 1.44 0 0 0-.43-1l.44-.4a1.82 1.82 0 0 1 .59 1.39 2 2 0 0 1-3.9 0 1.81 1.81 0 0 1 .59-1.4zm.99-1.63v-.51l-1.5-1.39v-.81l1.76 1.67 2-1.7v.82l-1.66 1.41v.51h1.66v.64h-5.69v-.64z" transform="translate(-136.75 -20)"/><path class="cls-16" d="M722.77 370.31a2.9 2.9 0 1 1-2.9-2.86 2.78 2.78 0 0 1 2.9 2.86zm-4.85 0a2 2 0 1 0 2-2 1.9 1.9 0 0 0-2 2zm9.85.88a1.91 1.91 0 0 1-1.9 2 1.44 1.44 0 0 1-1.18-.55v.45h-.83v-5.69h.83v2.36a1.41 1.41 0 0 1 1.18-.55 1.9 1.9 0 0 1 1.9 1.98zm-3.14 0a1.15 1.15 0 1 0 1.14-1.22 1.13 1.13 0 0 0-1.14 1.22zm5.01 2.35a1.06 1.06 0 0 1-1.11 1.19 1.48 1.48 0 0 1-.57-.11l.19-.72a.77.77 0 0 0 .3.06c.2 0 .36-.13.36-.45v-4.21h.83zm.16-5.55a.57.57 0 0 1-.58.58.57.57 0 0 1-.58-.58.58.58 0 0 1 .58-.59.58.58 0 0 1 .58.6zm4.53 3.19a3 3 0 0 1 0 .31h-2.8a1.07 1.07 0 0 0 1.13 1 1.84 1.84 0 0 0 1.09-.39l.41.58a2.25 2.25 0 0 1-1.55.54 1.87 1.87 0 0 1-1.94-2 1.84 1.84 0 0 1 1.88-2 1.8 1.8 0 0 1 1.78 1.96zm-2.8-.32h2a1 1 0 0 0-1-.93 1 1 0 0 0-1 .93zm6.96-1.06l-.53.57a1.29 1.29 0 0 0-.91-.4 1.22 1.22 0 0 0 0 2.43 1.37 1.37 0 0 0 .93-.4l.51.57a1.84 1.84 0 0 1-1.42.61 2 2 0 0 1 0-4 1.81 1.81 0 0 1 1.42.62zm3.51.25h-1.45v1.64c0 .51.27.71.6.71a1.57 1.57 0 0 0 .76-.26l.33.66a2 2 0 0 1-1.16.38c-.86 0-1.36-.46-1.36-1.47v-1.66H739v-.75h.76v-1.15h.83v1.15H742zm8 3.03h-1l-.55-1.41H746l-.55 1.41h-.93l2.19-5.53h1.11zm-3.68-2.26h1.84l-.92-2.38zm5.43.09v2.17h-.89v-5.53H753c1.27 0 2 .64 2 1.68s-.69 1.68-2 1.68zm0-2.52v1.68H753c.73 0 1.06-.27 1.06-.84s-.33-.84-1.06-.84zm5.25 4.69h-.89v-5.53h.89zM720.42 514.1a2.84 2.84 0 0 0-1.54-.47c-.74 0-1.24.32-1.24.82s.43.63 1.14.73l.38.06c.9.12 1.77.49 1.77 1.51s-1 1.73-2.2 1.73a3.59 3.59 0 0 1-2.21-.74l.48-.74a2.71 2.71 0 0 0 1.72.61c.72 0 1.28-.31 1.28-.81s-.43-.64-1.23-.75l-.43-.05c-.82-.12-1.63-.5-1.63-1.52s1-1.72 2.17-1.72a3.41 3.41 0 0 1 2 .59zm4.11 1.26h-1.44V517c0 .51.26.7.59.7a1.49 1.49 0 0 0 .76-.25l.33.66a2.08 2.08 0 0 1-1.16.37c-.85 0-1.35-.46-1.35-1.46v-1.66h-.75v-.74h.75v-1.14h.83v1.14h1.44zm4.77 1.14a2 2 0 1 1-2-2 2 2 0 0 1 2 2zm-3.2 0a1.18 1.18 0 1 0 1.18-1.21 1.15 1.15 0 0 0-1.18 1.21zm6.75-1.87l-.19.81a1.52 1.52 0 0 0-.63-.14.89.89 0 0 0-.89 1v2.07h-.82v-3.76h.81v.39a1.27 1.27 0 0 1 1.09-.52 1.51 1.51 0 0 1 .63.15zm4.29 3.75h-.82v-.45a1.44 1.44 0 0 1-1.18.55 2 2 0 0 1 0-4 1.44 1.44 0 0 1 1.18.55v-.45h.82zm-3-1.88a1.13 1.13 0 1 0 1.13-1.21 1.12 1.12 0 0 0-1.16 1.21zm7.01-1.43v-.45h.85v3.5a1.82 1.82 0 0 1-2 1.91 2.92 2.92 0 0 1-1.58-.44l.3-.7a2.41 2.41 0 0 0 1.28.39 1.06 1.06 0 0 0 1.19-1.13v-.3a1.5 1.5 0 0 1-1.25.55 2 2 0 0 1 0-3.88 1.5 1.5 0 0 1 1.21.55zm-2.15 1.39a1.11 1.11 0 1 0 1.11-1.17 1.1 1.1 0 0 0-1.11 1.17zm7.64.04v.3h-2.78a1.06 1.06 0 0 0 1.12 1 1.78 1.78 0 0 0 1.08-.4l.41.59a2.29 2.29 0 0 1-1.55.53 1.86 1.86 0 0 1-1.92-2 1.84 1.84 0 0 1 1.87-2 1.79 1.79 0 0 1 1.77 1.98zm-2.79-.32h1.95a1 1 0 0 0-.95-.93 1 1 0 0 0-1 .93zm10.73 2.2h-1l-.54-1.4h-2.44l-.55 1.4h-.92l2.17-5.5h1.11zm-3.66-2.24h1.84l-.92-2.37zm5.41.08v2.16h-.89v-5.5h2.13c1.27 0 1.95.64 1.95 1.67s-.68 1.67-1.95 1.67zm0-2.5v1.66h1.22c.72 0 1.05-.26 1.05-.83s-.33-.83-1.05-.83zm5.19 4.66h-.88v-5.5h.88z" transform="translate(-136.75 -20)"/><path class="cls-17" d="M684.61 636.26a1.66 1.66 0 0 1-1.72 1.83 1.89 1.89 0 0 1-1.55-.71l.42-.43a1.35 1.35 0 0 0 1.12.54c.67 0 1.11-.43 1.11-1.29v-3.14h.62zm3.31-3.2c1 0 1.8.36 1.8 1.32a1.11 1.11 0 0 1-.71 1.09 1.19 1.19 0 0 1 .82 1.17c0 1-.71 1.38-1.82 1.38h-2v-5zm-1.3.58v1.58h1.28c.65 0 1.17-.15 1.17-.8s-.52-.78-1.18-.78zm0 2.16v1.64H688c.71 0 1.19-.18 1.19-.83s-.48-.81-1.19-.81zm9.21-.26a2.57 2.57 0 1 1-2.57-2.55 2.48 2.48 0 0 1 2.57 2.55zm-4.49 0a1.92 1.92 0 1 0 1.92-2 1.87 1.87 0 0 0-1.92 2zm7.51-2.48a2.48 2.48 0 1 1 0 5H697v-5zm-1.26.59v3.78h1.26a1.89 1.89 0 1 0 0-3.78zm4.64 5.08h-.64l3-6.17h.64zm6.97-2.91h-2.7V638h-.62v-5h3.46v.59h-2.84v1.58h2.7z" transform="translate(-136.75 -20)"/><path class="cls-13" d="M702.88 338.65a4.5 4.5 0 0 0-2.54-.79c-1.26 0-2.15.57-2.15 1.49s.66 1.18 1.94 1.34l.75.09c1.46.18 2.7.76 2.7 2.28 0 1.7-1.55 2.6-3.41 2.6a5.53 5.53 0 0 1-3.38-1.12l.59-.85a4.61 4.61 0 0 0 2.79.95c1.28 0 2.29-.52 2.29-1.49 0-.8-.72-1.18-2.05-1.34l-.8-.1c-1.41-.17-2.54-.83-2.54-2.29 0-1.65 1.47-2.58 3.28-2.58a5.22 5.22 0 0 1 3.08.94zm7.59.57a2.06 2.06 0 0 1-1.3 2 2.1 2.1 0 0 1 1.49 2c0 1.64-1.44 2.43-3 2.43a3.61 3.61 0 0 1-2.82-1.15l.66-.7a3 3 0 0 0 2.14.88c1 0 1.9-.48 1.9-1.5s-.91-1.5-2-1.5h-1.1v-.95h1.1c1 0 1.83-.49 1.83-1.47s-.8-1.46-1.84-1.46a2.25 2.25 0 0 0-1.84 1l-.75-.63a3.07 3.07 0 0 1 2.66-1.3c1.72-.03 2.87.93 2.87 2.35z" transform="translate(-136.75 -20)"/><path class="cls-17" d="M676.68 557.54h-.57l2.67-5.46h.56zm7.71-2.48v1.85h-.51v-1.69a.77.77 0 0 0-.82-.87.85.85 0 0 0-.88.89v1.67h-.51v-1.69a.77.77 0 0 0-.82-.87.85.85 0 0 0-.88.89v1.67h-.52v-3h.55v.39a1.18 1.18 0 0 1 1-.46 1.2 1.2 0 0 1 1.1.6 1.22 1.22 0 0 1 1.11-.6 1.16 1.16 0 0 1 1.18 1.22zm3.79 0v1.85h-.51v-1.69a.77.77 0 0 0-.82-.87.85.85 0 0 0-.88.89v1.67h-.51v-3h.5v.39a1.18 1.18 0 0 1 1-.46 1.16 1.16 0 0 1 1.22 1.22zm3.04-.67H690v1.46c0 .45.24.64.56.64a1.08 1.08 0 0 0 .61-.2l.24.39a1.5 1.5 0 0 1-.89.29c-.65 0-1-.35-1-1.11v-1.47h-.64v-.46h.64V553h.48v.94h1.25zm.87 3.15h-.56l2.66-5.46h.57zm4.37-.63h-.61l-1.25-3h.56l1 2.46 1-2.46h.55zm4.77-1.49a1.58 1.58 0 1 1-1.58-1.56 1.53 1.53 0 0 1 1.58 1.56zm-2.63 0a1.05 1.05 0 1 0 1-1.07 1 1 0 0 0-1 1.07zm4.01 1.49h-.52v-4.52h.52zm3.77-1.25a1.36 1.36 0 0 1-2.72 0v-1.73h.52v1.68a.85.85 0 1 0 1.69 0v-1.68h.51zm6-.6v1.85h-.51v-1.69a.77.77 0 0 0-.82-.87.85.85 0 0 0-.88.89v1.67h-.52v-1.69a.77.77 0 0 0-.81-.87.86.86 0 0 0-.89.89v1.67h-.51v-3h.56v.39a1.18 1.18 0 0 1 1-.46 1.32 1.32 0 0 0 2.21 0 1.16 1.16 0 0 1 1.17 1.22zm3.72.35a1.21 1.21 0 0 1 0 .19h-2.34a1 1 0 0 0 1 .92 1.38 1.38 0 0 0 .92-.35l.27.35a1.71 1.71 0 0 1-1.22.45 1.56 1.56 0 0 1 0-3.11 1.43 1.43 0 0 1 1.37 1.55zm-2.35-.22h1.83a.9.9 0 0 0-.89-.87.93.93 0 0 0-.94.87zm4.94-2.19a.62.62 0 0 0-.68.72v.4a.92.92 0 0 1-.65 1 .94.94 0 0 1 .65 1v.4a.62.62 0 0 0 .68.71h.18v.48h-.18a1.09 1.09 0 0 1-1.21-1.25v-.4a.64.64 0 0 0-.71-.72v-.48a.63.63 0 0 0 .71-.71v-.4a1.09 1.09 0 0 1 1.21-1.25h.18v.5zm2.37 3.91h-.54v-3.68l-1.25.54v-.55l1.79-.76zm1.94-.37a.43.43 0 1 1-.43-.43.44.44 0 0 1 .43.43zm1.61 0a.43.43 0 1 1-.43-.43.44.44 0 0 1 .43.43zm3.67-1.48v1.85h-.52v-1.69a.77.77 0 0 0-.82-.87.85.85 0 0 0-.88.89v1.67h-.51v-3h.51v.39a1.25 1.25 0 0 1 2.22.74zm.94 2.19a.61.61 0 0 0 .68-.71v-.4a.93.93 0 0 1 .64-1 .91.91 0 0 1-.64-1v-.4a.62.62 0 0 0-.68-.72H729v-.47h.18a1.09 1.09 0 0 1 1.21 1.25v.4a.62.62 0 0 0 .7.71v.48a.63.63 0 0 0-.7.72v.4a1.09 1.09 0 0 1-1.21 1.25H729v-.48z" transform="translate(-136.75 -20)"/><path class="cls-18" d="M684.05 665.84h-1.23l-4.7-6.11v6.11h-1.36v-8.44H678l4.71 6.11v-6.11h1.36zM692 663a3.11 3.11 0 1 1-3.11-3 3 3 0 0 1 3.11 3zm-4.92 0a1.81 1.81 0 1 0 1.81-1.85 1.77 1.77 0 0 0-1.82 1.85zm10.75-2.23v-3.61h1.27v8.68h-1.27v-.69a2.17 2.17 0 0 1-1.83.85 3 3 0 0 1 0-6.08 2.16 2.16 0 0 1 1.83.85zm-3.4 2.18a1.74 1.74 0 1 0 1.74-1.85 1.73 1.73 0 0 0-1.74 1.9zm11.83.05v.47H702a1.64 1.64 0 0 0 1.72 1.47 2.77 2.77 0 0 0 1.67-.61l.63.9a3.52 3.52 0 0 1-2.38.81 3 3 0 0 1-.08-6.08 2.76 2.76 0 0 1 2.7 3.04zm-4.28-.49h3a1.46 1.46 0 0 0-1.46-1.42 1.48 1.48 0 0 0-1.52 1.37zm8.59-3.84a3.15 3.15 0 0 1 2.69-1.41 2.59 2.59 0 0 1 2.8 2.71 3.44 3.44 0 0 1-1.12 2.36l-2.12 2.27h3.47v1.24h-5.4v-1l3.05-3.25a2.31 2.31 0 0 0 .75-1.61 1.38 1.38 0 0 0-1.46-1.46 2.08 2.08 0 0 0-1.73.94z" transform="translate(-136.75 -20)"/><path class="cls-6" d="M805.03 292.64h216.64v265.75H805.03z"/><path class="cls-7" d="M1170.91 300.84V648H929.3V300.84h241.61z" transform="translate(-136.75 -20)"/><path class="cls-8" d="M844.88 306.51h153.49v30.57H844.88z"/><path fill="#1b4e60" d="M844.88 507.99h153.49v35.09H844.88z"/><path class="cls-8" d="M844.88 362.21h153.49v121.2H844.88z"/><path class="cls-9" d="M985.71 616.71h-1.91v1.55h-.44v-3.5h2.45v.42h-2v1.11h1.91zm3.18-1.26a1.88 1.88 0 0 0-1-.32c-.51 0-.88.23-.88.61s.27.48.79.54h.31c.59.07 1.1.31 1.1.93s-.63 1.06-1.39 1.06a2.28 2.28 0 0 1-1.38-.45l.24-.35a1.88 1.88 0 0 0 1.14.39c.52 0 .93-.22.93-.61s-.29-.48-.83-.55h-.33c-.58-.07-1-.34-1-.93s.6-1.06 1.34-1.06a2.19 2.19 0 0 1 1.26.38z" transform="translate(-136.75 -20)"/><path class="cls-10" d="M998.48 618.74c-2.27 2.06-6.35 3.49-11.63 3.57-5.52.09-9.78-1.49-12.07-3.57v-9.6c2.54 1.91 6.58 2.69 11.65 2.75 5.27.07 9.47-.81 12.05-2.75z" transform="translate(-136.75 -20)"/><ellipse class="cls-10" cx="849.88" cy="588.45" rx="11.85" ry="3.44"/><path class="cls-9" d="M1031.21 616.71h-1.9v1.55h-.45v-3.5h2.45v.42h-2v1.11h1.9zm3.18-1.26a1.86 1.86 0 0 0-1-.32c-.51 0-.88.23-.88.61s.27.48.8.54h.3c.6.07 1.1.31 1.1.93s-.63 1.06-1.39 1.06a2.3 2.3 0 0 1-1.38-.45l.24-.35a1.9 1.9 0 0 0 1.14.39c.53 0 .94-.22.94-.61s-.3-.48-.84-.55h-.33c-.57-.07-1-.34-1-.93s.6-1.06 1.33-1.06a2.19 2.19 0 0 1 1.26.38z" transform="translate(-136.75 -20)"/><path class="cls-10" d="M1043.36 618.74c-2.26 2.06-6.34 3.49-11.62 3.57-5.53.09-9.78-1.49-12.08-3.57v-9.6c2.54 1.91 6.58 2.69 11.65 2.75 5.28.07 9.47-.81 12-2.75z" transform="translate(-136.75 -20)"/><ellipse class="cls-10" cx="894.76" cy="588.45" rx="11.85" ry="3.44"/><path class="cls-9" d="M1076.07 616.71h-1.9v1.55h-.44v-3.5h2.44v.42h-2v1.11h1.9zm3.18-1.26a1.83 1.83 0 0 0-1-.32c-.51 0-.87.23-.87.61s.26.48.79.54h.31c.59.07 1.1.31 1.1.93s-.64 1.06-1.39 1.06a2.26 2.26 0 0 1-1.38-.45l.24-.35a1.85 1.85 0 0 0 1.14.39c.52 0 .93-.22.93-.61s-.29-.48-.84-.55h-.32c-.58-.07-1-.34-1-.93s.6-1.06 1.34-1.06a2.21 2.21 0 0 1 1.26.38z" transform="translate(-136.75 -20)"/><path class="cls-10" d="M1088.23 618.74c-2.27 2.06-6.35 3.49-11.63 3.57-5.52.09-9.78-1.49-12.08-3.57v-9.6c2.54 1.91 6.59 2.69 11.66 2.75 5.27.07 9.47-.81 12-2.75z" transform="translate(-136.75 -20)"/><ellipse class="cls-10" cx="939.62" cy="588.45" rx="11.85" ry="3.44"/><path class="cls-9" d="M1127.32 616.74h-1.9v1.55h-.42v-3.5h2.44v.42h-2v1.11h1.9zm3.18-1.26a1.82 1.82 0 0 0-1-.32c-.52 0-.88.23-.88.61s.26.48.79.54h.31c.59.07 1.1.31 1.1.93s-.63 1.06-1.39 1.06a2.26 2.26 0 0 1-1.38-.45l.24-.35a1.85 1.85 0 0 0 1.14.39c.52 0 .93-.22.93-.61s-.29-.48-.84-.55h-.32c-.58-.07-1-.34-1-.94s.6-1 1.34-1a2.19 2.19 0 0 1 1.26.38z" transform="translate(-136.75 -20)"/><path class="cls-10" d="M1139.48 618.77c-2.27 2.06-6.35 3.49-11.63 3.57-5.52.09-9.78-1.49-12.07-3.57v-9.6c2.53 1.91 6.58 2.69 11.65 2.75 5.27.07 9.47-.81 12-2.75z" transform="translate(-136.75 -20)"/><ellipse class="cls-10" cx="990.88" cy="588.48" rx="11.85" ry="3.44"/><circle class="cls-11" cx="867.09" cy="594.11" r=".91"/><circle class="cls-11" cx="872.23" cy="594.23" r=".91"/><circle class="cls-11" cx="877.37" cy="594.34" r=".91"/><circle class="cls-11" cx="911.13" cy="593.54" r=".91"/><circle class="cls-11" cx="916.27" cy="593.66" r=".91"/><circle class="cls-11" cx="921.41" cy="593.77" r=".91"/><circle class="cls-11" cx="958.94" cy="593.88" r=".91"/><circle class="cls-11" cx="964.08" cy="594" r=".91"/><circle class="cls-11" cx="971.07" cy="593.43" r=".91"/><path class="cls-12" d="M1127.62 584.93l-2.13 1.62h1.41v9.22h-1.41l2.14 1.62 2.13-1.62h-1.41v-9.22h1.41zm-51.25 0l-2.13 1.62h1.41v9.22h-1.41l2.14 1.62 2.13-1.62h-1.41v-9.22h1.41z" transform="translate(-136.75 -20)"/><path class="cls-13" d="M1053.56 376v-11.78h1.44l-2.2-2.06-2.19 2.06h1.45V376zm9.64-13.84V374h-1.45l2.25 2 2.19-2.05h-1.45v-11.79zm-9.64 159.39v-11.78h1.44l-2.2-2.06-2.19 2.06h1.45v11.78zm9.64-13.84v11.79h-1.45l2.2 2 2.19-2h-1.45v-11.79z" transform="translate(-136.75 -20)"/><path class="cls-12" d="M1033.65 584.93l-2.14 1.62h1.42v9.22h-1.42l2.14 1.62 2.14-1.62h-1.42v-9.22h1.42zm-45.35 0l-2.13 1.62h1.41v9.22h-1.41l2.14 1.62 2.13-1.62H989v-9.22h1.41z" transform="translate(-136.75 -20)"/><path class="cls-14" d="M820.85 362.21h16.22v121.2h-16.22z"/><path class="cls-9" d="M962.82 474.75a2.76 2.76 0 1 1 5.51 0v2.1h-5.51zm.66 1.4h4.2v-1.4a2.1 2.1 0 1 0-4.2 0zm-.2-6.25a.44.44 0 0 1 .45.46.44.44 0 0 1-.45.45.44.44 0 0 1-.46-.45.45.45 0 0 1 .46-.46zm5.05.13v.65h-3.73V470zm-2.9-3.88a2.29 2.29 0 0 0-.35 1.21c0 .51.22.84.55.84s.44-.27.5-.72v-.44c.11-.79.44-1.26 1.06-1.26s1.17.64 1.17 1.66a2.66 2.66 0 0 1-.48 1.57l-.48-.3a1.93 1.93 0 0 0 .4-1.28c0-.61-.2-1-.57-1s-.45.25-.51.75v.44c-.11.83-.48 1.24-1.05 1.24s-1.15-.59-1.15-1.5a2.74 2.74 0 0 1 .41-1.5zm-.25-3.93v1.57H967c.57 0 .81-.29.81-.7a1.41 1.41 0 0 0-.25-.76l.44-.33a1.88 1.88 0 0 1 .37 1.12c0 .82-.44 1.3-1.39 1.3h-1.84v.8h-.58v-.8h-1.18v-.65h1.18v-1.57zm-.54-3.44l.63.16a1.53 1.53 0 0 0-.14.64 1 1 0 0 0 1.12 1h2.08v.64h-3.73v-.63h.49a1.3 1.3 0 0 1-.57-1.09 1.64 1.64 0 0 1 .12-.72zm-1.36-1.66a.45.45 0 0 1 .45.46.44.44 0 0 1-.45.46.45.45 0 0 1-.46-.46.46.46 0 0 1 .46-.46zm5.05.14v.64h-3.73v-.64zm-1.87-5.19a1.87 1.87 0 0 1 1.95 1.87 1.63 1.63 0 0 1-.58 1.31h.5v.65h-5.66v-.65h2.43a1.6 1.6 0 0 1-.58-1.31 1.86 1.86 0 0 1 1.94-1.87zm0 3.22a1.28 1.28 0 1 0-1.34-1.28 1.27 1.27 0 0 0 1.34 1.28zm.31-7.67a1.71 1.71 0 0 1 0 3.41h-2.17v-.65h2.11a1.06 1.06 0 1 0 0-2.12h-2.11v-.64zm-1.59-3.86v1.57H967c.57 0 .81-.3.81-.71a1.43 1.43 0 0 0-.25-.76l.48-.3a1.85 1.85 0 0 1 .37 1.12c0 .81-.44 1.29-1.39 1.29h-1.84v.8h-.58V446h-1.18v-.64h1.18v-1.57zm1.27-4.36h.24v2.94a1.21 1.21 0 0 0 1.16-1.27 1.75 1.75 0 0 0-.45-1.15l.45-.34a2.12 2.12 0 0 1 .56 1.53 1.95 1.95 0 0 1-3.89 0 1.78 1.78 0 0 1 1.93-1.71zm-.28 3v-2.29a1.11 1.11 0 0 0-1.08 1.11 1.16 1.16 0 0 0 1.08 1.13zm-1.07-6.98h-2.43v-.64h5.66v.64h-.5a1.66 1.66 0 0 1 .58 1.32 1.95 1.95 0 0 1-3.89 0 1.63 1.63 0 0 1 .58-1.32zm1.36 2.53a1.29 1.29 0 1 0-1.34-1.28 1.28 1.28 0 0 0 1.34 1.33zm1.87-10.59v3.85h-5.51v-.69h4.86v-3.16zm-1.87-4.5a2 2 0 1 1-1.94 2 1.92 1.92 0 0 1 1.94-2zm0 3.3a1.32 1.32 0 1 0-1.34-1.32 1.3 1.3 0 0 0 1.34 1.32zm-1.35-7.42l.43.41a1.42 1.42 0 0 0-.42 1 1.35 1.35 0 0 0 2.69 0 1.44 1.44 0 0 0-.43-1l.45-.4a1.82 1.82 0 0 1 .58 1.39 1.95 1.95 0 0 1-3.89 0 1.78 1.78 0 0 1 .59-1.4zm.98-1.63v-.51l-1.49-1.39v-.81l1.76 1.67 2-1.7v.82l-1.66 1.41v.51h1.66v.64h-5.66v-.64z" transform="translate(-136.75 -20)"/><path class="cls-16" d="M1077.53 370.31a2.9 2.9 0 1 1-2.89-2.86 2.77 2.77 0 0 1 2.89 2.86zm-4.85 0a2 2 0 1 0 2-2 1.9 1.9 0 0 0-2 2zm9.85.88a1.9 1.9 0 0 1-1.89 2 1.45 1.45 0 0 1-1.19-.55v.45h-.82v-5.69h.82v2.36a1.42 1.42 0 0 1 1.19-.55 1.89 1.89 0 0 1 1.89 1.98zm-3.13 0a1.14 1.14 0 1 0 1.14-1.22 1.13 1.13 0 0 0-1.14 1.22zm5 2.35a1.06 1.06 0 0 1-1.11 1.19 1.48 1.48 0 0 1-.57-.11l.19-.72a.85.85 0 0 0 .31.06c.2 0 .35-.13.35-.45v-4.21h.83zm.16-5.55a.58.58 0 0 1-1.16 0 .58.58 0 1 1 1.16 0zm4.54 3.19a2.85 2.85 0 0 1 0 .31h-2.79a1.06 1.06 0 0 0 1.12 1 1.84 1.84 0 0 0 1.09-.39l.42.58a2.29 2.29 0 0 1-1.56.54 1.87 1.87 0 0 1-1.94-2 1.84 1.84 0 0 1 1.89-2 1.8 1.8 0 0 1 1.77 1.96zm-2.81-.32h2a1 1 0 0 0-1-.93 1 1 0 0 0-1 .93zm6.96-1.06l-.53.57a1.26 1.26 0 0 0-.91-.4 1.22 1.22 0 0 0 0 2.43 1.35 1.35 0 0 0 .93-.4l.51.57a1.82 1.82 0 0 1-1.41.61 2 2 0 1 1 0-4 1.81 1.81 0 0 1 1.41.62zm3.54.25h-1.45v1.64c0 .51.27.71.6.71a1.51 1.51 0 0 0 .76-.26l.33.66a2 2 0 0 1-1.16.38c-.86 0-1.36-.46-1.36-1.47v-1.66h-.75v-.75h.75v-1.15h.83v1.15h1.45zm7.97 3.03h-1l-.55-1.41h-2.5l-.54 1.41h-.93l2.18-5.53h1.12zm-3.68-2.26h1.85l-.93-2.38zm5.44.09v2.17h-.89v-5.53h2.14c1.28 0 2 .64 2 1.68s-.68 1.68-2 1.68zm0-2.52v1.68h1.23c.72 0 1-.27 1-.84s-.33-.84-1-.84zm5.22 4.69h-.89v-5.53h.89zm-36.56 141.02a2.79 2.79 0 0 0-1.54-.47c-.73 0-1.23.32-1.23.82s.42.63 1.14.73l.38.06c.89.12 1.77.49 1.77 1.51s-1 1.73-2.2 1.73a3.57 3.57 0 0 1-2.21-.74l.48-.71a2.76 2.76 0 0 0 1.72.61c.72 0 1.29-.31 1.29-.81s-.44-.64-1.24-.75l-.43-.05c-.81-.12-1.63-.5-1.63-1.52s1-1.72 2.17-1.72a3.47 3.47 0 0 1 2 .59zm4.11 1.26h-1.44V517c0 .51.27.7.6.7a1.56 1.56 0 0 0 .76-.25l.32.66a2 2 0 0 1-1.15.37c-.85 0-1.35-.46-1.35-1.46v-1.66h-.75v-.74h.75v-1.14h.82v1.14h1.44zm4.78 1.14a2 2 0 1 1-2-2 2 2 0 0 1 2 2zm-3.21 0a1.18 1.18 0 1 0 1.18-1.21 1.15 1.15 0 0 0-1.18 1.21zm6.76-1.87l-.2.81a1.44 1.44 0 0 0-.62-.14.89.89 0 0 0-.9 1v2.07h-.82v-3.76h.81v.39a1.29 1.29 0 0 1 1.1-.52 1.54 1.54 0 0 1 .63.15zm4.29 3.75h-.82v-.45a1.44 1.44 0 0 1-1.18.55 2 2 0 0 1 0-4 1.44 1.44 0 0 1 1.18.55v-.45h.82zm-3-1.88a1.14 1.14 0 1 0 1.13-1.21 1.12 1.12 0 0 0-1.17 1.21zm7.01-1.43v-.45h.82v3.5a1.82 1.82 0 0 1-2 1.91 2.89 2.89 0 0 1-1.57-.44l.3-.7a2.37 2.37 0 0 0 1.27.39 1.07 1.07 0 0 0 1.2-1.13v-.3a1.53 1.53 0 0 1-1.26.55 2 2 0 0 1 0-3.88 1.53 1.53 0 0 1 1.24.55zm-2.16 1.39a1.12 1.12 0 1 0 1.12-1.17 1.11 1.11 0 0 0-1.12 1.17zm7.65.04a2.83 2.83 0 0 1 0 .3h-2.78a1.06 1.06 0 0 0 1.12 1 1.78 1.78 0 0 0 1.09-.4l.4.59a2.24 2.24 0 0 1-1.54.53 1.86 1.86 0 0 1-1.93-2 1.84 1.84 0 0 1 1.88-2 1.8 1.8 0 0 1 1.76 1.98zm-2.8-.32h2a1 1 0 0 0-1-.93 1 1 0 0 0-1 .93zm10.73 2.2h-.95l-.54-1.4h-2.49l-.54 1.4h-.92l2.17-5.5h1.1zm-3.65-2.24h1.83l-.92-2.37zm5.4.08v2.16h-.89v-5.5h2.14c1.26 0 1.94.64 1.94 1.67s-.68 1.67-1.94 1.67zm0-2.5v1.66h1.22c.72 0 1-.26 1-.83s-.33-.83-1-.83zm5.2 4.66h-.89v-5.5h.89z" transform="translate(-136.75 -20)"/><path class="cls-17" d="M1039.38 636.26a1.67 1.67 0 0 1-1.73 1.83 1.89 1.89 0 0 1-1.55-.71l.42-.43a1.36 1.36 0 0 0 1.13.54c.66 0 1.1-.43 1.1-1.29v-3.14h.63zm3.3-3.2c1 0 1.81.37 1.81 1.32a1.12 1.12 0 0 1-.71 1.09 1.19 1.19 0 0 1 .82 1.17c0 1-.72 1.38-1.82 1.38h-2v-5zm-1.3.59v1.57h1.28c.66 0 1.17-.15 1.17-.8s-.52-.77-1.18-.77zm0 2.15v1.64h1.37c.71 0 1.19-.18 1.19-.83s-.48-.81-1.19-.81zm9.21-.26A2.57 2.57 0 1 1 1048 633a2.48 2.48 0 0 1 2.59 2.54zm-4.49 0a1.92 1.92 0 1 0 1.92-2 1.87 1.87 0 0 0-1.92 2zm7.52-2.48a2.48 2.48 0 1 1 0 5h-1.89v-5zm-1.27.59v3.78h1.27a1.89 1.89 0 1 0 0-3.78zm4.65 5.08h-.63l3-6.17h.64zm7-2.91h-2.69V638h-.63v-5h3.46v.59h-2.83v1.58h2.69z" transform="translate(-136.75 -20)"/><path class="cls-13" d="M1057.64 338.65a4.45 4.45 0 0 0-2.54-.79c-1.25 0-2.15.57-2.15 1.49s.66 1.18 1.94 1.34l.76.09c1.45.18 2.69.76 2.69 2.28 0 1.71-1.55 2.6-3.4 2.6a5.49 5.49 0 0 1-3.38-1.12l.59-.85a4.59 4.59 0 0 0 2.79.95c1.28 0 2.28-.52 2.28-1.49 0-.8-.71-1.18-2-1.34l-.8-.1c-1.41-.17-2.54-.83-2.54-2.29 0-1.65 1.47-2.58 3.28-2.58a5.25 5.25 0 0 1 3.09.94zm7.59.57a2.05 2.05 0 0 1-1.3 2 2.11 2.11 0 0 1 1.5 2c0 1.64-1.45 2.43-3 2.43a3.64 3.64 0 0 1-2.82-1.15l.66-.7a3 3 0 0 0 2.14.88c1 0 1.9-.48 1.9-1.5s-.9-1.5-2-1.5h-1.1v-.95h1.1c1 0 1.83-.49 1.83-1.47s-.8-1.46-1.83-1.46a2.27 2.27 0 0 0-1.85 1l-.75-.63a3.07 3.07 0 0 1 2.66-1.3c1.72-.03 2.86.93 2.86 2.35z" transform="translate(-136.75 -20)"/><path class="cls-17" d="M1031.28 557.54h-.57l2.67-5.46h.56zm7.72-2.48v1.85h-.51v-1.69a.77.77 0 0 0-.82-.87.84.84 0 0 0-.88.89v1.67h-.52v-1.69a.77.77 0 0 0-.82-.87.85.85 0 0 0-.88.89v1.67h-.51v-3h.51v.39a1.17 1.17 0 0 1 1-.46 1.32 1.32 0 0 0 2.21 0 1.16 1.16 0 0 1 1.22 1.22zm3.78 0v1.85h-.52v-1.69a.77.77 0 0 0-.81-.87.86.86 0 0 0-.89.89v1.67h-.51v-3h.51v.39a1.18 1.18 0 0 1 1-.46 1.16 1.16 0 0 1 1.22 1.22zm3.04-.67h-1.25v1.46c0 .45.24.64.56.64a1.08 1.08 0 0 0 .61-.2l.24.39a1.55 1.55 0 0 1-.89.29c-.65 0-1-.35-1-1.11v-1.47h-.64v-.46h.64V553h.51v.94h1.25zm.87 3.15h-.57l2.67-5.46h.56zm4.36-.63h-.6l-1.25-3h.55l1 2.46 1-2.46h.54zm4.78-1.49a1.58 1.58 0 1 1-1.58-1.56 1.53 1.53 0 0 1 1.58 1.56zm-2.63 0a1.05 1.05 0 1 0 1-1.07 1 1 0 0 0-1 1.07zm4 1.49h-.51v-4.52h.51zm3.8-1.25a1.36 1.36 0 0 1-2.72 0v-1.73h.51v1.68a.85.85 0 1 0 1.7 0v-1.68h.51zm6-.6v1.85h-.51v-1.69a.78.78 0 0 0-.82-.87.84.84 0 0 0-.88.89v1.67h-.52v-1.69a.77.77 0 0 0-.82-.87.85.85 0 0 0-.88.89v1.67h-.57v-3h.51v.39a1.16 1.16 0 0 1 1-.46 1.33 1.33 0 0 0 2.22 0 1.16 1.16 0 0 1 1.27 1.22zm3.7.35v.19h-2.34a1 1 0 0 0 1 .92 1.4 1.4 0 0 0 .92-.35l.27.35a1.71 1.71 0 0 1-1.22.45 1.56 1.56 0 0 1 0-3.11 1.43 1.43 0 0 1 1.37 1.55zm-2.35-.22h1.82a.88.88 0 0 0-.88-.87.93.93 0 0 0-.94.87zm4.94-2.19a.62.62 0 0 0-.68.72v.4a.91.91 0 0 1-.64 1 .92.92 0 0 1 .64 1v.4a.62.62 0 0 0 .68.71h.18v.48h-.18a1.09 1.09 0 0 1-1.21-1.25v-.4a.63.63 0 0 0-.7-.72v-.48a.62.62 0 0 0 .7-.71v-.4a1.09 1.09 0 0 1 1.21-1.25h.18v.5zm2.36 3.91h-.53v-3.68l-1.26.54v-.55l1.79-.76zm1.91-.37a.43.43 0 1 1-.43-.43.44.44 0 0 1 .43.43zm1.65 0a.43.43 0 1 1-.43-.43.44.44 0 0 1 .43.43zm3.66-1.48v1.85h-.51v-1.69a.77.77 0 0 0-.82-.87.85.85 0 0 0-.88.89v1.67h-.51v-3h.5v.39a1.19 1.19 0 0 1 1-.46 1.16 1.16 0 0 1 1.22 1.22zm.95 2.19a.61.61 0 0 0 .68-.71v-.4a.92.92 0 0 1 .64-1 .91.91 0 0 1-.64-1v-.4a.62.62 0 0 0-.68-.72h-.18v-.47h.18a1.09 1.09 0 0 1 1.21 1.25v.4a.62.62 0 0 0 .7.71v.48a.63.63 0 0 0-.7.72v.4a1.09 1.09 0 0 1-1.21 1.25h-.18v-.48z" transform="translate(-136.75 -20)"/><path class="cls-18" d="M1037.67 665.84h-1.23l-4.71-6.11v6.11h-1.36v-8.44h1.23l4.72 6.11v-6.11h1.36zm7.93-2.84a3.11 3.11 0 1 1-3.11-3 3 3 0 0 1 3.11 3zm-4.92 0a1.82 1.82 0 1 0 1.81-1.85 1.77 1.77 0 0 0-1.81 1.85zm10.77-2.23v-3.61h1.26v8.68h-1.26v-.69a2.19 2.19 0 0 1-1.81.84 3 3 0 0 1 0-6.08 2.18 2.18 0 0 1 1.81.86zM1048 663a1.75 1.75 0 1 0 1.75-1.85A1.74 1.74 0 0 0 1048 663zm11.88 0a3.59 3.59 0 0 1 0 .47h-4.26a1.62 1.62 0 0 0 1.71 1.47 2.74 2.74 0 0 0 1.67-.61l.63.9a3.47 3.47 0 0 1-2.37.81 3 3 0 0 1-.08-6.08 2.77 2.77 0 0 1 2.7 3.04zm-4.29-.49h3a1.46 1.46 0 0 0-1.47-1.42 1.49 1.49 0 0 0-1.53 1.37zm14.48-.3v3.63h-1.27v-3.21c0-1-.5-1.52-1.34-1.52a1.43 1.43 0 0 0-1.5 1.53v3.2h-1.27v-5.77h1.31v.7a2 2 0 0 1 1.77-.86 2.23 2.23 0 0 1 2.3 2.3z" transform="translate(-136.75 -20)"/><path class="cls-20" d="M531.35 452.2h-.87v-5.35h.87zm4.75-2.3v2.3h-.8v-2c0-.61-.32-1-.85-1a.91.91 0 0 0-1 1v2h-.8v-3.66h.79v.46a1.31 1.31 0 0 1 1.13-.54 1.41 1.41 0 0 1 1.53 1.44zm3.67-.64h-1.4v1.6c0 .49.26.68.58.68a1.46 1.46 0 0 0 .74-.25l.31.64a1.94 1.94 0 0 1-1.12.36c-.83 0-1.31-.44-1.31-1.42v-1.61h-.73v-.72h.73v-1.11h.8v1.11h1.4zm4.23 1.1a2.81 2.81 0 0 1 0 .3h-2.71a1 1 0 0 0 1.09.93 1.74 1.74 0 0 0 1.06-.38l.4.57a2.22 2.22 0 0 1-1.51.51 1.93 1.93 0 0 1-.05-3.85 1.74 1.74 0 0 1 1.72 1.92zm-2.71-.31h1.9a.93.93 0 0 0-.93-.9.94.94 0 0 0-.94.9zm6.2-1.5l-.19.79a1.4 1.4 0 0 0-.61-.14.87.87 0 0 0-.87 1v2H545v-3.66h.79v.46a1.22 1.22 0 0 1 1.06-.51 1.46 1.46 0 0 1 .64.06zm4.21 1.35v2.3h-.8v-2c0-.61-.31-1-.85-1a.91.91 0 0 0-.95 1v2h-.8v-3.66h.8v.46a1.28 1.28 0 0 1 1.12-.54 1.41 1.41 0 0 1 1.48 1.44zm4.73 2.3h-.8v-.44a1.39 1.39 0 0 1-1.15.53 1.93 1.93 0 0 1 0-3.85 1.4 1.4 0 0 1 1.15.54v-.44h.8zm-3-1.83a1.11 1.11 0 1 0 1.11-1.17 1.1 1.1 0 0 0-1.07 1.17zm5.05 1.83h-.8v-5.5h.8zm-31.55 33.62c1.11 0 1.71.5 1.71 1.4s-.63 1.37-1.61 1.4l1.59 2h-1l-1.54-2h-.4v2h-.78v-4.83zm-1.21.73v1.36h1.19c.63 0 .92-.22.92-.69s-.31-.67-.92-.67zm7.47 4.1h-3.52v-4.83h3.48v.73h-2.7v1.3h2.61v.74h-2.61v1.33h2.74zm4.34-3.76a2.49 2.49 0 0 0-1.35-.41c-.65 0-1.09.28-1.09.72s.38.55 1 .64l.34.05c.78.11 1.55.43 1.55 1.33s-.89 1.52-1.93 1.52a3.13 3.13 0 0 1-1.94-.65l.42-.62a2.47 2.47 0 0 0 1.52.53c.63 0 1.12-.27 1.12-.71s-.38-.56-1.08-.66l-.38-.05c-.72-.1-1.43-.44-1.43-1.33s.86-1.51 1.9-1.51a3.07 3.07 0 0 1 1.75.52zm4.88-.33h-1.56v4.09h-.78v-4.09h-1.56v-.74h3.9zm2.64 1.44h-1.13v2.65h-.72V488h-.67v-.65h.67v-.56a1.05 1.05 0 0 1 1.1-1.19 1.67 1.67 0 0 1 .92.25l-.25.6a1.4 1.4 0 0 0-.62-.17c-.28 0-.43.18-.43.51v.56h1.13zm3.77 1.25a1.54 1.54 0 0 1-3.07 0v-1.9h.73v1.84a.76.76 0 0 0 .81.87c.45 0 .8-.24.8-.87v-1.84h.73zm1.81 1.4h-.72v-5h.72zm7.22 0H557l-.48-1.23h-2.18l-.48 1.23h-.81l1.91-4.83h1zm-3.22-2h1.62l-.81-2.08zm4.75.1v1.9h-.78v-4.83h1.87c1.12 0 1.72.57 1.72 1.47s-.6 1.46-1.72 1.46zm0-2.19V488h1.07c.64 0 .92-.23.92-.73s-.28-.73-.92-.73zm4.56 4.09h-.77v-4.83h.77z" transform="translate(-136.75 -20)"/><path class="cls-4" d="M816.37 465.21q4.67 6.07 9.35 12.14v-8.05h41.48v8.05l9.35-12.19L867.2 453v8.05h-41.48V453z" transform="translate(-136.75 -20)"/><path class="cls-20" d="M833.36 453.2h-.86v-5.35h.86zm4.75-2.3v2.3h-.8v-2c0-.61-.32-1-.85-1a.91.91 0 0 0-1 1v2h-.8v-3.66h.8v.46a1.28 1.28 0 0 1 1.12-.54 1.41 1.41 0 0 1 1.53 1.44zm3.67-.64h-1.4v1.6c0 .49.26.68.58.68a1.46 1.46 0 0 0 .74-.25l.32.64a2 2 0 0 1-1.13.36c-.83 0-1.31-.44-1.31-1.42v-1.61h-.73v-.72h.73v-1.11h.8v1.11h1.4zm4.22 1.1a2.81 2.81 0 0 1 0 .3h-2.7a1 1 0 0 0 1.08.93 1.74 1.74 0 0 0 1.06-.38l.4.57a2.22 2.22 0 0 1-1.51.51 1.93 1.93 0 0 1-.05-3.85 1.74 1.74 0 0 1 1.72 1.92zm-2.71-.31h1.9a.93.93 0 0 0-.93-.9.94.94 0 0 0-.93.9zm6.21-1.5l-.19.79a1.4 1.4 0 0 0-.61-.14.87.87 0 0 0-.87 1v2H847v-3.66h.79v.46a1.23 1.23 0 0 1 1.07-.51 1.45 1.45 0 0 1 .64.06zm4.22 1.35v2.3h-.81v-2c0-.61-.31-1-.85-1a.91.91 0 0 0-.95 1v2h-.8v-3.66h.8v.46a1.29 1.29 0 0 1 1.12-.54 1.42 1.42 0 0 1 1.49 1.44zm4.72 2.3h-.8v-.44a1.39 1.39 0 0 1-1.15.53 1.93 1.93 0 0 1 0-3.85 1.4 1.4 0 0 1 1.15.54v-.44h.8zm-3-1.83a1.1 1.1 0 1 0 1.1-1.17 1.09 1.09 0 0 0-1.05 1.17zm5.06 1.83h-.81v-5.5h.81zm-31.56 32.62c1.11 0 1.71.5 1.71 1.4s-.62 1.37-1.61 1.4l1.59 2h-1l-1.54-2h-.39v2h-.7v-4.83zm-1.2.73v1.36h1.18c.63 0 .92-.22.92-.69s-.31-.67-.92-.67zm7.47 4.1h-3.53v-4.83h3.48v.73h-2.7v1.3h2.61v.74h-2.61v1.33h2.75zm4.33-3.76a2.49 2.49 0 0 0-1.35-.41c-.65 0-1.09.28-1.09.72s.38.55 1 .64l.33.05c.78.11 1.56.43 1.56 1.33s-.89 1.52-1.94 1.52a3.15 3.15 0 0 1-1.94-.65l.42-.62a2.47 2.47 0 0 0 1.52.53c.63 0 1.13-.27 1.13-.71s-.38-.56-1.09-.66l-.38-.05c-.71-.1-1.43-.44-1.43-1.33s.86-1.51 1.91-1.51a3.06 3.06 0 0 1 1.74.52zm4.88-.33h-1.56v4.09h-.78v-4.09h-1.56v-.74h3.9zm2.64 1.44h-1.13v2.65h-.72V488h-.66v-.65h.66v-.56a1.06 1.06 0 0 1 1.11-1.19 1.72 1.72 0 0 1 .92.25l-.26.6a1.4 1.4 0 0 0-.62-.17c-.28 0-.43.18-.43.51v.56h1.13zm3.77 1.25a1.53 1.53 0 0 1-3.06 0v-1.9h.72v1.84a.76.76 0 0 0 .81.87c.45 0 .8-.24.8-.87v-1.84h.73zm1.82 1.4h-.73v-5h.73zm7.21 0H859l-.48-1.23h-2.18l-.48 1.23h-.81l1.91-4.83h1zm-3.22-2h1.62l-.81-2.08zm4.75.1v1.9h-.78v-4.83h1.88c1.11 0 1.71.57 1.71 1.47s-.6 1.46-1.71 1.46zm0-2.19V488h1.08c.63 0 .92-.23.92-.73s-.29-.73-.92-.73zm4.61 4.09h-.78v-4.83h.78z" transform="translate(-136.75 -20)"/><circle class="cls-5" cx="776.34" cy="445.52" r="2.97"/><path d="M706.34 143.44a3.59 3.59 0 0 0-2-.6c-.94 0-1.58.4-1.58 1s.55.81 1.46.94l.48.06c1.14.16 2.26.63 2.26 1.93s-1.29 2.21-2.81 2.21a4.55 4.55 0 0 1-2.81-.94l.61-.91a3.49 3.49 0 0 0 2.2.78c.91 0 1.63-.39 1.63-1s-.55-.81-1.57-.95l-.55-.07c-1-.15-2.08-.64-2.08-1.94s1.25-2.19 2.77-2.19a4.41 4.41 0 0 1 2.53.76zm6.26.33a1.71 1.71 0 0 1-1.07 1.59 1.74 1.74 0 0 1 1.23 1.62c0 1.37-1.21 2-2.48 2a3 3 0 0 1-2.41-1l.7-.72a2.32 2.32 0 0 0 1.69.71c.76 0 1.36-.34 1.36-1.07s-.68-1.07-1.51-1.07h-.85v-1h.84c.76 0 1.37-.34 1.37-1s-.6-1-1.32-1a1.72 1.72 0 0 0-1.42.75l-.78-.66a2.58 2.58 0 0 1 2.27-1.11c1.42-.05 2.38.75 2.38 1.96zm10.32 5.12h-1.22l-.69-1.78h-3.17l-.69 1.78H716l2.77-7h1.41zm-4.67-2.89h2.34l-1.17-3zm6.89.14v2.75H724v-7h2.72c1.61 0 2.48.82 2.48 2.13s-.87 2.13-2.48 2.13zm0-3.19v2.12h1.56c.91 0 1.33-.34 1.33-1.06s-.42-1.06-1.33-1.06zm6.62 5.94h-1.13v-7h1.13z" transform="translate(-136.75 -20)" fill="#aaa"/><path d="M638.89 109.2H471.04V62.4h167.85zm-167.25-.6h166.61V63H471.64z" stroke-width=".7" stroke="#fff" fill="none" stroke-miterlimit="10"/><path class="cls-13" d="M371.68 398.62a4.35 4.35 0 1 1-4.35-4.33 4.19 4.19 0 0 1 4.35 4.33zm-7.6 0a3.25 3.25 0 1 0 3.25-3.31 3.16 3.16 0 0 0-3.25 3.31zm15.33 1.38a2.85 2.85 0 0 1-2.85 3 2.49 2.49 0 0 1-2-.89v.77h-1v-8.64h1v3.7a2.51 2.51 0 0 1 2-.88 2.85 2.85 0 0 1 2.85 2.94zm-4.92 0a2 2 0 1 0 1.95-2.05 1.93 1.93 0 0 0-1.95 2.05zm7.7 3.7a1.42 1.42 0 0 1-1.48 1.61 2 2 0 0 1-.83-.19l.24-.85a1.2 1.2 0 0 0 .51.12c.35 0 .58-.22.58-.74v-6.53h1zm.2-8.58a.68.68 0 0 1-.7.68.67.67 0 0 1-.69-.68.69.69 0 0 1 .69-.71.7.7 0 0 1 .7.71zm7.09 4.88v.36H385a1.86 1.86 0 0 0 1.94 1.77 2.7 2.7 0 0 0 1.76-.68l.52.67a3.25 3.25 0 0 1-2.34.87 3 3 0 0 1-.06-5.94 2.72 2.72 0 0 1 2.66 2.95zm-4.49-.43h3.49a1.7 1.7 0 0 0-1.7-1.65 1.77 1.77 0 0 0-1.78 1.6zm10.91-1.67l-.63.66a2.13 2.13 0 0 0-1.51-.64 2.05 2.05 0 0 0 0 4.1 2.18 2.18 0 0 0 1.53-.66l.61.68a2.79 2.79 0 0 1-2.12.9 3 3 0 0 1 0-5.94 2.74 2.74 0 0 1 2.12.9zm5.59.1h-2.4v2.78c0 .86.46 1.23 1.08 1.23a2 2 0 0 0 1.16-.39l.46.74a2.87 2.87 0 0 1-1.71.57c-1.23 0-2-.68-2-2.13V398h-1.22v-.89h1.22v-1.79h1v1.79h2.4zm11.06 4.82h-5.86v-8.4h1.06v7.39h4.8zm6.81 0h-1v-.77a2.5 2.5 0 0 1-2 .89 3 3 0 0 1 0-5.94 2.5 2.5 0 0 1 2 .89v-.77h1zm-4.83-2.82a2 2 0 1 0 2-2.05 2 2 0 0 0-2 2.05zm7.71 5.24h-1.09l2.1-3.64-2.59-4.48h1.1l2.05 3.5 1.95-3.5h1.07zm10.83-5.24v.36h-4.48a1.86 1.86 0 0 0 1.94 1.77 2.7 2.7 0 0 0 1.76-.68l.52.67a3.25 3.25 0 0 1-2.34.87 3 3 0 0 1-.06-5.94 2.72 2.72 0 0 1 2.66 2.95zm-4.49-.43h3.49a1.71 1.71 0 0 0-1.7-1.65 1.77 1.77 0 0 0-1.79 1.6zm9.94-2.39l-.24 1a2.26 2.26 0 0 0-1-.22 1.52 1.52 0 0 0-1.48 1.71v3.18h-1v-5.7h1v.75a2 2 0 0 1 1.67-.87 2.55 2.55 0 0 1 1.05.15zm-73.64 141.53a4.38 4.38 0 0 0-2.49-.78c-1.22 0-2.1.56-2.1 1.46s.64 1.15 1.9 1.31l.74.09c1.42.17 2.64.75 2.64 2.23 0 1.67-1.52 2.55-3.34 2.55a5.5 5.5 0 0 1-3.31-1.09l.58-.84a4.51 4.51 0 0 0 2.73.93c1.26 0 2.24-.51 2.24-1.46 0-.78-.7-1.15-2-1.32l-.78-.09c-1.38-.17-2.49-.81-2.49-2.24 0-1.62 1.44-2.53 3.21-2.53a5.09 5.09 0 0 1 3 .92zm6.36 1.93h-2.39v2.78c0 .86.45 1.23 1.07 1.23a2.11 2.11 0 0 0 1.16-.38l.46.73a2.82 2.82 0 0 1-1.71.57c-1.23 0-2-.68-2-2.13v-2.8h-1.22v-.89h1.22V538h1v1.79h2.39zm7.29 1.96a3 3 0 1 1-3-3 2.93 2.93 0 0 1 3 3zm-5 0a2 2 0 1 0 2-2.05 2 2 0 0 0-2.03 2.05zm10.47-2.78l-.24 1a2.27 2.27 0 0 0-1-.22 1.53 1.53 0 0 0-1.48 1.72v3.17h-1v-5.7h1v.75a2 2 0 0 1 1.67-.87 2.39 2.39 0 0 1 1.05.15zm6.63 5.63h-1v-.76a2.52 2.52 0 0 1-2 .88 3 3 0 0 1 0-5.94 2.5 2.5 0 0 1 2 .89v-.77h1zm-4.83-2.85a2 2 0 1 0 2-2.05 2 2 0 0 0-2 2.05zm11.39-2.08v-.77h1v5.3a2.75 2.75 0 0 1-3 2.89 4 4 0 0 1-2.39-.74l.43-.79a3.35 3.35 0 0 0 2 .64 1.85 1.85 0 0 0 2-2v-.5a2.37 2.37 0 0 1-2 .89 2.93 2.93 0 0 1 0-5.85 2.4 2.4 0 0 1 1.96.93zm-3.77 2a1.93 1.93 0 1 0 1.93-2 1.9 1.9 0 0 0-1.93 2.03zm12.05.06v.37H401a1.86 1.86 0 0 0 1.94 1.76 2.66 2.66 0 0 0 1.75-.68l.53.67a3.25 3.25 0 0 1-2.34.87 3 3 0 0 1-.06-5.94 2.73 2.73 0 0 1 2.65 2.95zm-4.49-.42h3.49a1.71 1.71 0 0 0-1.7-1.66 1.77 1.77 0 0 0-1.77 1.66zm15.63 3.29h-5.87v-8.4h1.06v7.4h4.81zm6.81 0h-1v-.76a2.52 2.52 0 0 1-2 .88 3 3 0 0 1 0-5.94 2.49 2.49 0 0 1 2 .89v-.77h1zm-4.84-2.85a2 2 0 1 0 2-2.05 2 2 0 0 0-2 2.05zm7.71 5.28h-1.09l2.11-3.65-2.6-4.48h1.1l2.05 3.5 1.95-3.5h1.08zm10.83-5.3v.37h-4.48a1.86 1.86 0 0 0 1.94 1.76 2.68 2.68 0 0 0 1.76-.68l.52.67a3.25 3.25 0 0 1-2.34.87 3 3 0 0 1-.06-5.94 2.72 2.72 0 0 1 2.66 2.95zm-4.48-.42h3.48a1.7 1.7 0 0 0-1.7-1.66 1.77 1.77 0 0 0-1.78 1.66zm9.94-2.34l-.24 1a2.31 2.31 0 0 0-1-.22 1.52 1.52 0 0 0-1.48 1.72v3.17h-1v-5.7h1v.75a2 2 0 0 1 1.66-.87 2.46 2.46 0 0 1 1.06.15zM668 538.71a4.43 4.43 0 0 0-2.49-.78c-1.23 0-2.11.56-2.11 1.46s.65 1.15 1.9 1.31l.74.09c1.42.17 2.64.75 2.64 2.23 0 1.67-1.52 2.55-3.33 2.55a5.47 5.47 0 0 1-3.31-1.09l.57-.84a4.52 4.52 0 0 0 2.74.93c1.25 0 2.23-.51 2.23-1.46 0-.78-.7-1.15-2-1.32l-.77-.09c-1.39-.17-2.49-.81-2.49-2.24 0-1.62 1.44-2.53 3.2-2.53a5.12 5.12 0 0 1 3 .92zm6.3 1.93h-2.39v2.78c0 .86.46 1.23 1.07 1.23a2.17 2.17 0 0 0 1.17-.38l.46.73a2.87 2.87 0 0 1-1.71.57c-1.24 0-2-.68-2-2.13v-2.8h-1.22v-.89h1.22V538h1v1.79h2.39zm7.29 1.96a3 3 0 1 1-3-3 2.92 2.92 0 0 1 3 3zm-5 0a2 2 0 1 0 2-2.05 2 2 0 0 0-2.02 2.05zm10.46-2.78l-.24 1a2.31 2.31 0 0 0-1-.22 1.52 1.52 0 0 0-1.48 1.72v3.17h-1v-5.7h1v.75a2 2 0 0 1 1.66-.87 2.46 2.46 0 0 1 1.06.15zm6.65 5.63h-1v-.76a2.54 2.54 0 0 1-2 .88 3 3 0 0 1 0-5.94 2.51 2.51 0 0 1 2 .89v-.77h1zm-4.84-2.85a2 2 0 1 0 2-2.05 2 2 0 0 0-2 2.05zm11.4-2.08v-.77h1v5.3a2.75 2.75 0 0 1-3 2.89 3.94 3.94 0 0 1-2.38-.74l.42-.79a3.38 3.38 0 0 0 2 .64 1.85 1.85 0 0 0 2-2v-.5a2.37 2.37 0 0 1-2 .89 2.93 2.93 0 0 1 0-5.85 2.4 2.4 0 0 1 1.96.93zm-3.78 2a1.93 1.93 0 1 0 1.93-2 1.9 1.9 0 0 0-1.93 2.03zm12.05.06v.37H704a1.86 1.86 0 0 0 1.94 1.76 2.68 2.68 0 0 0 1.76-.68l.52.67a3.25 3.25 0 0 1-2.34.87 3 3 0 0 1-.06-5.94 2.72 2.72 0 0 1 2.71 2.95zm-4.48-.42h3.48a1.7 1.7 0 0 0-1.7-1.66 1.77 1.77 0 0 0-1.78 1.66zm15.62 3.29h-5.86v-8.4h1.05v7.4h4.81zm6.81 0h-1v-.76a2.54 2.54 0 0 1-2 .88 3 3 0 0 1 0-5.94 2.51 2.51 0 0 1 2 .89v-.77h1zm-4.84-2.85a2 2 0 1 0 2-2.05 2 2 0 0 0-2 2.05zm7.71 5.28h-1.08l2.1-3.65-2.59-4.48h1.09l2 3.5 2-3.5H734zm10.84-5.3v.37h-4.48a1.86 1.86 0 0 0 1.94 1.76 2.66 2.66 0 0 0 1.75-.68l.53.67a3.25 3.25 0 0 1-2.34.87 3 3 0 0 1-.06-5.94 2.73 2.73 0 0 1 2.66 2.95zm-4.49-.42h3.49a1.71 1.71 0 0 0-1.7-1.66 1.77 1.77 0 0 0-1.79 1.66zm9.94-2.34l-.24 1a2.27 2.27 0 0 0-1-.22 1.52 1.52 0 0 0-1.48 1.72v3.17h-1v-5.7h1v.75a2 2 0 0 1 1.67-.87 2.39 2.39 0 0 1 1.05.15zm-70.9-142.01a4.35 4.35 0 1 1-4.35-4.33 4.19 4.19 0 0 1 4.35 4.33zm-7.59 0a3.25 3.25 0 1 0 3.24-3.31 3.16 3.16 0 0 0-3.24 3.31zm15.32 1.34a2.84 2.84 0 0 1-2.85 3 2.49 2.49 0 0 1-2-.88v.73h-1v-8.63h1v3.7a2.49 2.49 0 0 1 2-.88 2.84 2.84 0 0 1 2.85 2.96zm-4.92 0a2 2 0 1 0 2-2 2 2 0 0 0-2 2zm7.71 3.73a1.43 1.43 0 0 1-1.48 1.62 2 2 0 0 1-.83-.19l.23-.85a1.23 1.23 0 0 0 .51.11c.35 0 .58-.22.58-.73v-6.53h1zm.19-8.58a.69.69 0 0 1-.7.69.68.68 0 0 1-.69-.69.69.69 0 0 1 .69-.7.7.7 0 0 1 .7.7zm7.09 4.84v.36h-4.48a1.86 1.86 0 0 0 1.93 1.77 2.68 2.68 0 0 0 1.76-.68l.52.67a3.24 3.24 0 0 1-2.34.86 3 3 0 0 1-.06-5.93 2.71 2.71 0 0 1 2.67 2.95zm-4.48-.43h3.48a1.69 1.69 0 0 0-1.69-1.65 1.77 1.77 0 0 0-1.79 1.65zm10.94-1.62l-.63.66a2.05 2.05 0 0 0-1.51-.64 2.05 2.05 0 0 0 0 4.1 2.2 2.2 0 0 0 1.54-.66l.6.68a2.76 2.76 0 0 1-2.11.89 3 3 0 0 1 0-5.93 2.73 2.73 0 0 1 2.11.9zm5.55.11h-2.39v2.8c0 .85.45 1.23 1.07 1.23a2.12 2.12 0 0 0 1.16-.39l.47.74a2.87 2.87 0 0 1-1.71.56c-1.24 0-2-.67-2-2.13v-2.81H700v-.89h1.21v-1.79h1v1.79h2.39zm11.07 4.8h-5.87v-8.39h1.06V401h4.81zm6.81 0h-1v-.76a2.51 2.51 0 0 1-2 .88 3 3 0 0 1 0-5.93 2.51 2.51 0 0 1 2 .88v-.76h1zm-4.84-2.85a2 2 0 1 0 2-2 1.93 1.93 0 0 0-2 2zm7.71 5.28h-1.09l2.11-3.64-2.6-4.48h1.1l2 3.5 2-3.5h1.08zm10.83-5.29v.36h-4.48a1.86 1.86 0 0 0 1.93 1.77 2.68 2.68 0 0 0 1.76-.68l.52.67a3.24 3.24 0 0 1-2.34.86 3 3 0 0 1-.06-5.93 2.71 2.71 0 0 1 2.67 2.95zm-4.48-.43h3.48a1.69 1.69 0 0 0-1.7-1.65 1.76 1.76 0 0 0-1.78 1.65zm9.94-2.34l-.24 1a2.17 2.17 0 0 0-1-.22 1.52 1.52 0 0 0-1.48 1.71V402h-1v-5.69h1v.75a2 2 0 0 1 1.66-.87 2.63 2.63 0 0 1 1.06.18zm281.12 142.97a4.4 4.4 0 0 0-2.49-.77c-1.23 0-2.1.55-2.1 1.45s.64 1.15 1.9 1.31l.74.09c1.42.17 2.63.75 2.63 2.23 0 1.67-1.51 2.55-3.33 2.55a5.43 5.43 0 0 1-3.31-1.09l.58-.84a4.48 4.48 0 0 0 2.73.93c1.25 0 2.24-.51 2.24-1.46 0-.78-.7-1.15-2-1.31l-.78-.1c-1.39-.17-2.49-.81-2.49-2.24 0-1.62 1.44-2.53 3.21-2.53a5.18 5.18 0 0 1 3 .92zm6.36 1.94h-2.4v2.77c0 .86.46 1.23 1.08 1.23a2.11 2.11 0 0 0 1.16-.38l.46.74a2.93 2.93 0 0 1-1.71.56c-1.23 0-2-.68-2-2.13v-2.79h-1.22v-.9h1.22v-1.79h1v1.79h2.4zm7.28 1.95a3 3 0 1 1-3-3 2.92 2.92 0 0 1 3 3zm-5 0a2 2 0 1 0 2-2 2 2 0 0 0-2.02 2zm10.46-2.78l-.24 1a2.27 2.27 0 0 0-1-.22 1.52 1.52 0 0 0-1.48 1.72v3.17h-1v-5.7h1v.75a2 2 0 0 1 1.67-.87 2.61 2.61 0 0 1 1.05.15zm6.65 5.63h-1v-.76a2.54 2.54 0 0 1-2 .88 3 3 0 0 1 0-5.94 2.51 2.51 0 0 1 2 .89v-.77h1zm-4.84-2.85a2 2 0 0 0 2 2 2 2 0 1 0-2-2zm11.38-2.07v-.78h1v5.3a2.75 2.75 0 0 1-3 2.89 4 4 0 0 1-2.39-.73l.43-.8a3.35 3.35 0 0 0 2 .64 1.84 1.84 0 0 0 2-1.95v-.51a2.37 2.37 0 0 1-2 .89 2.93 2.93 0 0 1 0-5.85 2.38 2.38 0 0 1 1.96.9zm-3.78 2a1.94 1.94 0 1 0 1.93-2 1.91 1.91 0 0 0-1.91 2.02zm12.07.05v.37h-4.48a1.85 1.85 0 0 0 1.93 1.76 2.68 2.68 0 0 0 1.76-.68l.52.68a3.24 3.24 0 0 1-2.34.86 3 3 0 0 1-.06-5.94 2.72 2.72 0 0 1 2.67 2.95zm-4.48-.42h3.48a1.7 1.7 0 0 0-1.69-1.66 1.78 1.78 0 0 0-1.79 1.66zm15.63 3.29h-5.87v-8.4h1.06v7.4h4.81zm6.81 0h-1v-.76a2.52 2.52 0 0 1-2 .88 3 3 0 0 1 0-5.94 2.5 2.5 0 0 1 2 .89v-.77h1zm-4.84-2.85a2 2 0 1 0 3.91 0 2 2 0 1 0-3.91 0zm7.71 5.28H1083l2.11-3.65-2.6-4.48h1.1l2 3.5 2-3.5h1.08zm10.88-5.3v.37h-4.48a1.86 1.86 0 0 0 1.94 1.76 2.68 2.68 0 0 0 1.76-.68l.52.68a3.24 3.24 0 0 1-2.34.86 3 3 0 0 1-.06-5.94 2.72 2.72 0 0 1 2.66 2.95zm-4.49-.42h3.49a1.7 1.7 0 0 0-1.7-1.66 1.78 1.78 0 0 0-1.84 1.66zm9.9-2.34l-.24 1a2.31 2.31 0 0 0-1-.22 1.52 1.52 0 0 0-1.48 1.72v3.17h-1v-5.7h1v.75a2 2 0 0 1 1.67-.87 2.62 2.62 0 0 1 1.05.15zm-70.91-140.01a4.35 4.35 0 1 1-4.34-4.33 4.18 4.18 0 0 1 4.34 4.33zm-7.59 0a3.25 3.25 0 1 0 3.25-3.31 3.16 3.16 0 0 0-3.25 3.31zm15.32 1.35a2.84 2.84 0 0 1-2.84 3 2.48 2.48 0 0 1-2-.88v.76h-1V396h1v3.7a2.51 2.51 0 0 1 2-.88 2.84 2.84 0 0 1 2.84 2.97zm-4.91 0a2 2 0 1 0 2-2.05 1.93 1.93 0 0 0-2 2.05zm7.68 3.73a1.42 1.42 0 0 1-1.48 1.61 2 2 0 0 1-.83-.19l.24-.85a1.2 1.2 0 0 0 .51.12c.34 0 .58-.23.58-.74v-6.53h1zm.2-8.59a.68.68 0 0 1-.7.69.67.67 0 0 1-.69-.69.69.69 0 0 1 .69-.7.7.7 0 0 1 .72.7zm7.11 4.84v.36h-4.48a1.86 1.86 0 0 0 1.94 1.77 2.66 2.66 0 0 0 1.75-.68l.53.67a3.24 3.24 0 0 1-2.34.86 3 3 0 0 1-.06-5.93 2.72 2.72 0 0 1 2.66 2.95zm-4.49-.43h3.49a1.7 1.7 0 0 0-1.7-1.65 1.77 1.77 0 0 0-1.79 1.65zm10.91-1.62l-.63.66a2.13 2.13 0 0 0-1.51-.64 2.05 2.05 0 0 0 0 4.1 2.18 2.18 0 0 0 1.53-.66l.61.68a2.78 2.78 0 0 1-2.12.89 3 3 0 0 1 0-5.93 2.74 2.74 0 0 1 2.12.9zm5.58.11h-2.39v2.78c0 .86.46 1.23 1.08 1.23a2.07 2.07 0 0 0 1.16-.39l.46.74a2.87 2.87 0 0 1-1.71.56c-1.23 0-2-.67-2-2.12v-2.8h-1.22v-.89h1.22v-1.79h1v1.79h2.39zm11.07 4.8h-5.86v-8.39h1v7.39h4.81zm6.81 0h-1v-.76a2.51 2.51 0 0 1-2 .88 3 3 0 0 1 0-5.93 2.51 2.51 0 0 1 2 .89v-.77h1zm-4.84-2.84a2 2 0 1 0 2-2.05 2 2 0 0 0-2 2.05zm7.71 5.27H1079l2.1-3.64-2.59-4.48h1.09l2.05 3.5 1.95-3.5h1.08zm10.84-5.29v.36h-4.48a1.86 1.86 0 0 0 1.94 1.77 2.66 2.66 0 0 0 1.75-.68l.53.67a3.24 3.24 0 0 1-2.34.86 3 3 0 0 1-.06-5.93 2.72 2.72 0 0 1 2.66 2.95zm-4.49-.43h3.49a1.7 1.7 0 0 0-1.7-1.65 1.77 1.77 0 0 0-1.79 1.65zm9.94-2.34l-.24 1a2.27 2.27 0 0 0-1-.22 1.52 1.52 0 0 0-1.48 1.71v3.17h-1v-5.69h1v.75a2 2 0 0 1 1.67-.87 2.55 2.55 0 0 1 1.05.15z" transform="translate(-136.75 -20)"/><path class="cls-1" d="M508.5 434h116.73v17.77H508.5zm0-39.93h116.73v17.77H508.5z"/><path class="cls-15" d="M696.79 420.72l-.59.4a2.08 2.08 0 0 0-1.73-.89 2.24 2.24 0 0 0 0 4.48 2 2 0 0 0 1.72-.89l.59.43a2.74 2.74 0 0 1-2.31 1.15 2.93 2.93 0 1 1 0-5.85 2.67 2.67 0 0 1 2.32 1.17zm4.75 4.59h-.66v-.51a1.73 1.73 0 0 1-1.36.6 2 2 0 0 1 0-4 1.7 1.7 0 0 1 1.36.6v-.52h.66zm-3.27-1.92a1.33 1.33 0 1 0 1.32-1.39 1.31 1.31 0 0 0-1.32 1.39zm7.82-1.39l-.43.45a1.39 1.39 0 0 0-1-.44 1.39 1.39 0 0 0 0 2.77 1.5 1.5 0 0 0 1-.44l.41.46a1.9 1.9 0 0 1-1.44.61 2 2 0 0 1 0-4 1.86 1.86 0 0 1 1.46.59zm1.68 0a1.62 1.62 0 0 1 2.86 1v2.39H710v-2.18a1 1 0 0 0-1.06-1.12 1.09 1.09 0 0 0-1.14 1.14v2.16h-.66v-5.84h.66zm7.66 1.37a1.93 1.93 0 0 1 0 .25h-3a1.26 1.26 0 0 0 1.31 1.2 1.84 1.84 0 0 0 1.19-.46l.35.45a2.16 2.16 0 0 1-1.58.59 2 2 0 0 1 0-4 1.83 1.83 0 0 1 1.73 1.97zm-3-.28h2.36a1.15 1.15 0 0 0-1.15-1.12 1.2 1.2 0 0 0-1.24 1.12z" transform="translate(-136.75 -20)"/><path class="cls-1" d="M508.5 414.03h116.73v17.77H508.5z"/><path class="cls-15" d="M683.23 440.69l-.6.4a2 2 0 0 0-1.73-.89 2.24 2.24 0 0 0 0 4.48 2 2 0 0 0 1.73-.89l.58.43a2.73 2.73 0 0 1-2.31 1.15 2.93 2.93 0 1 1 0-5.86 2.69 2.69 0 0 1 2.33 1.18zm4.87 2.66a2 2 0 1 1-2-2 2 2 0 0 1 2 2zm-3.4 0a1.36 1.36 0 1 0 1.36-1.38 1.34 1.34 0 0 0-1.36 1.38zm10.9-.46v2.39h-.66v-2.18a1 1 0 0 0-1.06-1.13 1.09 1.09 0 0 0-1.14 1.15v2.16h-.66v-2.18A1 1 0 0 0 691 442a1.09 1.09 0 0 0-1.14 1.15v2.16h-.67v-3.86h.66v.51a1.52 1.52 0 0 1 1.26-.59 1.54 1.54 0 0 1 1.43.78 1.56 1.56 0 0 1 1.44-.78 1.49 1.49 0 0 1 1.62 1.52zm5.32.46a1.93 1.93 0 0 1-1.93 2 1.67 1.67 0 0 1-1.36-.6v2.14H697v-5.48h.66v.52a1.7 1.7 0 0 1 1.36-.6 1.93 1.93 0 0 1 1.9 2.02zm-3.33 0a1.32 1.32 0 1 0 1.32-1.38 1.31 1.31 0 0 0-1.32 1.38zm6.92-1.88l-.16.65a1.45 1.45 0 0 0-.66-.15 1 1 0 0 0-1 1.16v2.15H702v-3.86h.65v.51a1.35 1.35 0 0 1 1.13-.59 1.68 1.68 0 0 1 .73.13zm4.19 1.87a2 2 0 0 1 0 .25h-3a1.25 1.25 0 0 0 1.31 1.19 1.79 1.79 0 0 0 1.19-.46l.35.46a2.21 2.21 0 0 1-1.58.58 2 2 0 0 1 0-4 1.84 1.84 0 0 1 1.73 1.98zm-3-.29h2.3a1.16 1.16 0 0 0-1.15-1.12 1.19 1.19 0 0 0-1.18 1.12zm6.71-.77a2.34 2.34 0 0 0-1.24-.36c-.53 0-.87.23-.87.58s.28.45.75.5l.44.06c.83.11 1.31.45 1.31 1.09s-.66 1.21-1.71 1.21a2.73 2.73 0 0 1-1.62-.49l.3-.5a2 2 0 0 0 1.32.41c.64 0 1-.21 1-.59s-.26-.46-.78-.53l-.45-.05c-.86-.1-1.28-.49-1.28-1.08s.61-1.18 1.55-1.18a2.83 2.83 0 0 1 1.54.41zm4.04 0a2.41 2.41 0 0 0-1.25-.36c-.52 0-.86.23-.86.58s.28.45.74.5l.45.06c.82.11 1.3.45 1.3 1.09s-.66 1.21-1.71 1.21a2.77 2.77 0 0 1-1.62-.49l.31-.5a2 2 0 0 0 1.32.41c.63 0 1-.21 1-.59s-.25-.46-.78-.53l-.44-.05c-.87-.1-1.28-.49-1.28-1.08s.61-1.18 1.55-1.18a2.8 2.8 0 0 1 1.53.41zm2.23-2.21a.46.46 0 0 1-.47.46.45.45 0 0 1-.47-.46.47.47 0 0 1 .47-.48.47.47 0 0 1 .47.48zm-.14 5.21h-.66v-3.86h.66zm5.2-1.93a2 2 0 1 1-2-2 2 2 0 0 1 2 2zm-3.41 0a1.36 1.36 0 1 0 1.36-1.38 1.34 1.34 0 0 0-1.36 1.38zm8.04-.46v2.39h-.66v-2.18a1 1 0 0 0-1.06-1.13 1.1 1.1 0 0 0-1.14 1.15v2.16h-.66v-3.86h.65v.51a1.52 1.52 0 0 1 1.27-.59 1.49 1.49 0 0 1 1.6 1.55zm-41.72 22.36h-4v-5.69h4v.67h-3.28v1.82h3.17v.67h-3.17v1.86h3.32zm4.88-2.4v2.4h-.67v-2.18a1 1 0 0 0-1.06-1.13 1.09 1.09 0 0 0-1.14 1.14v2.17H688v-3.86h.65v.5a1.54 1.54 0 0 1 1.27-.58 1.5 1.5 0 0 1 1.61 1.54zm4.47-.93l-.43.45a1.39 1.39 0 0 0-1-.44 1.39 1.39 0 0 0 0 2.78 1.51 1.51 0 0 0 1-.45l.41.46a1.86 1.86 0 0 1-1.43.61 2 2 0 0 1 0-4 1.86 1.86 0 0 1 1.45.59zm3.54-.49l-.17.66a1.45 1.45 0 0 0-.66-.15 1 1 0 0 0-1 1.16v2.15h-.66v-3.86h.65v.51a1.35 1.35 0 0 1 1.13-.59 1.73 1.73 0 0 1 .71.12zm1.56 5.46h-.74l1.43-2.47-1.76-3h.74l1.39 2.37 1.32-2.37h.73zm7.82-3.57a1.93 1.93 0 0 1-1.93 2 1.7 1.7 0 0 1-1.36-.6v2.14H705v-5.48h.66v.51a1.69 1.69 0 0 1 1.36-.59 1.93 1.93 0 0 1 1.9 2.02zm-3.33 0a1.33 1.33 0 1 0 2.65 0 1.33 1.33 0 0 0-1.33-1.39 1.31 1.31 0 0 0-1.32 1.39zm7.02-1.32H711v1.88c0 .58.31.84.73.84a1.43 1.43 0 0 0 .78-.26l.32.5a2 2 0 0 1-1.16.38c-.84 0-1.34-.46-1.34-1.44V462h-.82v-.6h.82v-1.21h.67v1.21h1.62zm1.86-2a.46.46 0 0 1-.47.47.46.46 0 0 1-.47-.47.46.46 0 0 1 .47-.47.47.47 0 0 1 .47.47zm-.14 5.22h-.66v-3.86h.66zm5.19-1.9a2 2 0 1 1-2-2 2 2 0 0 1 2 2zm-3.4 0a1.36 1.36 0 1 0 1.36-1.39 1.34 1.34 0 0 0-1.36 1.39zm8.04-.47v2.4h-.66v-2.18a1 1 0 0 0-1.06-1.13 1.09 1.09 0 0 0-1.14 1.14v2.17h-.67v-3.86h.66v.5a1.54 1.54 0 0 1 1.26-.58 1.49 1.49 0 0 1 1.61 1.54z" transform="translate(-136.75 -20)"/><path class="cls-1" d="M508.5 453.97h116.73v17.77H508.5z"/><path class="cls-15" d="M667.58 485.21h-4v-5.68h4v.67h-3.28v1.8h3.18v.68h-3.18v1.85h3.32zm3.84-3.81l-.16.65a1.6 1.6 0 0 0-.66-.15 1 1 0 0 0-1 1.16v2.15h-.66v-3.85h.66v.5a1.37 1.37 0 0 1 1.13-.59 1.68 1.68 0 0 1 .69.13zm4.41 3.81h-.66v-.51a1.72 1.72 0 0 1-1.36.59 2 2 0 0 1 0-4 1.73 1.73 0 0 1 1.36.6v-.51h.66zm-3.27-1.93a1.33 1.33 0 1 0 1.33-1.38 1.32 1.32 0 0 0-1.33 1.38zm7.27-1.07a2.43 2.43 0 0 0-1.24-.36c-.53 0-.87.23-.87.58s.28.45.75.5l.45.06c.82.11 1.3.46 1.3 1.09s-.66 1.21-1.71 1.21a2.77 2.77 0 0 1-1.62-.49l.31-.5a2 2 0 0 0 1.32.41c.63 0 1-.2 1-.59s-.25-.46-.78-.52l-.44-.06c-.87-.1-1.29-.49-1.29-1.08s.62-1.18 1.55-1.18a2.75 2.75 0 0 1 1.54.42zm4.92 1.39a1.76 1.76 0 0 1-3.52 0v-2.24h.67v2.18a1.09 1.09 0 1 0 2.18 0v-2.18h.67zm3.85-2.2l-.16.65a1.6 1.6 0 0 0-.66-.15 1 1 0 0 0-1 1.16v2.15h-.66v-3.85h.66v.5a1.36 1.36 0 0 1 1.12-.59 1.73 1.73 0 0 1 .7.13zm4.19 1.87v.25h-3a1.25 1.25 0 0 0 1.31 1.19 1.79 1.79 0 0 0 1.19-.46l.35.46a2.18 2.18 0 0 1-1.58.58 2 2 0 0 1 0-4 1.84 1.84 0 0 1 1.73 1.98zm-3-.29h2.36a1.15 1.15 0 0 0-1.15-1.12 1.21 1.21 0 0 0-1.25 1.14zm9.42-1.1l-.42.45a1.46 1.46 0 0 0-1-.43 1.39 1.39 0 0 0 0 2.77 1.48 1.48 0 0 0 1-.44l.41.46a1.87 1.87 0 0 1-1.43.6 2 2 0 0 1 0-4 1.88 1.88 0 0 1 1.44.59zm4.79 1.4a2 2 0 1 1-2-2 2 2 0 0 1 2 2zm-3.4 0a1.36 1.36 0 1 0 1.36-1.38 1.33 1.33 0 0 0-1.41 1.38zm7.46-1.41v-2.5h.66v5.84h-.66v-.51a1.72 1.72 0 0 1-1.36.59 2 2 0 0 1 0-4 1.73 1.73 0 0 1 1.36.58zm-2.61 1.41a1.33 1.33 0 1 0 1.32-1.38 1.32 1.32 0 0 0-1.32 1.38zm8.11-.01a1.93 1.93 0 0 1 0 .25h-3a1.25 1.25 0 0 0 1.31 1.19 1.79 1.79 0 0 0 1.19-.46l.35.46a2.17 2.17 0 0 1-1.58.58 2 2 0 0 1 0-4 1.84 1.84 0 0 1 1.73 1.98zm-3-.29h2.36a1.16 1.16 0 0 0-1.15-1.12 1.2 1.2 0 0 0-1.24 1.14zm4.05 3.02h-.73l3.44-7.06h.73zm8.54-6.47c1.2 0 2.08.42 2.08 1.51a1.27 1.27 0 0 1-.82 1.25 1.35 1.35 0 0 1 .94 1.34c0 1.1-.82 1.58-2.08 1.58H721v-5.68zm-1.48.67v1.8h1.46c.76 0 1.35-.17 1.35-.91s-.6-.89-1.35-.89zm0 2.47v1.87h1.57c.82 0 1.36-.2 1.36-.94s-.54-.93-1.36-.93zm5.67-2.67a.46.46 0 0 1-.48.46.47.47 0 0 1 0-.93.47.47 0 0 1 .48.47zm-.14 5.21h-.66v-3.85h.66zm4.02-3.21h-1.62v1.88c0 .58.31.83.73.83a1.46 1.46 0 0 0 .79-.26l.31.5a1.92 1.92 0 0 1-1.16.38c-.83 0-1.33-.45-1.33-1.44V482h-.83v-.6h.83v-1.21h.66v1.21h1.62zm3.55-.6l-.16.65a1.6 1.6 0 0 0-.66-.15 1 1 0 0 0-1 1.16v2.15h-.66v-3.85h.65v.5a1.38 1.38 0 0 1 1.13-.59 1.68 1.68 0 0 1 .7.13zm4.54 1.88a2 2 0 1 1-2-2 2 2 0 0 1 2 2zm-3.4 0a1.36 1.36 0 1 0 1.36-1.38 1.33 1.33 0 0 0-1.36 1.38zM743 482h-1.62v1.88c0 .58.31.83.73.83a1.4 1.4 0 0 0 .78-.26l.32.5a1.94 1.94 0 0 1-1.16.38c-.84 0-1.34-.45-1.34-1.44V482h-.82v-.6h.82v-1.21h.67v1.21H743z" transform="translate(-136.75 -20)"/><path class="cls-1" d="M863.26 434h116.73v17.77H863.26zm0-39.93h116.73v17.77H863.26z"/><path class="cls-15" d="M1051.56 420.72l-.6.4a2.06 2.06 0 0 0-1.73-.89 2.24 2.24 0 0 0 0 4.48 2 2 0 0 0 1.73-.89l.58.43a2.74 2.74 0 0 1-2.31 1.15 2.93 2.93 0 1 1 0-5.85 2.68 2.68 0 0 1 2.33 1.17zm4.75 4.59h-.67v-.51a1.7 1.7 0 0 1-1.36.6 2 2 0 0 1 0-4 1.67 1.67 0 0 1 1.36.6v-.52h.67zm-3.28-1.92a1.32 1.32 0 0 0 1.33 1.38 1.39 1.39 0 1 0-1.33-1.38zm7.82-1.39l-.43.45a1.39 1.39 0 0 0-1-.44 1.39 1.39 0 0 0 0 2.77 1.5 1.5 0 0 0 1-.44l.41.46a1.89 1.89 0 0 1-1.43.61 2 2 0 0 1 0-4 1.84 1.84 0 0 1 1.45.59zm1.68 0a1.63 1.63 0 0 1 2.87 1v2.39h-.67v-2.18a1 1 0 0 0-1.06-1.12 1.09 1.09 0 0 0-1.14 1.14v2.16h-.66v-5.84h.66zm7.67 1.37v.25h-3a1.27 1.27 0 0 0 1.31 1.2 1.8 1.8 0 0 0 1.19-.46l.36.45a2.2 2.2 0 0 1-1.59.59 2 2 0 0 1 0-4 1.84 1.84 0 0 1 1.73 1.97zm-3-.28h2.36a1.14 1.14 0 0 0-1.15-1.12 1.2 1.2 0 0 0-1.25 1.12z" transform="translate(-136.75 -20)"/><path class="cls-1" d="M863.26 414.03h116.73v17.77H863.26z"/><path class="cls-15" d="M1038 440.69l-.59.4a2.05 2.05 0 0 0-1.73-.89 2.24 2.24 0 0 0 0 4.48 2 2 0 0 0 1.72-.89l.59.43a2.74 2.74 0 0 1-2.31 1.15 2.93 2.93 0 1 1 0-5.86 2.67 2.67 0 0 1 2.32 1.18zm4.87 2.66a2 2 0 1 1-2-2 2 2 0 0 1 2 2zm-3.41 0a1.36 1.36 0 1 0 2.72 0 1.36 1.36 0 1 0-2.72 0zm10.91-.46v2.39h-.67v-2.18a1 1 0 0 0-1.06-1.13 1.09 1.09 0 0 0-1.14 1.15v2.16h-.66v-2.18a1 1 0 0 0-1.06-1.13 1.1 1.1 0 0 0-1.14 1.15v2.16h-.64v-3.86h.65v.51a1.67 1.67 0 0 1 2.69.19 1.57 1.57 0 0 1 1.44-.78 1.5 1.5 0 0 1 1.59 1.55zm5.31.46a1.93 1.93 0 0 1-1.93 2 1.67 1.67 0 0 1-1.36-.6v2.14h-.66v-5.48h.66v.52a1.7 1.7 0 0 1 1.36-.6 1.93 1.93 0 0 1 1.93 2.02zm-3.33 0a1.33 1.33 0 1 0 1.32-1.38 1.31 1.31 0 0 0-1.32 1.38zm6.93-1.88l-.16.65a1.53 1.53 0 0 0-.67-.15 1 1 0 0 0-1 1.16v2.15h-.66v-3.86h.65v.51a1.35 1.35 0 0 1 1.13-.59 1.73 1.73 0 0 1 .71.13zm4.19 1.87a2 2 0 0 1 0 .25h-3a1.26 1.26 0 0 0 1.31 1.19 1.79 1.79 0 0 0 1.19-.46l.36.46a2.23 2.23 0 0 1-1.59.58 2 2 0 0 1 0-4 1.85 1.85 0 0 1 1.73 1.98zm-3-.29h2.36a1.16 1.16 0 0 0-1.15-1.12 1.2 1.2 0 0 0-1.25 1.12zm6.71-.77a2.41 2.41 0 0 0-1.25-.36c-.52 0-.87.23-.87.58s.28.45.75.5l.45.06c.82.11 1.3.45 1.3 1.09s-.66 1.21-1.71 1.21a2.77 2.77 0 0 1-1.62-.49l.31-.5a2 2 0 0 0 1.32.41c.63 0 1-.21 1-.59s-.25-.46-.78-.53l-.44-.05c-.87-.1-1.29-.49-1.29-1.08s.62-1.18 1.56-1.18a2.82 2.82 0 0 1 1.53.41zm4.03 0a2.34 2.34 0 0 0-1.24-.36c-.53 0-.87.23-.87.58s.28.45.75.5l.44.06c.82.11 1.31.45 1.31 1.09s-.66 1.21-1.71 1.21a2.78 2.78 0 0 1-1.63-.49l.31-.5a2 2 0 0 0 1.32.41c.63 0 1-.21 1-.59s-.25-.46-.77-.53l-.45-.05c-.86-.1-1.28-.49-1.28-1.08s.61-1.18 1.55-1.18a2.86 2.86 0 0 1 1.54.41zm2.24-2.21a.47.47 0 0 1-.48.46.46.46 0 0 1-.47-.46.47.47 0 0 1 .47-.48.48.48 0 0 1 .48.48zm-.14 5.21h-.66v-3.86h.66zm5.19-1.93a2 2 0 1 1-2-2 2 2 0 0 1 2 2zm-3.4 0a1.36 1.36 0 1 0 1.36-1.38 1.33 1.33 0 0 0-1.36 1.38zm8.04-.46v2.39h-.67v-2.18a1 1 0 0 0-1.06-1.13 1.1 1.1 0 0 0-1.14 1.15v2.16h-.66v-3.86h.66v.51a1.62 1.62 0 0 1 2.87 1zm-41.73 22.36h-4v-5.69h4v.67h-3.28v1.82h3.17v.67h-3.17v1.86h3.32zm4.88-2.4v2.4h-.67v-2.18a1 1 0 0 0-1.06-1.13 1.09 1.09 0 0 0-1.14 1.14v2.17h-.66v-3.86h.66v.5a1.63 1.63 0 0 1 2.87 1zm4.5-.93l-.42.45a1.43 1.43 0 0 0-1-.44 1.39 1.39 0 0 0 0 2.78 1.49 1.49 0 0 0 1-.45l.41.46a1.86 1.86 0 0 1-1.43.61 2 2 0 0 1 0-4 1.84 1.84 0 0 1 1.44.59zm3.51-.49l-.16.66a1.52 1.52 0 0 0-.66-.15 1 1 0 0 0-1 1.16v2.15h-.66v-3.86h.65v.51a1.35 1.35 0 0 1 1.13-.59 1.73 1.73 0 0 1 .7.12zm1.56 5.46h-.73l1.42-2.47-1.76-3h.75l1.38 2.37 1.32-2.37h.73zm7.82-3.57a1.93 1.93 0 0 1-1.93 2 1.71 1.71 0 0 1-1.36-.6v2.14h-.66v-5.48h.66v.51a1.71 1.71 0 0 1 1.36-.59 1.93 1.93 0 0 1 1.93 2.02zm-3.33 0a1.33 1.33 0 1 0 1.33-1.39 1.32 1.32 0 0 0-1.33 1.39zm7.02-1.32h-1.62v1.88c0 .58.31.84.73.84a1.46 1.46 0 0 0 .79-.26l.31.5a2 2 0 0 1-1.16.38c-.83 0-1.33-.46-1.33-1.44V462h-.83v-.6h.83v-1.21h.66v1.21h1.62zm1.86-2a.46.46 0 0 1-.47.47.46.46 0 0 1-.47-.47.46.46 0 0 1 .47-.47.47.47 0 0 1 .47.47zm-.13 5.22h-.67v-3.86h.67zm5.19-1.9a2 2 0 1 1-2-2 2 2 0 0 1 2 2zm-3.4 0a1.36 1.36 0 1 0 1.36-1.39 1.33 1.33 0 0 0-1.36 1.39zm8.04-.47v2.4h-.67v-2.18a1 1 0 0 0-1.06-1.13 1.09 1.09 0 0 0-1.14 1.14v2.17h-.66v-3.86h.66v.5a1.63 1.63 0 0 1 2.87 1z" transform="translate(-136.75 -20)"/><path class="cls-1" d="M863.26 453.97h116.73v17.77H863.26z"/><path class="cls-15" d="M1022.35 485.21h-4v-5.68h4v.67H1019v1.8h3.17v.68H1019v1.85h3.32zm3.84-3.81l-.17.65a1.6 1.6 0 0 0-.66-.15 1 1 0 0 0-1 1.16v2.15h-.66v-3.85h.65v.5a1.38 1.38 0 0 1 1.13-.59 1.76 1.76 0 0 1 .71.13zm4.41 3.81h-.67v-.51a1.69 1.69 0 0 1-1.36.59 2 2 0 0 1 0-4 1.7 1.7 0 0 1 1.36.6v-.51h.67zm-3.28-1.93a1.33 1.33 0 0 0 1.33 1.39 1.39 1.39 0 1 0-1.33-1.39zm7.28-1.07a2.47 2.47 0 0 0-1.24-.36c-.53 0-.87.23-.87.58s.28.45.74.5l.45.06c.82.11 1.3.46 1.3 1.09s-.65 1.21-1.7 1.21a2.78 2.78 0 0 1-1.63-.49l.31-.5a2 2 0 0 0 1.32.41c.63 0 1-.2 1-.59s-.25-.46-.77-.52l-.45-.06c-.86-.1-1.28-.49-1.28-1.08s.61-1.18 1.55-1.18a2.77 2.77 0 0 1 1.54.42zm4.91 1.39a1.76 1.76 0 0 1-3.52 0v-2.24h.67v2.18a1.1 1.1 0 1 0 2.19 0v-2.18h.66zm3.85-2.2l-.16.65a1.6 1.6 0 0 0-.66-.15 1 1 0 0 0-1 1.16v2.15h-.66v-3.85h.65v.5a1.38 1.38 0 0 1 1.13-.59 1.68 1.68 0 0 1 .7.13zm4.19 1.87a1.93 1.93 0 0 1 0 .25h-3a1.25 1.25 0 0 0 1.31 1.19 1.79 1.79 0 0 0 1.19-.46l.35.46a2.17 2.17 0 0 1-1.58.58 2 2 0 0 1 0-4 1.84 1.84 0 0 1 1.73 1.98zm-3-.29h2.36a1.16 1.16 0 0 0-1.15-1.12 1.2 1.2 0 0 0-1.24 1.14zm9.45-1.1l-.43.45a1.42 1.42 0 0 0-1-.43 1.39 1.39 0 0 0 0 2.77 1.5 1.5 0 0 0 1-.44l.41.46a1.89 1.89 0 0 1-1.44.6 2 2 0 0 1 0-4 1.9 1.9 0 0 1 1.46.59zm4.71 1.4a2 2 0 1 1-2-2 2 2 0 0 1 2 2zm-3.4 0a1.36 1.36 0 1 0 1.36-1.38 1.34 1.34 0 0 0-1.36 1.38zm7.51-1.41v-2.5h.67v5.84h-.67v-.51a1.69 1.69 0 0 1-1.36.59 2 2 0 0 1 0-4 1.7 1.7 0 0 1 1.36.58zm-2.61 1.41a1.33 1.33 0 0 0 1.33 1.39 1.39 1.39 0 1 0-1.33-1.39zm8.12-.01v.25h-3a1.26 1.26 0 0 0 1.32 1.19 1.74 1.74 0 0 0 1.18-.46l.36.46a2.19 2.19 0 0 1-1.59.58 2 2 0 0 1 0-4 1.85 1.85 0 0 1 1.73 1.98zm-3-.29h2.36a1.15 1.15 0 0 0-1.15-1.12 1.2 1.2 0 0 0-1.25 1.14zm4.04 3.02h-.73l3.45-7.06h.73zm8.55-6.47c1.2 0 2.07.42 2.07 1.51a1.28 1.28 0 0 1-.81 1.25 1.34 1.34 0 0 1 .93 1.34c0 1.1-.81 1.58-2.08 1.58h-2.31v-5.68zm-1.49.67v1.8h1.47c.75 0 1.34-.17 1.34-.91s-.6-.89-1.35-.89zm0 2.47v1.87h1.57c.82 0 1.36-.2 1.36-.94s-.54-.93-1.36-.93zm5.67-2.67a.46.46 0 0 1-.47.46.47.47 0 1 1 0-.93.46.46 0 0 1 .47.47zm-.14 5.21h-.66v-3.85h.66zM1086 482h-1.62v1.88c0 .58.31.83.72.83a1.43 1.43 0 0 0 .79-.26l.31.5a1.89 1.89 0 0 1-1.15.38c-.84 0-1.34-.45-1.34-1.44V482h-.82v-.6h.82v-1.21h.67v1.21h1.62zm3.54-.6l-.17.65a1.6 1.6 0 0 0-.66-.15 1 1 0 0 0-1 1.16v2.15h-.66v-3.85h.65v.5a1.38 1.38 0 0 1 1.13-.59 1.73 1.73 0 0 1 .71.13zm4.54 1.88a2 2 0 1 1-2-2 2 2 0 0 1 2 2zm-3.41 0a1.36 1.36 0 1 0 1.36-1.38 1.34 1.34 0 0 0-1.36 1.38zm7.09-1.28h-1.62v1.88c0 .58.31.83.73.83a1.46 1.46 0 0 0 .79-.26l.31.5a1.92 1.92 0 0 1-1.16.38c-.83 0-1.33-.45-1.33-1.44V482h-.83v-.6h.83v-1.21h.66v1.21h1.62z" transform="translate(-136.75 -20)"/><path class="cls-13" d="M654.78 110.69h-1.51l-1.23-3h-5.43l-1.22 3h-1.46l4.54-11.19h1.76zm-7.63-4.38h4.36l-2.18-5.42zm17.08.59a3.8 3.8 0 0 1-3.8 4 3.32 3.32 0 0 1-2.67-1.18v4.21h-1.31V103.1h1.31v1a3.32 3.32 0 0 1 2.67-1.17 3.79 3.79 0 0 1 3.8 3.97zm-6.55 0a2.61 2.61 0 1 0 2.6-2.73 2.58 2.58 0 0 0-2.6 2.73zm16.53 0a3.8 3.8 0 0 1-3.8 4 3.35 3.35 0 0 1-2.68-1.18v4.21h-1.3V103.1h1.3v1a3.34 3.34 0 0 1 2.68-1.17 3.79 3.79 0 0 1 3.8 3.97zm-6.56 0a2.61 2.61 0 1 0 2.61-2.73 2.58 2.58 0 0 0-2.61 2.73zm10.06 3.79h-1.31V99.18h1.31zm4.34-10.26a.93.93 0 0 1-1.85 0 .93.93 0 1 1 1.85 0zm-.27 10.26h-1.3v-7.59h1.3zm8.96-6.55l-.84.89a2.77 2.77 0 0 0-2-.86 2.73 2.73 0 0 0 0 5.46 3 3 0 0 0 2-.87l.81.9a3.7 3.7 0 0 1-2.83 1.2 4 4 0 0 1 0-7.92 3.69 3.69 0 0 1 2.86 1.2zm9.08 6.55h-1.31v-1a3.36 3.36 0 0 1-2.68 1.18 4 4 0 0 1 0-7.92 3.33 3.33 0 0 1 2.68 1.18v-1h1.31zm-6.45-3.79a2.61 2.61 0 0 0 2.62 2.73 2.73 2.73 0 1 0-2.62-2.73zm14.38-2.61h-3.19V108c0 1.15.61 1.64 1.43 1.64a2.79 2.79 0 0 0 1.55-.51l.62 1a3.77 3.77 0 0 1-2.28.76c-1.64 0-2.63-.91-2.63-2.84v-3.73h-1.62v-1.22h1.62v-2.38h1.31v2.38h3.19zm3.68-3.86a.91.91 0 0 1-.94.91.9.9 0 0 1-.92-.91.92.92 0 0 1 .92-.94.93.93 0 0 1 .94.94zm-.27 10.26h-1.31v-7.59h1.31zm10.22-3.79a4 4 0 1 1-4-4 3.9 3.9 0 0 1 4 4zm-6.7 0a2.68 2.68 0 1 0 2.68-2.73 2.63 2.63 0 0 0-2.68 2.73zm15.85-.9v4.71h-1.31v-4.31a2 2 0 0 0-2.09-2.22 2.16 2.16 0 0 0-2.25 2.25v4.26h-1.3v-7.59h1.29v1a3 3 0 0 1 2.49-1.15 3 3 0 0 1 3.17 3.05zm7.81-1.21a4.72 4.72 0 0 0-2.45-.71c-1 0-1.71.44-1.71 1.13s.55.89 1.47 1l.88.11c1.61.22 2.57.9 2.57 2.15 0 1.45-1.3 2.39-3.37 2.39a5.45 5.45 0 0 1-3.2-1l.61-1a4 4 0 0 0 2.6.81c1.25 0 2-.41 2-1.16 0-.56-.49-.91-1.52-1l-.88-.1c-1.71-.21-2.53-1-2.53-2.13 0-1.45 1.21-2.33 3-2.33a5.51 5.51 0 0 1 3 .82z" transform="translate(-136.75 -20)"/><path fill="#afafaf" d="M460.22 150.81h186.21v4.91H460.22z"/><rect class="cls-24" x="466.95" y="159.85" width="42.89" height="10.71" rx="4.44" ry="4.44"/><rect class="cls-25" x="500.11" y="160.97" width="8.47" height="8.47" rx="4.23" ry="4.23"/><rect class="cls-25" x="489.48" y="160.97" width="8.47" height="8.47" rx="4.23" ry="4.23"/><rect class="cls-25" x="478.84" y="160.97" width="8.47" height="8.47" rx="4.23" ry="4.23"/><rect class="cls-25" x="468.21" y="160.97" width="8.47" height="8.47" rx="4.23" ry="4.23"/><path class="cls-26" d="M609.2 177.82l-.36.08-.09-.36.58-.17h.31v2h-.44zm9.88 1.23l.67-.55a1.22 1.22 0 0 0 .16-.14.6.6 0 0 0 .11-.12.3.3 0 0 0 .06-.11.2.2 0 0 0 0-.11.24.24 0 0 0-.07-.2.32.32 0 0 0-.2-.07.38.38 0 0 0-.21.07.94.94 0 0 0-.2.2l-.31-.25.15-.18.16-.13.2-.08a.88.88 0 0 1 .24 0 .82.82 0 0 1 .28.05.66.66 0 0 1 .22.12.67.67 0 0 1 .2.46.79.79 0 0 1 0 .23.58.58 0 0 1-.1.19 1.2 1.2 0 0 1-.16.17l-.24.19-.33.26h.89v.38h-1.5zm11.41.39a1.12 1.12 0 0 1-.47-.1 1.14 1.14 0 0 1-.32-.26l.31-.29a.73.73 0 0 0 .22.18.54.54 0 0 0 .27.07.32.32 0 0 0 .2-.07.19.19 0 0 0 .08-.18.2.2 0 0 0-.1-.19.5.5 0 0 0-.29-.07h-.19l-.07-.28.48-.48h-.79v-.39h1.37v.34l-.51.48.2.06a.59.59 0 0 1 .17.1.52.52 0 0 1 .12.17.47.47 0 0 1 .05.24.75.75 0 0 1-.05.26.51.51 0 0 1-.15.21.64.64 0 0 1-.23.14.94.94 0 0 1-.3.06zm10.79-.44h-1l-.07-.32 1.11-1.28h.37v1.24h.31v.36h-.27v.43h-.42zm0-.36V178l-.54.63z" transform="translate(-136.75 -20)"/><circle cx="469.59" cy="162.35" r="1.38" fill="url(#radial-gradient)" opacity=".56"/><circle class="cls-28" cx="469.59" cy="162.35" r=".42"/><circle cx="475.26" cy="162.35" r="1.38" fill="url(#radial-gradient-2)" opacity=".56"/><circle class="cls-28" cx="475.26" cy="162.35" r=".42"/><circle cx="480.27" cy="162.35" r="1.38" fill="url(#radial-gradient-3)" opacity=".56"/><circle class="cls-28" cx="480.27" cy="162.35" r=".42"/><circle cx="485.94" cy="162.35" r="1.38" fill="url(#radial-gradient-4)" opacity=".56"/><circle class="cls-28" cx="485.94" cy="162.35" r=".42"/><circle cx="490.95" cy="162.35" r="1.38" fill="url(#radial-gradient-5)" opacity=".56"/><circle class="cls-28" cx="490.95" cy="162.35" r=".42"/><circle cx="496.62" cy="162.35" r="1.38" fill="url(#radial-gradient-6)" opacity=".56"/><circle class="cls-28" cx="496.62" cy="162.35" r=".42"/><circle cx="501.63" cy="162.35" r="1.38" fill="url(#radial-gradient-7)" opacity=".56"/><circle class="cls-28" cx="501.63" cy="162.35" r=".42"/><circle cx="507.2" cy="162.35" r="1.38" fill="url(#radial-gradient-8)" opacity=".56"/><circle class="cls-28" cx="507.2" cy="162.35" r=".42"/><rect class="cls-24" x="511.57" y="159.85" width="42.89" height="10.71" rx="4.44" ry="4.44"/><rect class="cls-25" x="544.73" y="160.97" width="8.47" height="8.47" rx="4.23" ry="4.23"/><rect class="cls-25" x="534.1" y="160.97" width="8.47" height="8.47" rx="4.23" ry="4.23"/><rect class="cls-25" x="523.46" y="160.97" width="8.47" height="8.47" rx="4.23" ry="4.23"/><rect class="cls-25" x="512.83" y="160.97" width="8.47" height="8.47" rx="4.23" ry="4.23"/><path class="cls-26" d="M653.81 179.45a.94.94 0 0 1-.43-.08 1 1 0 0 1-.33-.22l.27-.32a.69.69 0 0 0 .23.16.54.54 0 0 0 .25.06.39.39 0 0 0 .25-.07.26.26 0 0 0 .09-.21.27.27 0 0 0-.1-.21.42.42 0 0 0-.26-.07h-.18l-.16.05-.25-.17v-1h1.25v.39h-.87v.35h.27a1.18 1.18 0 0 1 .27 0 .84.84 0 0 1 .23.12.62.62 0 0 1 .15.2.65.65 0 0 1 .06.29.72.72 0 0 1-.06.29 1.07 1.07 0 0 1-.15.22.66.66 0 0 1-.25.13.78.78 0 0 1-.28.09zm10.66 0a.82.82 0 0 1-.33 0 .72.72 0 0 1-.25-.16.82.82 0 0 1-.17-.29 1.28 1.28 0 0 1-.07-.48 2 2 0 0 1 .05-.44 1 1 0 0 1 .17-.35.75.75 0 0 1 .27-.23.87.87 0 0 1 .4-.09h.35a.61.61 0 0 1 .14.07l.14.09-.24.35-.09-.07-.1-.05a.17.17 0 0 0-.1 0h-.12a.38.38 0 0 0-.16 0l-.13.1a.35.35 0 0 0-.07.15.58.58 0 0 0 0 .19.46.46 0 0 1 .17-.09.55.55 0 0 1 .24 0 .82.82 0 0 1 .28 0 .71.71 0 0 1 .23.12.62.62 0 0 1 .15.2.61.61 0 0 1 0 .28.67.67 0 0 1-.06.28.5.5 0 0 1-.16.22.72.72 0 0 1-.24.14.81.81 0 0 1-.3.06zm0-.38a.37.37 0 0 0 .25-.08.29.29 0 0 0 .09-.22.26.26 0 0 0-.09-.21.35.35 0 0 0-.26-.08.37.37 0 0 0-.26.08.26.26 0 0 0-.09.21.27.27 0 0 0 .1.22.4.4 0 0 0 .25.08zm10.83-1.29h-.95v-.38h1.46v.33l-.91 1.69h-.5zm10.42 1.67a1.37 1.37 0 0 1-.31 0 .83.83 0 0 1-.25-.12.42.42 0 0 1-.16-.19.48.48 0 0 1-.06-.24.48.48 0 0 1 .08-.3.52.52 0 0 1 .24-.19.63.63 0 0 1-.19-.17.54.54 0 0 1-.06-.27.38.38 0 0 1 0-.21.49.49 0 0 1 .14-.18.78.78 0 0 1 .22-.12 1 1 0 0 1 .3 0 .92.92 0 0 1 .29 0 .78.78 0 0 1 .22.12.65.65 0 0 1 .15.18.5.5 0 0 1 0 .21.54.54 0 0 1-.07.27.63.63 0 0 1-.19.17 1 1 0 0 1 .24.19.43.43 0 0 1 .08.29.49.49 0 0 1 0 .25.52.52 0 0 1-.17.19.9.9 0 0 1-.24.12 1.55 1.55 0 0 1-.26 0zm0-.37a.37.37 0 0 0 .28-.08.23.23 0 0 0 .09-.18.21.21 0 0 0-.09-.18.49.49 0 0 0-.25-.06.5.5 0 0 0-.26.06.21.21 0 0 0-.09.18.23.23 0 0 0 .09.18.4.4 0 0 0 .23.08zm0-.86a.31.31 0 0 0 .21-.07.21.21 0 0 0 .07-.15.21.21 0 0 0-.07-.16.28.28 0 0 0-.21-.07.29.29 0 0 0-.22.07.2.2 0 0 0-.07.16.21.21 0 0 0 .07.17.32.32 0 0 0 .22.05z" transform="translate(-136.75 -20)"/><circle cx="514.21" cy="162.35" r="1.38" fill="url(#radial-gradient-9)" opacity=".56"/><circle class="cls-28" cx="514.21" cy="162.35" r=".42"/><circle cx="519.88" cy="162.35" r="1.38" fill="url(#radial-gradient-10)" opacity=".56"/><circle class="cls-28" cx="519.88" cy="162.35" r=".42"/><circle cx="524.89" cy="162.35" r="1.38" fill="url(#radial-gradient-11)" opacity=".56"/><circle class="cls-28" cx="524.89" cy="162.35" r=".42"/><circle cx="530.56" cy="162.35" r="1.38" fill="url(#radial-gradient-12)" opacity=".56"/><circle class="cls-28" cx="530.56" cy="162.35" r=".42"/><circle cx="535.57" cy="162.35" r="1.38" fill="url(#radial-gradient-13)" opacity=".56"/><circle class="cls-28" cx="535.57" cy="162.35" r=".42"/><circle cx="541.24" cy="162.35" r="1.38" fill="url(#radial-gradient-14)" opacity=".56"/><circle class="cls-28" cx="541.24" cy="162.35" r=".42"/><circle cx="546.25" cy="162.35" r="1.38" fill="url(#radial-gradient-15)" opacity=".56"/><circle class="cls-28" cx="546.25" cy="162.35" r=".42"/><circle cx="551.82" cy="162.35" r="1.38" fill="url(#radial-gradient-16)" opacity=".56"/><circle class="cls-28" cx="551.82" cy="162.35" r=".42"/><circle cx="463.23" cy="165.2" r="4.55" fill="url(#radial-gradient-17)" opacity=".56"/><circle class="cls-28" cx="463.23" cy="165.2" r="1.39"/><rect class="cls-24" x="556.2" y="159.85" width="42.89" height="10.71" rx="4.44" ry="4.44"/><rect class="cls-25" x="589.36" y="160.97" width="8.47" height="8.47" rx="4.23" ry="4.23"/><rect class="cls-25" x="578.73" y="160.97" width="8.47" height="8.47" rx="4.23" ry="4.23"/><rect class="cls-25" x="568.09" y="160.97" width="8.47" height="8.47" rx="4.23" ry="4.23"/><rect class="cls-25" x="557.46" y="160.97" width="8.47" height="8.47" rx="4.23" ry="4.23"/><path class="cls-26" d="M698.36 179.37a.86.86 0 0 1-.38-.07 1.05 1.05 0 0 1-.29-.17l.24-.33a.8.8 0 0 0 .21.13.73.73 0 0 0 .23 0 .32.32 0 0 0 .28-.13.66.66 0 0 0 .13-.33.77.77 0 0 1-.18.1.79.79 0 0 1-.23 0 .94.94 0 0 1-.3-.05.65.65 0 0 1-.23-.13.48.48 0 0 1-.14-.2.61.61 0 0 1-.05-.28.71.71 0 0 1 .05-.29.69.69 0 0 1 .16-.22 1 1 0 0 1 .24-.15 1.07 1.07 0 0 1 .32-.05h.33l.13.07.12.1.1.12a.67.67 0 0 1 .07.17 1.17 1.17 0 0 1 .05.2 2.13 2.13 0 0 1 0 .27 1.63 1.63 0 0 1-.06.45.91.91 0 0 1-.17.34.67.67 0 0 1-.27.23.92.92 0 0 1-.36.22zm.08-1.09a.33.33 0 0 0 .25-.09.26.26 0 0 0 .1-.21.3.3 0 0 0-.1-.22.42.42 0 0 0-.52 0 .29.29 0 0 0-.09.22.29.29 0 0 0 .1.22.36.36 0 0 0 .26.08zm9.56-.53l-.35.09-.09-.37.58-.17h.3v2H708zm1.73 1.62a.87.87 0 0 1-.37-.08.76.76 0 0 1-.28-.22 1.06 1.06 0 0 1-.19-.33 1.35 1.35 0 0 1-.06-.41 1.07 1.07 0 0 1 .07-.41 1 1 0 0 1 .18-.34.85.85 0 0 1 .28-.22.9.9 0 0 1 .74 0 .85.85 0 0 1 .28.22.88.88 0 0 1 .18.33 1.1 1.1 0 0 1 .07.41 1.14 1.14 0 0 1-.07.41 1.06 1.06 0 0 1-.18.33.89.89 0 0 1-.29.22.86.86 0 0 1-.36.09zm0-.4a.4.4 0 0 0 .32-.18.72.72 0 0 0 .09-.2 1.09 1.09 0 0 0 0-.26 1 1 0 0 0 0-.26.53.53 0 0 0-.09-.2.47.47 0 0 0-.14-.14.41.41 0 0 0-.18 0 .41.41 0 0 0-.19 0 .4.4 0 0 0-.13.13.72.72 0 0 0-.09.2 1.09 1.09 0 0 0 0 .26 1 1 0 0 0 0 .25.67.67 0 0 0 .09.21.44.44 0 0 0 .14.13.35.35 0 0 0 .18.09zm9.37-1.21l-.35.08-.09-.36.58-.17h.3v2h-.44zm1.22 0l-.35.08-.09-.36.58-.17h.3v2h-.44zm9.08.01l-.36.08-.09-.36.58-.18h.31v2h-.44zm.84 1.23l.68-.55.16-.14a.53.53 0 0 0 .1-.12l.07-.11a.41.41 0 0 0 0-.12.24.24 0 0 0-.07-.19.27.27 0 0 0-.2-.07.31.31 0 0 0-.21.07 1.24 1.24 0 0 0-.2.2l-.31-.25.15-.18.16-.13a.7.7 0 0 1 .2-.08.91.91 0 0 1 .53 0 .68.68 0 0 1 .22.12.6.6 0 0 1 .14.2.66.66 0 0 1 .05.25.59.59 0 0 1 0 .23.61.61 0 0 1-.09.18 1.41 1.41 0 0 1-.17.18l-.23.19-.33.26h.88v.38h-1.5z" transform="translate(-136.75 -20)"/><circle cx="558.84" cy="162.35" r="1.38" fill="url(#radial-gradient-18)" opacity=".56"/><circle class="cls-28" cx="558.84" cy="162.35" r=".42"/><circle cx="564.51" cy="162.35" r="1.38" fill="url(#radial-gradient-19)" opacity=".56"/><circle class="cls-28" cx="564.51" cy="162.35" r=".42"/><circle cx="569.52" cy="162.35" r="1.38" fill="url(#radial-gradient-20)" opacity=".56"/><circle class="cls-28" cx="569.52" cy="162.35" r=".42"/><circle cx="575.19" cy="162.35" r="1.38" fill="url(#radial-gradient-21)" opacity=".56"/><circle class="cls-28" cx="575.19" cy="162.35" r=".42"/><circle cx="580.2" cy="162.35" r="1.38" fill="url(#radial-gradient-22)" opacity=".56"/><circle class="cls-28" cx="580.2" cy="162.35" r=".42"/><circle cx="585.87" cy="162.35" r="1.38" fill="url(#radial-gradient-23)" opacity=".56"/><circle class="cls-28" cx="585.87" cy="162.35" r=".42"/><circle cx="590.88" cy="162.35" r="1.38" fill="url(#radial-gradient-24)" opacity=".56"/><circle class="cls-28" cx="590.88" cy="162.35" r=".42"/><circle cx="596.45" cy="162.35" r="1.38" fill="url(#radial-gradient-25)" opacity=".56"/><circle class="cls-28" cx="596.45" cy="162.35" r=".42"/><rect class="cls-24" x="600.9" y="159.85" width="42.89" height="10.71" rx="4.44" ry="4.44"/><rect class="cls-25" x="634.06" y="160.97" width="8.47" height="8.47" rx="4.23" ry="4.23"/><rect class="cls-25" x="623.43" y="160.97" width="8.47" height="8.47" rx="4.23" ry="4.23"/><rect class="cls-25" x="612.8" y="160.97" width="8.47" height="8.47" rx="4.23" ry="4.23"/><rect class="cls-25" x="602.16" y="160.97" width="8.47" height="8.47" rx="4.23" ry="4.23"/><path class="cls-26" d="M742.2 178l-.35.08-.09-.36.58-.17h.3v2h-.44zm1.6 1.57a1.08 1.08 0 0 1-.46-.1.92.92 0 0 1-.32-.26l.3-.29a.73.73 0 0 0 .22.18.6.6 0 0 0 .27.06.37.37 0 0 0 .21-.06.25.25 0 0 0 .08-.18.23.23 0 0 0-.11-.19.57.57 0 0 0-.29-.06h-.18l-.07-.28.48-.49h-.8v-.38h1.37v.34l-.51.48a.66.66 0 0 1 .2.06.48.48 0 0 1 .17.1.43.43 0 0 1 .13.17.55.55 0 0 1 0 .24.66.66 0 0 1-.19.48.74.74 0 0 1-.23.14 1 1 0 0 1-.27.04zm8.93-1.57l-.35.09-.1-.36.58-.18h.31v2h-.44zm1.85 1.11h-1l-.07-.31 1.11-1.29h.38v1.24h.27v.36H755v.44h-.43zm0-.36v-.63l-.54.63zm8.88-.75l-.35.08-.1-.36.58-.17h.31v2h-.44zm1.54 1.57a1.08 1.08 0 0 1-.42-.08 1.23 1.23 0 0 1-.33-.23l.27-.31a1.19 1.19 0 0 0 .23.16.51.51 0 0 0 .25 0 .41.41 0 0 0 .25-.07.26.26 0 0 0 .09-.21.27.27 0 0 0-.1-.21.53.53 0 0 0-.26-.07h-.18l-.16.06-.26-.17.06-1h1.24v.39h-.86v.35h.26a.86.86 0 0 1 .28 0 .53.53 0 0 1 .38.31.65.65 0 0 1 0 .29.68.68 0 0 1 0 .29.67.67 0 0 1-.4.36 1.07 1.07 0 0 1-.34.14zm9-1.57l-.35.08-.09-.36.58-.17h.3v2H774zm1.73 1.58a.83.83 0 0 1-.34-.06 1 1 0 0 1-.25-.16.74.74 0 0 1-.17-.29 1.52 1.52 0 0 1-.07-.48 1.56 1.56 0 0 1 .06-.44 1 1 0 0 1 .16-.35.91.91 0 0 1 .28-.23.8.8 0 0 1 .39-.08h.37l.15.07.13.1-.23.34-.1-.07h-.31a.43.43 0 0 0-.17 0 .4.4 0 0 0-.12.1.53.53 0 0 0-.08.15 1.06 1.06 0 0 0 0 .19.91.91 0 0 1 .17-.09.62.62 0 0 1 .25 0 .86.86 0 0 1 .28 0 .78.78 0 0 1 .22.12.48.48 0 0 1 .15.2.64.64 0 0 1 .06.28.64.64 0 0 1-.06.28.6.6 0 0 1-.16.22.87.87 0 0 1-.25.15.94.94 0 0 1-.36.05zm0-.39a.4.4 0 0 0 .26-.08.29.29 0 0 0 .09-.21.24.24 0 0 0-.1-.21.33.33 0 0 0-.25-.08.35.35 0 0 0-.26.08.26.26 0 0 0-.09.21.29.29 0 0 0 .09.22.4.4 0 0 0 .24.07z" transform="translate(-136.75 -20)"/><circle cx="603.54" cy="162.35" r="1.38" fill="url(#radial-gradient-26)" opacity=".56"/><circle class="cls-28" cx="603.54" cy="162.35" r=".42"/><circle cx="609.22" cy="162.35" r="1.38" fill="url(#radial-gradient-27)" opacity=".56"/><circle class="cls-28" cx="609.22" cy="162.35" r=".42"/><circle cx="614.22" cy="162.35" r="1.38" fill="url(#radial-gradient-28)" opacity=".56"/><circle class="cls-28" cx="614.22" cy="162.35" r=".42"/><circle cx="619.9" cy="162.35" r="1.38" fill="url(#radial-gradient-29)" opacity=".56"/><circle class="cls-28" cx="619.9" cy="162.35" r=".42"/><circle cx="624.9" cy="162.35" r="1.38" fill="url(#radial-gradient-30)" opacity=".56"/><circle class="cls-28" cx="624.9" cy="162.35" r=".42"/><circle cx="630.57" cy="162.35" r="1.38" fill="url(#radial-gradient-31)" opacity=".56"/><circle class="cls-28" cx="630.57" cy="162.35" r=".42"/><circle cx="635.58" cy="162.35" r="1.38" fill="url(#radial-gradient-32)" opacity=".56"/><circle class="cls-28" cx="635.58" cy="162.35" r=".42"/><circle cx="641.15" cy="162.35" r="1.38" fill="url(#radial-gradient-33)" opacity=".56"/><circle class="cls-28" cx="641.15" cy="162.35" r=".42"/><path d="M642.62 173.08H464.04c-2.11 0-3.84-1.41-3.84-3.14v-26.3c0-1.73 1.73-3.14 3.84-3.14h178.58c2.11 0 3.84 1.41 3.84 3.14v26.3c0 1.73-1.73 3.14-3.84 3.14z" stroke-width=".9" stroke="#fff" fill="none" stroke-miterlimit="10"/></svg>